<?xml version="1.0" encoding="UTF-8" standalone="no"?>
<!-- Created with Inkscape (http://www.inkscape.org/) -->

<svg
   xmlns:dc="http://purl.org/dc/elements/1.1/"
   xmlns:cc="http://creativecommons.org/ns#"
   xmlns:rdf="http://www.w3.org/1999/02/22-rdf-syntax-ns#"
   xmlns:svg="http://www.w3.org/2000/svg"
   xmlns="http://www.w3.org/2000/svg"
   xmlns:sodipodi="http://sodipodi.sourceforge.net/DTD/sodipodi-0.dtd"
   xmlns:inkscape="http://www.inkscape.org/namespaces/inkscape"
   sodipodi:docname="Water.svg"
   inkscape:version="0.48.4 r9939"
   version="1.1"
   id="svg5320"
   height="64"
   width="64"
   inkscape:export-filename="C:\Users\merz\Documents\Unity\Ascendance\Assets\Sprites\Water.png"
   inkscape:export-xdpi="90"
   inkscape:export-ydpi="90">
  <sodipodi:namedview
     id="base"
     pagecolor="#ffffff"
     bordercolor="#666666"
     borderopacity="1.0"
     inkscape:pageopacity="0.0"
     inkscape:pageshadow="2"
     inkscape:zoom="7.2407734"
     inkscape:cx="32.573147"
     inkscape:cy="24.526554"
     inkscape:current-layer="layer1"
     showgrid="true"
     inkscape:grid-bbox="true"
     inkscape:document-units="px"
     inkscape:window-width="1600"
     inkscape:window-height="837"
     inkscape:window-x="-8"
     inkscape:window-y="-8"
     inkscape:window-maximized="1"
     showborder="true" />
  <defs
     id="defs5322" />
  <metadata
     id="metadata5325">
    <rdf:RDF>
      <cc:Work
         rdf:about="">
        <dc:format>image/svg+xml</dc:format>
        <dc:type
           rdf:resource="http://purl.org/dc/dcmitype/StillImage" />
        <dc:title></dc:title>
      </cc:Work>
    </rdf:RDF>
  </metadata>
  <g
     inkscape:groupmode="layer"
     inkscape:label="Layer 1"
     id="layer1"
     transform="translate(0,32)">
    <path
       sodipodi:nodetypes="sssssssssccs"
       inkscape:connector-curvature="0"
       id="rect5328"
       d="m 2.3751648,-0.40468954 c 2.9728286,0.41636468 4.7330825,-1.67605656 7.205388,-2.63867566 2.9044012,-1.1308627 5.3925562,-2.6818229 7.9592952,-2.0104205 2.401796,0.628255 5.306197,0.2513028 8.084947,-0.5026057 2.560531,-0.6947032 4.504991,-0.2630587 7.079737,0.3769542 2.527447,0.6282551 3.492826,0.3600467 6.074527,-0.2513028 2.653098,-0.628257 6.598857,-0.2840792 9.090156,0.6282571 2.401797,0.8795579 8.070525,2.0104186 10.723625,1.1308607 2.518315,-0.8348764 4.757605,3.54770875 7.45669,3.26693266 8.821996,-0.91772266 0,31.83718254 0,31.83718254 l -63.6743652,0 c 0,0 -10.5098149,-33.3091548 0,-31.83718254 z"
       style="fill:#00ffff;stroke-width:3.54330707;stroke-linecap:round;stroke-linejoin:round;stroke-miterlimit:4" />
    <path
       sodipodi:nodetypes="sssssssssccs"
       inkscape:connector-curvature="0"
       id="rect5328-5"
       d="m 2.2714456,17.484731 c 2.9728286,0.182427 4.7330825,-0.734275 7.205388,-1.155994 2.9044014,-0.495429 5.3925564,-1.174896 7.9592954,-0.880758 2.401796,0.275236 5.306197,0.110077 8.084946,-0.22019 2.560531,-0.304348 4.504991,-0.115251 7.079738,0.165135 2.527446,0.275235 3.492825,0.157754 6.074526,-0.110097 2.653098,-0.275238 6.598857,-0.124463 9.090157,0.275239 2.401797,0.385331 8.070524,0.880756 10.723624,0.495424 2.518315,-0.365755 4.757606,1.55424 7.45669,1.431233 8.821996,-0.402052 0,13.947764 0,13.947764 l -63.6743644,0 c 0,0 -10.5098148,-14.592632 0,-13.947764 z"
       style="fill:#000080;stroke-width:3.54330707;stroke-linecap:round;stroke-linejoin:round;stroke-miterlimit:4" />
    <g
       id="g5899"
       transform="matrix(1.9898239,0,0,1.9898239,2.3751648,-32.241872)">
      <path
         id="path5901"
         d="m 0,16 c 1.4940159,0.209247 2.3786439,-0.842314 3.6211184,-1.326085 0.1739009,-0.06771 0.3448325,-0.138417 0.5132153,-0.209876 1.2449289,-0.528321 2.3505352,-1.097693 3.4867847,-0.800475 0.3960598,0.1036 0.8193148,0.15281 1.2586106,0.158785 0.8995104,0.01223 1.866276,-0.156812 2.804536,-0.411373 0.764674,-0.207465 1.420018,-0.215046 2.097467,-0.119548 0.46258,0.06521 0.935467,0.178479 1.460505,0.308989 1.188319,0.295384 1.689543,0.196448 2.811617,-0.06911 0.0773,-0.0183 0.157554,-0.03738 0.241179,-0.05718 0.984049,-0.233024 2.321954,-0.199852 3.458709,0.01784 0.403486,0.07727 0.78163,0.177785 1.109613,0.297895 0.947126,0.346845 2.905125,0.77145 4.348614,0.724676 0.396128,-0.01284 0.753509,-0.06117 1.040619,-0.156354 C 29.518185,13.938607 30.643556,16.141106 32,16 c 0.492497,-0.05123 0.875577,0.106351 1.167472,0.426991 0.704418,0.773789 0.877788,2.497191 0.776346,4.527073 -0.192085,3.843714 -1.369532,8.786341 -1.792612,10.461303 C 32.056837,31.78897 32,32 32,32 32,32 0,32 0,32 0,32 -0.90261531,29.139307 -1.5884465,25.835351 -2.5616524,21.146983 -3.0983399,15.566056 0,16 c 0,0 0,0 0,0"
         style="fill:#00ffff;fill-opacity:1;stroke-width:3.54330707;stroke-linecap:round;stroke-linejoin:round;stroke-miterlimit:4"
         inkscape:connector-curvature="0" />
      <path
         id="path5903"
         d="M -0.0032578,16.561903 C 1.4792229,16.763095 2.3611445,15.755758 3.5899913,15.287916 3.7620478,15.222421 3.931548,15.154259 4.099,15.085631 5.3327145,14.57897 6.4288473,14.030744 7.5527869,14.30601 c 0.3930214,0.09588 0.8114121,0.142276 1.2450211,0.150371 0.887752,0.01656 1.844039,-0.141625 2.775046,-0.38302 0.752687,-0.196411 1.403579,-0.206903 2.074528,-0.121634 0.460844,0.0579 0.929142,0.162633 1.445632,0.284808 1.1616,0.276573 1.676365,0.188395 2.781856,-0.05473 0.07681,-0.01668 0.156243,-0.03414 0.238706,-0.0523 0.992801,-0.211541 2.278375,-0.184175 3.420739,0.01196 0.396294,0.07057 0.770729,0.163559 1.099165,0.275488 0.96384,0.322725 2.888847,0.725829 4.303443,0.691817 0.38592,-0.0097 0.739332,-0.05255 1.029266,-0.139416 1.249858,-0.386125 2.390602,1.685062 3.730128,1.551898 0.486941,-0.04836 0.868838,0.09805 1.160717,0.396008 0.739491,0.713939 0.972361,2.389934 0.962038,4.289085 0.09702,3.590854 -1.283936,8.675291 -1.680574,10.245568 C 32.050027,31.802159 31.98587,32 31.965728,32 31.782716,32 0.83443179,32 0.32360324,32 c -0.1954512,0 -1.17306289,-2.6819 -1.81602964,-5.779358 -0.9123805,-4.395346 -1.7456364,-10.085816 1.4891686,-9.658739 0,0 0,0 0,0"
         style="fill:#00eff7;fill-opacity:1;stroke-width:3.54330707;stroke-linecap:round;stroke-linejoin:round;stroke-miterlimit:4"
         inkscape:connector-curvature="0" />
      <path
         id="path5905"
         d="m -0.0065156,17.123807 c 1.4709455,0.193135 2.3501608,-0.769978 3.5653799,-1.221891 0.1702121,-0.06328 0.3382808,-0.128895 0.5048019,-0.194694 1.2225002,-0.485 2.3091594,-1.01208 3.4207893,-0.758766 0.3899828,0.08815 0.8035093,0.131741 1.2314315,0.141958 0.8759936,0.02089 1.821802,-0.126439 2.745556,-0.354669 0.7407,-0.185356 1.38714,-0.19876 2.05159,-0.123719 0.459108,0.0506 0.922815,0.146788 1.430757,0.260628 1.134883,0.257762 1.663189,0.180341 2.752096,-0.04036 0.07632,-0.01506 0.154932,-0.03089 0.236233,-0.04742 1.001552,-0.19006 2.234796,-0.168499 3.382769,0.0061 0.389102,0.06387 0.759829,0.149333 1.088717,0.253082 0.980554,0.298604 2.87257,0.680207 4.258271,0.658957 0.375713,-0.0066 0.725157,-0.04393 1.017915,-0.122478 1.234117,-0.352676 2.390235,1.587199 3.712843,1.461978 0.481386,-0.04548 0.862099,0.08976 1.153962,0.365023 0.774565,0.654089 1.066935,2.282679 1.14773,4.051098 0.386119,3.337993 -1.198341,8.564242 -1.568536,10.029834 C 32.043217,31.815348 31.97174,32 31.931457,32 31.565432,32 1.6688636,32 0.64720648,32 0.25630409,32 -0.796304,29.496893 -1.3964063,26.605932 c -0.8515551,-4.102323 -1.9813794,-9.902337 1.3898907,-9.482126 0,0 0,1e-6 0,1e-6"
         style="fill:#00dfef;fill-opacity:1;stroke-width:3.54330707;stroke-linecap:round;stroke-linejoin:round;stroke-miterlimit:4"
         inkscape:connector-curvature="0" />
      <path
         id="path5907"
         d="m -0.0097734,17.68571 c 1.4594102,0.18508 2.3359192,-0.733809 3.5375106,-1.169793 0.1683677,-0.06106 0.335005,-0.124135 0.5005953,-0.187104 1.2112858,-0.463339 2.2884714,-0.969273 3.3877915,-0.737912 0.3869444,0.08043 0.7956067,0.121207 1.2178421,0.133545 0.864235,0.02522 1.7995649,-0.111252 2.7160659,-0.326316 0.728714,-0.174302 1.370701,-0.190617 2.028651,-0.125805 0.457372,0.04329 0.91649,0.130942 1.415884,0.236447 1.108164,0.238951 1.650011,0.172288 2.722335,-0.02599 0.07583,-0.01345 0.153622,-0.02765 0.23376,-0.04254 1.010303,-0.168577 2.191217,-0.152822 3.344799,1.94e-4 0.381909,0.05717 0.748928,0.135108 1.078269,0.230675 0.997268,0.274485 2.856292,0.634587 4.2131,0.626099 0.365505,-0.0034 0.71098,-0.03531 1.006562,-0.10554 1.218378,-0.319228 2.38987,1.489335 3.695558,1.372056 0.475831,-0.0426 0.855361,0.08146 1.147208,0.33404 0.809638,0.594238 1.161509,2.175422 1.333421,3.81311 0.675222,3.085133 -1.112745,8.453192 -1.456497,9.814099 -0.07668,0.303552 -0.155473,0.475014 -0.215897,0.475014 -0.549037,0 -29.3938896,0 -30.92637529,0 -0.58635358,0 -1.71395805,-2.324313 -2.27119591,-5.008777 -0.7907297,-3.809299 -2.2171224,-9.718858 1.2906128,-9.305513 0,0 0,1e-6 0,1e-6"
         style="fill:#00cfe7;fill-opacity:1;stroke-width:3.54330707;stroke-linecap:round;stroke-linejoin:round;stroke-miterlimit:4"
         inkscape:connector-curvature="0" />
      <path
         id="path5909"
         d="m -0.0130312,18.247613 c 1.447875,0.177024 2.3216776,-0.69764 3.5096414,-1.117696 0.1665233,-0.05885 0.331729,-0.119373 0.4963885,-0.179512 1.2000715,-0.441679 2.2677836,-0.926467 3.3547938,-0.717058 0.3839059,0.07271 0.787704,0.110673 1.2042526,0.125132 0.8524766,0.02956 1.7773279,-0.09607 2.6865759,-0.297965 0.716727,-0.163247 1.354262,-0.182474 2.005713,-0.12789 0.455635,0.03599 0.910164,0.115097 1.40101,0.212266 1.081446,0.22014 1.636834,0.164235 2.692575,-0.01161 0.07534,-0.01183 0.15231,-0.0244 0.231286,-0.03765 1.019055,-0.147094 2.147638,-0.137144 3.306829,-0.0057 0.374717,0.05047 0.738027,0.120883 1.067822,0.208269 1.013981,0.250364 2.840013,0.588965 4.167928,0.59324 0.355297,-2.89e-4 0.696803,-0.02669 0.995209,-0.0886 1.202638,-0.285779 2.389504,1.391472 3.678274,1.282136 0.470276,-0.03973 0.848622,0.07316 1.140453,0.303055 0.844712,0.534389 1.256083,2.068167 1.519113,3.575124 0.964324,2.832272 -1.027149,8.342142 -1.34446,9.598363 -0.07078,0.280203 -0.156894,0.438475 -0.23746,0.438475 -0.732049,0 -28.5251858,0 -30.5685,0 -0.78180482,0 -1.98440568,-2.145519 -2.4987791,-4.623486 -0.7299044,-3.516277 -2.4528654,-9.535379 1.1913349,-9.128901 0,0 0,1e-6 0,1e-6"
         style="fill:#00bfdf;fill-opacity:1;stroke-width:3.54330707;stroke-linecap:round;stroke-linejoin:round;stroke-miterlimit:4"
         inkscape:connector-curvature="0" />
      <path
         id="path5911"
         d="m -0.016289,18.809517 c 1.4363398,0.168968 2.307436,-0.661472 3.4817721,-1.065599 0.164679,-0.05663 0.3284532,-0.114613 0.4921818,-0.171922 1.1888572,-0.420018 2.2470957,-0.88366 3.3217962,-0.696203 0.3808673,0.06498 0.7798012,0.100138 1.1906631,0.116719 0.8407181,0.03388 1.7550908,-0.08088 2.6570858,-0.269613 0.704741,-0.152193 1.337823,-0.174331 1.982774,-0.129976 0.4539,0.02868 0.903839,0.09925 1.386137,0.188085 1.054727,0.20133 1.623656,0.156182 2.662814,0.0028 0.07485,-0.01021 0.150999,-0.02116 0.228813,-0.03277 1.027806,-0.125612 2.104059,-0.121468 3.268859,-0.01157 0.367525,0.04377 0.727126,0.106657 1.057374,0.185862 1.030695,0.226244 2.823735,0.543344 4.122757,0.560381 0.345089,0.0028 0.682626,-0.01807 0.983857,-0.07166 1.186898,-0.25233 2.389137,1.293609 3.660989,1.192214 0.46472,-0.03685 0.841883,0.06487 1.133697,0.272072 0.879787,0.474538 1.350657,1.96091 1.704805,3.337136 1.253428,2.579411 -0.941553,8.231092 -1.232421,9.382629 -0.06488,0.256852 -0.158316,0.401935 -0.259023,0.401935 -0.915062,0 -27.6564831,0 -30.2106258,0 -0.97725598,0 -2.25485323,-1.966726 -2.7263622,-4.238196 -0.669079,-3.223253 -2.6886084,-9.3519 1.092057,-8.952287 0,0 0,1e-6 0,1e-6"
         style="fill:#00afd7;fill-opacity:1;stroke-width:3.54330707;stroke-linecap:round;stroke-linejoin:round;stroke-miterlimit:4"
         inkscape:connector-curvature="0" />
      <path
         id="path5913"
         d="m -0.0195468,19.37142 c 1.4248046,0.160912 2.2931945,-0.625304 3.4539029,-1.013501 0.1628345,-0.05442 0.3251773,-0.109852 0.4879751,-0.164332 1.1776428,-0.398357 2.2264078,-0.840853 3.2887984,-0.675348 0.3778289,0.05726 0.7718986,0.0896 1.1770736,0.108305 0.8289597,0.03822 1.7328538,-0.06569 2.6275948,-0.241261 0.692755,-0.141138 1.321385,-0.166188 1.959837,-0.132061 0.452163,0.02137 0.897513,0.0834 1.371262,0.163905 1.02801,0.182518 1.61048,0.148128 2.633054,0.01714 0.07436,-0.0086 0.149688,-0.01791 0.22634,-0.02789 1.036557,-0.104129 2.06048,-0.105791 3.230889,-0.01745 0.360333,0.03707 0.716225,0.09243 1.046926,0.163456 1.047409,0.202123 2.807457,0.497722 4.077586,0.527522 0.334881,0.006 0.668449,-0.0094 0.972504,-0.05473 1.171158,-0.218882 2.388771,1.195745 3.643705,1.102293 0.459165,-0.03398 0.835144,0.05657 1.126942,0.241087 0.91486,0.414688 1.445231,1.853654 1.890497,3.099149 1.54253,2.326551 -0.855958,8.120043 -1.120383,9.166894 -0.05898,0.233502 -0.159738,0.365396 -0.280587,0.365396 -1.098073,0 -26.7877793,0 -29.8527506,0 -1.17270713,0 -2.52530077,-1.787933 -2.9539453,-3.852906 -0.6082536,-2.93023 -2.9243514,-9.16842 0.9927791,-8.775674 0,0 0,10e-7 0,10e-7"
         style="fill:#009fcf;fill-opacity:1;stroke-width:3.54330707;stroke-linecap:round;stroke-linejoin:round;stroke-miterlimit:4"
         inkscape:connector-curvature="0" />
      <path
         id="path5915"
         d="m -0.0228046,19.933324 c 1.4132694,0.152856 2.2789529,-0.589136 3.4260336,-0.961405 0.1609902,-0.0522 0.3219015,-0.10509 0.4837684,-0.15674 1.1664285,-0.376697 2.2057199,-0.798047 3.2558007,-0.654495 0.3747904,0.04953 0.7639959,0.07907 1.1634841,0.09989 0.8172013,0.04255 1.7106168,-0.05051 2.5981048,-0.212909 0.680769,-0.130084 1.304946,-0.158045 1.936898,-0.134147 0.450428,0.01407 0.891187,0.06756 1.356389,0.139724 1.001291,0.163707 1.597302,0.140074 2.603293,0.03152 0.07387,-0.007 0.148377,-0.01467 0.223866,-0.023 1.04531,-0.08265 2.016902,-0.09011 3.192919,-0.02333 0.353141,0.03037 0.705325,0.07821 1.036479,0.141049 1.064124,0.178004 2.791179,0.452102 4.032415,0.494664 0.324673,0.0091 0.654272,-8.28e-4 0.961152,-0.03779 1.155418,-0.185433 2.388404,1.097882 3.62642,1.012372 0.453609,-0.0311 0.828405,0.04827 1.120187,0.210103 0.949934,0.354838 1.539805,1.746399 2.076188,2.861162 1.831633,2.07369 -0.770362,8.008993 -1.008344,8.95116 -0.05308,0.210151 -0.16116,0.328856 -0.302151,0.328856 -1.281085,0 -25.9190755,0 -29.4948753,0 -1.36815839,0 -2.79574842,-1.60914 -3.18152845,-3.467615 -0.54742835,-2.637208 -3.16009445,-8.984942 0.89350115,-8.599062 0,0 0,2e-6 0,2e-6"
         style="fill:#008fc7;fill-opacity:1;stroke-width:3.54330707;stroke-linecap:round;stroke-linejoin:round;stroke-miterlimit:4"
         inkscape:connector-curvature="0" />
      <path
         id="path5917"
         d="M -0.02606241,20.495227 C 1.3756718,20.640028 2.2386489,19.94226 3.3721019,19.58592 c 0.1591458,-0.04999 0.3186257,-0.10033 0.4795618,-0.14915 1.1552141,-0.355036 2.1850319,-0.75524 3.222803,-0.63364 0.3717519,0.04181 0.7560931,0.06854 1.1498946,0.09148 0.8054428,0.04688 1.6883801,-0.03532 2.5686147,-0.184556 0.668782,-0.11903 1.288507,-0.149903 1.91396,-0.136233 0.448691,0.0068 0.884861,0.05171 1.341515,0.115543 0.974573,0.144897 1.584124,0.132021 2.573532,0.04589 0.07338,-0.0054 0.147066,-0.01142 0.221393,-0.01812 1.054061,-0.06117 1.973323,-0.07444 3.154949,-0.02922 0.345949,0.02367 0.694425,0.06398 1.026031,0.118642 1.080838,0.153883 2.774901,0.40648 3.987243,0.461804 0.314466,0.01226 0.640096,0.0078 0.9498,-0.02085 1.139678,-0.151985 2.388039,1.000018 3.609135,0.92245 0.448054,-0.02822 0.821667,0.03998 1.113433,0.17912 0.985008,0.294988 1.634378,1.639142 2.26188,2.623174 2.120735,1.82083 -0.684766,7.897944 -0.896306,8.735425 -0.04718,0.186801 -0.162582,0.292316 -0.323714,0.292316 -1.464098,0 -25.0503727,0 -29.1370011,0 -1.5636095,0 -3.06619596,-1.430346 -3.40911155,-3.082324 -0.48660295,-2.344184 -3.39583745,-8.801462 0.79422324,-8.422449 0,0 0,2e-6 0,2e-6"
         style="fill:#007fbf;fill-opacity:1;stroke-width:3.54330707;stroke-linecap:round;stroke-linejoin:round;stroke-miterlimit:4"
         inkscape:connector-curvature="0" />
      <path
         id="path5919"
         d="m -0.02932021,21.05713 c 1.39019891,0.136745 2.25046981,-0.516799 3.37029511,-0.857209 0.1573014,-0.04777 0.3153498,-0.09557 0.475355,-0.141559 1.1439998,-0.333376 2.1643441,-0.712434 3.1898053,-0.612786 0.3687134,0.03409 0.7481905,0.058 1.1363051,0.08307 0.7936844,0.05121 1.6661431,-0.02014 2.5391247,-0.156205 0.656796,-0.107975 1.272068,-0.14176 1.891021,-0.138318 0.446955,-5.42e-4 0.878536,0.03587 1.326641,0.09136 0.947855,0.126086 1.570948,0.123968 2.543772,0.06027 0.07289,-0.0037 0.145756,-0.0082 0.21892,-0.01324 1.062812,-0.03968 1.929744,-0.05876 3.116979,-0.0351 0.338757,0.01697 0.683524,0.04976 1.015583,0.09624 1.097552,0.129763 2.758623,0.360859 3.942072,0.428945 0.304258,0.01539 0.625919,0.01641 0.938447,-0.0039 1.123939,-0.118537 2.387673,0.902154 3.591851,0.832529 0.442499,-0.02535 0.814928,0.03168 1.106678,0.148135 1.020081,0.235138 1.728952,1.531886 2.447571,2.385187 2.409838,1.56797 -0.59917,7.786894 -0.784268,8.51969 -0.04129,0.163452 -0.164004,0.255777 -0.345277,0.255777 -1.64711,0 -24.1816689,0 -28.7791259,0 -1.7590607,0 -3.3366435,-1.251553 -3.63669464,-2.697034 -0.42577756,-2.051161 -3.63158036,-8.617983 0.69494533,-8.245836 0,0 0,2e-6 0,2e-6"
         style="fill:#006fb7;fill-opacity:1;stroke-width:3.54330707;stroke-linecap:round;stroke-linejoin:round;stroke-miterlimit:4"
         inkscape:connector-curvature="0" />
      <path
         id="path5921"
         d="m -0.03257801,21.619034 c 1.37866371,0.128689 2.23622821,-0.480631 3.34242581,-0.805113 0.155457,-0.04556 0.312074,-0.09081 0.4711483,-0.133968 1.1327855,-0.311715 2.1436562,-0.669627 3.1568076,-0.591931 0.365675,0.02636 0.7402878,0.04747 1.1227157,0.07465 0.7819258,0.05554 1.6439061,-0.0049 2.5096346,-0.127852 0.644809,-0.09692 1.255629,-0.133617 1.868083,-0.140404 0.445219,-0.0078 0.87221,0.02002 1.311767,0.06718 0.921137,0.107275 1.55777,0.115914 2.514011,0.07464 0.0724,-0.0021 0.144445,-0.0049 0.216447,-0.0084 1.071564,-0.0182 1.886165,-0.04308 3.079009,-0.04098 0.331564,0.01028 0.672623,0.03553 1.005136,0.07383 1.114265,0.105642 2.742344,0.315237 3.8969,0.396086 0.29405,0.01853 0.611742,0.02503 0.927095,0.01302 1.108198,-0.08509 2.387306,0.804291 3.574566,0.742608 0.436943,-0.02247 0.808189,0.02338 1.099923,0.117152 1.055155,0.175287 1.823526,1.42463 2.633263,2.147199 2.69894,1.315109 -0.513575,7.675845 -0.67223,8.303956 -0.03539,0.140101 -0.165426,0.219237 -0.366841,0.219237 -1.830122,0 -23.3129651,0 -28.4212506,0 -1.954512,0 -3.60709115,-1.07276 -3.86427784,-2.311743 -0.3649522,-1.758138 -3.86732336,-8.434505 0.59566743,-8.069224 0,0 0,3e-6 0,3e-6"
         style="fill:#005faf;fill-opacity:1;stroke-width:3.54330707;stroke-linecap:round;stroke-linejoin:round;stroke-miterlimit:4"
         inkscape:connector-curvature="0" />
      <path
         id="path5923"
         d="M -0.03583581,22.180937 C 1.3312927,22.30157 2.1861508,21.736475 3.2787208,21.427922 c 0.1536126,-0.04334 0.3087981,-0.08605 0.4669416,-0.126378 1.1215711,-0.290054 2.1229682,-0.626821 3.1238098,-0.571077 0.3626365,0.01864 0.7323852,0.03693 1.1091262,0.06624 0.7701674,0.05987 1.6216691,0.01024 2.4801446,-0.0995 0.632823,-0.08587 1.23919,-0.125474 1.845144,-0.142489 0.443483,-0.01515 0.865885,0.0042 1.296894,0.043 0.894418,0.08846 1.544593,0.107861 2.48425,0.08902 0.07191,-5.17e-4 0.143134,-0.0017 0.213974,-0.0035 1.080315,0.0033 1.842586,-0.02741 3.041039,-0.04686 0.324372,0.0036 0.661722,0.0213 0.994688,0.05142 1.130979,0.08152 2.726066,0.269617 3.851729,0.363228 0.283842,0.02167 0.597565,0.03365 0.915742,0.02996 1.092459,-0.05164 2.38694,0.706427 3.557282,0.652687 0.431388,-0.0196 0.80145,0.01509 1.093168,0.08617 1.090229,0.115438 1.918099,1.317374 2.818954,1.909212 2.988043,1.062249 -0.427978,7.564795 -0.560191,8.088221 -0.02949,0.116751 -0.166848,0.182698 -0.388404,0.182698 -2.013135,0 -22.4442623,0 -28.0633764,0 -2.1499631,0 -3.87753869,-0.893967 -4.09186093,-1.926453 -0.30412684,-1.465115 -4.10306637,-8.251025 0.49638952,-7.892611 0,0 0,3e-6 0,3e-6"
         style="fill:#004fa7;fill-opacity:1;stroke-width:3.54330707;stroke-linecap:round;stroke-linejoin:round;stroke-miterlimit:4"
         inkscape:connector-curvature="0" />
      <path
         id="path5925"
         d="m -0.03909361,22.74284 c 1.35559331,0.112578 2.20774501,-0.408294 3.28668731,-0.700918 0.1517682,-0.04113 0.3055223,-0.08129 0.4627349,-0.118786 1.1103568,-0.268394 2.1022804,-0.584015 3.0908122,-0.550223 0.3595979,0.01092 0.7244824,0.0264 1.0955366,0.05783 0.758409,0.0642 1.5994322,0.02542 2.4506546,-0.07115 0.620836,-0.07481 1.222751,-0.117331 1.822206,-0.144575 0.441747,-0.02246 0.859559,-0.01167 1.28202,0.01882 0.8677,0.06965 1.531415,0.09981 2.45449,0.103392 0.07142,0.0011 0.141822,0.0016 0.2115,0.0014 1.089066,0.02476 1.799007,-0.01173 3.003069,-0.05274 0.31718,-0.0031 0.650821,0.0071 0.98424,0.02902 1.147693,0.0574 2.709788,0.223995 3.806558,0.330369 0.273634,0.0248 0.583388,0.04228 0.904389,0.0469 1.076719,-0.01819 2.386574,0.608564 3.539998,0.562766 0.425832,-0.01672 0.794711,0.0068 1.086413,0.05518 1.125302,0.05559 2.012673,1.210119 3.004646,1.671226 3.277145,0.809388 -0.342383,7.453745 -0.448153,7.872485 -0.02359,0.0934 -0.16827,0.146159 -0.409968,0.146159 -2.196147,0 -21.575559,0 -27.7055011,0 -2.3454144,0 -4.14798633,-0.715173 -4.31944413,-1.541162 -0.24330147,-1.172093 -4.33880937,-8.067547 0.39711162,-7.715999 0,0 0,3e-6 0,3e-6"
         style="fill:#003f9f;fill-opacity:1;stroke-width:3.54330707;stroke-linecap:round;stroke-linejoin:round;stroke-miterlimit:4"
         inkscape:connector-curvature="0" />
      <path
         id="path5927"
         d="m -0.04235141,23.304744 c 1.34405811,0.104522 2.19350351,-0.372126 3.25881811,-0.648821 0.1499238,-0.03891 0.3022464,-0.07653 0.4585282,-0.111196 1.0991424,-0.246733 2.0815924,-0.541208 3.0578144,-0.529368 0.3565595,0.0032 0.7165797,0.01586 1.0819472,0.04941 0.7466505,0.06853 1.5771951,0.04061 2.4211645,-0.0428 0.608849,-0.06376 1.206312,-0.109189 1.799267,-0.146661 0.440011,-0.02976 0.853233,-0.02751 1.267146,-0.0054 0.840982,0.05084 1.518239,0.09175 2.42473,0.117768 0.07093,0.0027 0.140511,0.0048 0.209027,0.0063 1.097818,0.04625 1.755428,0.0039 2.965098,-0.05863 0.309988,-0.0098 0.639921,-0.0071 0.973793,0.0066 1.164407,0.03328 2.69351,0.178374 3.761387,0.29751 0.263426,0.02794 0.569211,0.05089 0.893037,0.06384 1.060979,0.01526 2.386208,0.5107 3.522712,0.472844 0.420278,-0.01384 0.787973,-0.0015 1.079659,0.0242 1.160376,-0.0043 2.107247,1.102862 3.190337,1.433238 3.566249,0.556527 -0.256787,7.342695 -0.336114,7.656751 -0.01769,0.07005 -0.169692,0.109619 -0.431532,0.109619 -2.379159,0 -20.706855,0 -27.3476259,0 -2.5408655,0 -4.41843388,-0.53638 -4.54702722,-1.155872 -0.18247611,-0.879069 -4.57455238,-7.884067 0.29783371,-7.539385 0,0 0,3e-6 0,3e-6"
         style="fill:#002f97;fill-opacity:1;stroke-width:3.54330707;stroke-linecap:round;stroke-linejoin:round;stroke-miterlimit:4"
         inkscape:connector-curvature="0" />
      <path
         id="path5929"
         d="m -0.04560921,23.866647 c 1.33252281,0.09647 2.17926191,-0.335957 3.23094881,-0.596723 0.1480794,-0.03669 0.2989705,-0.07176 0.4543215,-0.103606 1.087928,-0.225072 2.0609046,-0.498401 3.0248167,-0.508513 0.353521,-0.0045 0.7086771,0.0053 1.0683577,0.041 0.7348921,0.07286 1.5549582,0.05579 2.3916745,-0.01444 0.596863,-0.0527 1.189873,-0.101045 1.776329,-0.148746 0.438274,-0.03707 0.846907,-0.04336 1.252272,-0.02954 0.814264,0.03203 1.505061,0.0837 2.394969,0.132142 0.07044,0.0043 0.1392,0.008 0.206554,0.01118 1.106569,0.06773 1.711849,0.01962 2.927128,-0.06451 0.302796,-0.01652 0.629021,-0.02137 0.963345,-0.0158 1.181122,0.0092 2.677232,0.132753 3.716215,0.26465 0.253219,0.03108 0.555035,0.05952 0.881685,0.08078 1.045239,0.04871 2.385842,0.412837 3.505428,0.382923 0.414722,-0.01097 0.781234,-0.0098 1.072904,-0.0068 1.19545,-0.06411 2.201821,0.995606 3.376029,1.195251 3.855351,0.303667 -0.171192,7.231646 -0.224077,7.441016 -0.0118,0.0467 -0.171113,0.07308 -0.453094,0.07308 -2.562172,0 -19.838152,0 -26.9897517,0 -2.7363167,0 -4.68888142,-0.357586 -4.77461032,-0.770581 -0.12165073,-0.586046 -4.81029538,-7.700588 0.19855581,-7.362772 0,0 0,3e-6 0,3e-6"
         style="fill:#001f8f;fill-opacity:1;stroke-width:3.54330707;stroke-linecap:round;stroke-linejoin:round;stroke-miterlimit:4"
         inkscape:connector-curvature="0" />
      <path
         id="path5931"
         d="m -0.04886701,24.428551 c 1.32098761,0.08841 2.16502031,-0.299789 3.20307951,-0.544627 0.1462351,-0.03448 0.2956947,-0.067 0.4501149,-0.09601 1.0767136,-0.203412 2.0402166,-0.455595 2.991819,-0.487659 0.3504825,-0.01226 0.7007743,-0.0052 1.0547682,0.03259 0.7231336,0.07719 1.5327211,0.07098 2.3621844,0.01391 0.584876,-0.04165 1.173434,-0.0929 1.75339,-0.150832 0.436539,-0.04438 0.840582,-0.0592 1.237399,-0.05372 0.787545,0.01322 1.491884,0.07565 2.365208,0.146518 0.06995,0.0059 0.13789,0.01129 0.204081,0.01606 1.11532,0.08921 1.668269,0.0353 2.889158,-0.07039 0.295604,-0.02322 0.61812,-0.0356 0.952897,-0.0382 1.197836,-0.01496 2.660954,0.08713 3.671044,0.231792 0.243011,0.03421 0.540858,0.06814 0.870332,0.09771 1.0295,0.08216 2.385476,0.314974 3.488144,0.293002 0.409166,-0.0081 0.774495,-0.0181 1.066149,-0.03777 1.230523,-0.123963 2.296394,0.88835 3.56172,0.957263 4.144454,0.05081 -0.08559,7.120596 -0.112038,7.225282 -0.0059,0.02335 -0.172536,0.03654 -0.474658,0.03654 -2.745184,0 -18.969448,0 -26.6318764,0 -2.9317679,0 -4.95932907,-0.178793 -5.00219351,-0.38529 -0.0608254,-0.293023 -5.04603839,-7.517109 0.0992779,-7.18616 0,0 0,4e-6 0,4e-6"
         style="fill:#000f87;fill-opacity:1;stroke-width:3.54330707;stroke-linecap:round;stroke-linejoin:round;stroke-miterlimit:4"
         inkscape:connector-curvature="0" />
      <path
         id="path5933"
         d="m -0.05212481,24.990454 c 1.30945241,0.08035 2.15077881,-0.263621 3.17521031,-0.492529 0.1443906,-0.03226 0.2924188,-0.06224 0.4459081,-0.08842 1.0654993,-0.181751 2.0195287,-0.412788 2.9588213,-0.466805 0.347444,-0.01998 0.6928716,-0.01574 1.0411787,0.02417 0.7113752,0.08152 1.5104842,0.08617 2.332694,0.04226 0.5728904,-0.03059 1.1569954,-0.08476 1.7304524,-0.152917 0.434802,-0.05168 0.834256,-0.07505 1.222525,-0.0779 0.760827,-0.0056 1.478706,0.0676 2.335447,0.160893 0.06946,0.0076 0.136579,0.01454 0.201608,0.02094 1.124072,0.110695 1.62469,0.05098 2.851188,-0.07627 0.288411,-0.02992 0.607219,-0.04982 0.94245,-0.06061 1.214549,-0.03908 2.644675,0.04151 3.625872,0.198933 0.232803,0.03735 0.526681,0.07676 0.85898,0.114651 1.013759,0.115603 2.385109,0.21711 3.470859,0.203081 0.403611,-0.0052 0.767755,-0.0264 1.059394,-0.06875 1.265597,-0.183813 2.390968,0.781094 3.747412,0.719276 4.433556,-0.202054 0,7.009547 0,7.009547 0,0 -0.173958,0 -0.496221,0 -2.928196,0 -18.100745,0 -26.2740022,0 -3.1272191,0 -5.22977661,0 -5.22977661,0 0,0 -5.28178139,-7.33363 0,-7.009547 0,0 0,4e-6 0,4e-6"
         style="fill:#000080;fill-opacity:1;stroke-width:3.54330707;stroke-linecap:round;stroke-linejoin:round;stroke-miterlimit:4"
         inkscape:connector-curvature="0" />
    </g>
    <path
       sodipodi:nodetypes="sssssssssss"
       inkscape:connector-curvature="0"
       id="path5354"
       d="m 66.206012,30.678586 c 0,3.330976 -14.135242,1.256515 -31.726945,1.256515 -17.591705,0 -31.9782483,2.074461 -31.9782483,-1.256515 0,-0.832743 0.8913057,-1.626068 2.5031347,-2.347638 1.611829,-0.721569 3.9441814,-1.371384 6.8262746,-1.917105 2.882093,-0.545721 6.313927,-0.987351 10.124719,-1.29255 3.810793,-0.305197 8.000542,-0.473966 12.398469,-0.473966 4.397925,0 8.587676,0.168777 12.398467,0.473966 3.810792,0.305199 7.242627,0.746829 10.12472,1.29255 2.882093,0.545721 5.214445,1.195536 6.826274,1.917105 1.611829,0.72157 2.503135,1.514895 2.503135,2.347638 z"
       style="fill:#000000;stroke-width:3.54330707;stroke-linecap:round;stroke-linejoin:round;stroke-miterlimit:4" />
    <path
       style="fill:#afdde9;stroke-width:3.54330707;stroke-linecap:round;stroke-linejoin:round;stroke-miterlimit:4"
       d="m 25.962427,-22.616508 c 0,0.971534 -2.576167,1.097186 -4.178379,1.985164 -2.161237,1.1978 -7.005217,1.438834 -10.617056,1.156118 -3.6321423,-0.284304 -1.2302713,-2.33558 -5.5910059,-0.999054 -2.3624927,0.724083 -3.3616473,-1.045042 -3.3616473,-2.016576 0,-0.971534 2.2306272,-1.065772 4.6181599,-1.702448 2.387533,-0.636675 3.8212373,0.335606 6.9103443,-1.595898 1.507181,-0.942385 7.255726,-1.114023 9.643258,-0.477348 2.387532,0.636676 2.576326,2.678509 2.576326,3.650042 z"
       id="path5959"
       inkscape:connector-curvature="0"
       sodipodi:nodetypes="sssssssss" />
    <path
       style="fill:#afdde9;stroke-width:3.54330707;stroke-linecap:round;stroke-linejoin:round;stroke-miterlimit:4"
       d="m 61.396085,-11.967563 c 0,0.442396 -0.304596,1.617757 -0.969038,2.0010898 -0.664442,0.383334 -1.814381,0.7285485 -2.939639,0.5158582 -1.201664,-0.2271344 -2.163002,0.2732267 -3.73392,0.4353635 -1.570918,0.1621309 -3.675008,-1.4444985 -5.48796,-1.4444985 -1.812951,0 -3.35161,-0.466612 -4.985353,0.187979 -1.465969,0.5873716 -2.734316,0.8597586 -3.922398,0.5698452 -1.188082,-0.2899154 -1.64694,0.055954 -2.311384,-0.3273812 -0.664442,-0.383334 -0.78056,-1.433044 -0.78056,-1.875439 0,-0.442394 0.52051,-1.89499 1.283166,-1.812613 1.104223,0.11927 1.625905,0.716441 2.813987,0.426526 1.188082,-0.289915 1.857692,-2.049711 3.419793,-1.817528 1.445267,0.214817 3.313777,-2.852906 5.048179,-2.32504 2.064255,0.628256 2.911833,1.78595 4.482751,1.948086 1.570918,0.162137 2.985619,0.396752 4.173699,0.686667 1.188083,0.289915 2.652151,0.258175 3.316593,0.641509 0.664442,0.383334 0.592084,1.747173 0.592084,2.189568 z"
       id="path5961"
       inkscape:connector-curvature="0"
       sodipodi:nodetypes="sssssssssssssssss" />
    <path
       style="fill:#ffffff;stroke-width:3.54330707;stroke-linecap:round;stroke-linejoin:round;stroke-miterlimit:4"
       d="m 20.936377,-23.459507 c 0,0.56053 -1.751523,0.633025 -2.840855,1.145347 -1.469414,0.691076 -4.762807,0.830141 -7.218475,0.667027 -2.4694723,-0.16403 -0.836455,-1.347521 -3.8012923,-0.576408 -1.6062451,0.417762 -2.2855646,-0.602941 -2.2855646,-1.163471 0,-0.56053 1.5165905,-0.614901 3.1398606,-0.982233 1.623269,-0.367333 2.5980363,0.193629 4.6983023,-0.920759 1.024723,-0.543713 4.933125,-0.64274 6.556396,-0.275408 1.623268,0.367332 1.751628,1.545375 1.751628,2.105905 z"
       id="path5959-6"
       inkscape:connector-curvature="0"
       sodipodi:nodetypes="sssssssss" />
    <path
       style="fill:#ffffff;stroke-width:3.54330707;stroke-linecap:round;stroke-linejoin:round;stroke-miterlimit:4"
       d="m 57.186354,-13.094661 c 0,0.304913 -0.206373,1.11501 -0.656552,1.379217 -0.45018,0.264205 -1.229298,0.502138 -1.991693,0.355543 -0.814162,-0.156539 -1.465497,0.188317 -2.529842,0.300068 -1.064343,0.111748 -2.489928,-0.995595 -3.718254,-0.995595 -1.228329,0 -2.270817,-0.321603 -3.377727,0.129558 -0.993236,0.404835 -1.852579,0.592575 -2.657541,0.392757 -0.804961,-0.19982 -1.115851,0.03856 -1.566031,-0.225642 -0.45018,-0.264207 -0.528851,-0.987701 -0.528851,-1.292613 0,-0.304913 0.35266,-1.306088 0.869382,-1.249311 0.748144,0.0822 1.101598,0.493794 1.906561,0.293975 0.804958,-0.199818 1.25864,-1.412726 2.317011,-1.252698 0.97921,0.148059 2.245182,-1.966314 3.42029,-1.602493 1.398596,0.433015 1.972853,1.230935 3.037198,1.342684 1.064343,0.111751 2.022845,0.273454 2.827804,0.473273 0.804962,0.199818 1.796911,0.177942 2.247091,0.442149 0.450177,0.264206 0.401154,1.204207 0.401154,1.50912 z"
       id="path5961-4"
       inkscape:connector-curvature="0"
       sodipodi:nodetypes="sssssssssssssssss" />
    <g
       id="g6304"
       transform="matrix(1.9898239,0,0,1.9898239,-0.80129146,-32.103765)">
      <path
         style="fill:#afdde9;fill-opacity:1;stroke-width:3.54330707;stroke-linecap:round;stroke-linejoin:round;stroke-miterlimit:4"
         d="m 13.450295,4.767888 c 0,0.4853904 -1.279544,0.5506436 -2.08567,0.9898526 -0.0048,0.00259 -0.0095,0.00519 -0.0142,0.00781 -1.086145,0.601963 -3.5205209,0.7230962 -5.3356762,0.5810156 -0.031195,-0.00244 -0.061504,-0.00514 -0.09096,-0.00809 C 4.2296511,6.168944 5.3590106,5.1842778 3.2049457,5.8444794 3.1719011,5.8546073 3.1393872,5.8637646 3.1074001,5.8719869 1.9900966,6.1591927 1.5155262,5.3056972 1.5155262,4.831035 c 0,-0.00858 3.464e-4,-0.017029 0.00103,-0.025343 0.038402,-0.4646576 1.1410754,-0.515893 2.3198553,-0.8302343 0.00879,-0.00234 0.017551,-0.00464 0.026288,-0.0069 1.1841827,-0.3059851 1.9054725,0.1684529 3.4465541,-0.7951285 0.019972,-0.012488 0.041425,-0.024706 0.064291,-0.036654 0.8443274,-0.441214 3.6137624,-0.5147692 4.7819964,-0.2032401 0.05742,0.015311 0.112301,0.032239 0.164767,0.050647 1.043967,0.3662914 1.129984,1.3188196 1.129984,1.7837072 0,0 0,0 0,0"
         id="path6306"
         inkscape:connector-curvature="0" />
      <path
         style="fill:#b4dfea;fill-opacity:1;stroke-width:3.54330707;stroke-linecap:round;stroke-linejoin:round;stroke-miterlimit:4"
         d="m 13.292428,4.7414095 c 0,0.4726596 -1.254587,0.5361116 -2.044547,0.963962 -0.0046,0.00251 -0.0093,0.00504 -0.01386,0.00757 -1.063932,0.585481 -3.4465428,0.7035601 -5.2246503,0.565639 -0.030497,-0.00237 -0.060156,-0.00498 -0.089009,-0.00782 C 4.2557208,6.1067517 5.3630907,5.147494 3.2561836,5.7884775 3.2238599,5.7983112 3.1920017,5.8072487 3.1606042,5.8153238 2.0636657,6.0974448 1.5972778,5.266724 1.5964577,4.8039346 c -1.63e-5,-0.0084 3.002e-4,-0.016668 9.444e-4,-0.024807 0.036002,-0.4531023 1.116745,-0.5029395 2.2724416,-0.8089611 0.00859,-0.00228 0.01715,-0.00451 0.02569,-0.00671 1.1604359,-0.2982355 1.8671132,0.1635133 3.375936,-0.7728984 0.019643,-0.012182 0.040683,-0.024122 0.063054,-0.035819 C 8.156868,2.7247705 10.866876,2.6522566 12.01654,2.9541349 c 0.0563,0.0148 0.110107,0.031144 0.16151,0.048903 1.029705,0.3549361 1.114378,1.2849334 1.114378,1.7383716 0,0 0,0 0,0"
         id="path6308"
         inkscape:connector-curvature="0" />
      <path
         style="fill:#b9e1eb;fill-opacity:1;stroke-width:3.54330707;stroke-linecap:round;stroke-linejoin:round;stroke-miterlimit:4"
         d="m 13.13456,4.7149311 c 0,0.4599288 -1.22963,0.5215796 -2.003422,0.9380713 -0.0045,0.00243 -0.009,0.00488 -0.01352,0.00734 C 10.075901,6.2293415 7.7450544,6.3443666 6.0039945,6.210605 5.9741965,6.208315 5.9451865,6.205795 5.9169365,6.203045 4.2817904,6.0445594 5.3671708,5.1107101 3.3074216,5.7324755 3.2758188,5.742015 3.2446161,5.7507328 3.2138082,5.7586606 2.1372347,6.0356968 1.6790294,5.2277508 1.6773892,4.7768342 c -3.27e-5,-0.00822 2.541e-4,-0.016308 8.553e-4,-0.02427 0.033602,-0.441547 1.0924146,-0.4899861 2.225028,-0.7876881 0.00839,-0.00221 0.01675,-0.00438 0.025092,-0.00651 1.1366891,-0.2904859 1.8287538,0.1585738 3.3053179,-0.7506682 0.019315,-0.011876 0.039941,-0.023537 0.061817,-0.034984 0.8003618,-0.4187337 3.4509416,-0.4902063 4.5820366,-0.1979786 0.05519,0.014289 0.107913,0.030049 0.158252,0.047159 1.015444,0.3435807 1.098772,1.251047 1.098772,1.693036 0,0 0,0 0,0"
         id="path6310"
         inkscape:connector-curvature="0" />
      <path
         style="fill:#bee3ed;fill-opacity:1;stroke-width:3.54330707;stroke-linecap:round;stroke-linejoin:round;stroke-miterlimit:4"
         d="m 12.976693,4.6884527 c 0,0.447198 -1.204674,0.5070475 -1.962299,0.9121806 -0.0044,0.00236 -0.0088,0.00473 -0.01317,0.0071 -1.019504,0.5525171 -3.2985855,0.6644881 -5.0025976,0.534886 -0.0291,-0.00222 -0.05746,-0.00465 -0.085107,-0.00729 C 4.3078601,5.9823671 5.3712509,5.0739262 3.3586595,5.6764736 3.3277777,5.6857189 3.2972306,5.6942169 3.2670122,5.7019974 2.2108038,5.9739488 1.760781,5.1887775 1.7583207,4.7497339 c -4.9e-5,-0.00804 2.08e-4,-0.015948 7.662e-4,-0.023734 0.031201,-0.4299917 1.0680842,-0.4770326 2.1776143,-0.7664149 0.00819,-0.00214 0.01635,-0.00424 0.024494,-0.00631 1.1129423,-0.2827363 1.7903945,0.1536341 3.2346998,-0.7284381 0.018987,-0.01157 0.039199,-0.022953 0.06058,-0.034148 0.7783789,-0.4074936 3.369532,-0.4779248 4.482056,-0.1953479 0.05407,0.013778 0.10572,0.028954 0.154995,0.045415 1.001183,0.3322253 1.083167,1.2171608 1.083167,1.6477005 0,0 0,0 0,0"
         id="path6312"
         inkscape:connector-curvature="0" />
      <path
         style="fill:#c3e5ee;fill-opacity:1;stroke-width:3.54330707;stroke-linecap:round;stroke-linejoin:round;stroke-miterlimit:4"
         d="m 12.818826,4.6619742 c 0,0.4344673 -1.179718,0.4925155 -1.921176,0.88629 -0.0043,0.00228 -0.0086,0.00457 -0.01283,0.00687 C 9.8875333,6.0911675 7.6602166,6.2000844 5.9932523,6.0746418 5.9648511,6.0725012 5.9371399,6.0701562 5.9100961,6.0676166 4.3339298,5.9201748 5.375331,5.0371424 3.4098975,5.6204716 3.3797365,5.6294228 3.349845,5.637701 3.3202163,5.6453342 2.2843728,5.9122008 1.8425326,5.1498043 1.8392522,4.7226335 1.8391868,4.7147788 1.839414,4.7070465 1.8399294,4.6994355 1.8687306,4.2809992 2.883683,4.2353564 3.97013,3.9542937 c 0.00798,-0.00207 0.015949,-0.00411 0.023896,-0.00612 1.0891955,-0.2749867 1.7520351,0.1486946 3.1640817,-0.7062079 0.018659,-0.011265 0.038457,-0.022369 0.059343,-0.033313 0.7563961,-0.3962535 3.2881223,-0.4656434 4.3820763,-0.1927172 0.05296,0.013268 0.103525,0.027858 0.151738,0.04367 0.986921,0.3208699 1.067561,1.1832745 1.067561,1.6023648 0,0 0,0 0,0"
         id="path6314"
         inkscape:connector-curvature="0" />
      <path
         style="fill:#c8e7ef;fill-opacity:1;stroke-width:3.54330707;stroke-linecap:round;stroke-linejoin:round;stroke-miterlimit:4"
         d="m 12.660958,4.6354957 c 0,0.4217366 -1.154761,0.4779835 -1.880051,0.8603994 -0.0042,0.0022 -0.0083,0.00441 -0.01248,0.00663 -0.9750794,0.5195571 -3.1506313,0.62542 -4.7805479,0.5041368 -0.027703,-0.00207 -0.054764,-0.00432 -0.081205,-0.00676 C 4.3599994,5.8579825 5.3794111,5.0003585 3.4611354,5.5644697 c -0.02944,0.00866 -0.058676,0.016715 -0.087715,0.024201 -1.0154784,0.2617817 -1.4491361,-0.47784 -1.4532367,-0.893138 -8.16e-5,-0.00767 1.158e-4,-0.015226 5.882e-4,-0.022662 0.026401,-0.4068811 1.0194232,-0.4511257 2.0827869,-0.7238687 0.00778,-0.002 0.015549,-0.00397 0.023299,-0.00592 1.0654486,-0.267237 1.7136757,0.143755 3.0934635,-0.6839776 0.018331,-0.010959 0.037716,-0.021785 0.058106,-0.032477 0.7344133,-0.3850133 3.2067107,-0.4533619 4.2820957,-0.1900864 0.05184,0.012757 0.101331,0.026763 0.14848,0.041926 0.97266,0.3095146 1.051955,1.1493883 1.051955,1.5570292 0,0 0,0 0,0"
         id="path6316"
         inkscape:connector-curvature="0" />
      <path
         style="fill:#cde9f1;fill-opacity:1;stroke-width:3.54330707;stroke-linecap:round;stroke-linejoin:round;stroke-miterlimit:4"
         d="m 12.503091,4.6090173 c 0,0.4090058 -1.129805,0.4634515 -1.838928,0.8345087 -0.0041,0.00213 -0.0081,0.00426 -0.01214,0.0064 C 9.69916,5.9529972 7.5753729,6.055806 5.982504,5.9386824 5.9555,5.9366924 5.929088,5.9345224 5.90325,5.9321924 4.3860691,5.7957902 5.3834913,4.9635746 3.5123734,5.5084678 c -0.028719,0.00836 -0.0573,0.016201 -0.085749,0.02354 -0.9951135,0.2566969 -1.4205886,-0.46015 -1.4255093,-0.8635752 -9.8e-5,-0.00749 6.97e-5,-0.014866 4.991e-4,-0.022126 0.024001,-0.3953257 0.9950928,-0.4381722 2.0353733,-0.7025956 0.00758,-0.00193 0.015149,-0.00384 0.022701,-0.00572 1.0417018,-0.2594875 1.6753163,0.1388154 3.0228453,-0.6617475 0.018003,-0.010653 0.036974,-0.0212 0.056869,-0.031642 0.7124305,-0.3737732 3.1253012,-0.4410805 4.1821162,-0.1874557 0.05073,0.012246 0.09914,0.025668 0.145222,0.040182 0.958399,0.2981592 1.03635,1.1155019 1.03635,1.5116936 0,0 0,0 0,0"
         id="path6318"
         inkscape:connector-curvature="0" />
      <path
         style="fill:#d2ebf2;fill-opacity:1;stroke-width:3.54330707;stroke-linecap:round;stroke-linejoin:round;stroke-miterlimit:4"
         d="m 12.345224,4.5825388 c 0,0.3962751 -1.104848,0.4489195 -1.797805,0.8086181 -0.0039,0.00205 -0.0079,0.0041 -0.01179,0.00617 C 9.6049763,5.8839116 7.532954,5.9836663 5.9771329,5.8707022 5.9508272,5.8687875 5.9250647,5.8667096 5.8998298,5.864476 4.4121388,5.7335978 5.3875714,4.9267908 3.5636113,5.4524658 c -0.027998,0.00807 -0.055923,0.015688 -0.083783,0.022879 -0.9747484,0.2516121 -1.392041,-0.44246 -1.3977818,-0.8340124 -1.143e-4,-0.00731 2.35e-5,-0.014506 4.1e-4,-0.021589 0.021601,-0.3837705 0.9707624,-0.4252188 1.9879596,-0.6813225 0.00738,-0.00186 0.014748,-0.00371 0.022103,-0.00553 1.017955,-0.2517378 1.636957,0.1338759 2.9522272,-0.6395173 0.017675,-0.010348 0.036232,-0.020616 0.055632,-0.030807 0.6904476,-0.3625331 3.0438897,-0.428799 4.0821367,-0.184825 0.04961,0.011735 0.09694,0.024573 0.141965,0.038438 0.944137,0.2868038 1.020744,1.0816157 1.020744,1.466358 0,0 0,0 0,0"
         id="path6320"
         inkscape:connector-curvature="0" />
      <path
         style="fill:#d7eef4;fill-opacity:1;stroke-width:3.54330707;stroke-linecap:round;stroke-linejoin:round;stroke-miterlimit:4"
         d="m 12.187357,4.5560604 c 0,0.3835443 -1.079892,0.4343874 -1.756681,0.7827274 -0.0038,0.00197 -0.0076,0.00395 -0.01145,0.00593 C 9.5107906,5.8148263 7.4905331,5.911527 5.9717597,5.8027223 5.9461525,5.800883 5.9210396,5.7988941 5.8964077,5.7967625 4.4382084,5.6714055 5.3916515,4.8900069 3.6148493,5.3964639 3.5875719,5.4042383 3.5603029,5.4116374 3.5330325,5.4186815 2.578649,5.6652088 2.1695391,4.9939115 2.1629781,4.614232 2.1628474,4.607102 2.1629555,4.600087 2.163299,4.593179 2.1825,4.2209639 3.109731,4.1809137 4.103845,3.9331297 c 0.00718,-0.0018 0.014348,-0.00357 0.021505,-0.00533 0.9942082,-0.2439883 1.5985977,0.1289362 2.8816091,-0.6172872 0.017347,-0.010042 0.03549,-0.020032 0.054396,-0.029971 0.6684648,-0.351293 2.9624799,-0.4165176 3.9821549,-0.1821942 0.0485,0.011224 0.09475,0.023478 0.138708,0.036694 0.929876,0.2754484 1.005139,1.0477294 1.005139,1.4210224 0,0 0,0 0,0"
         id="path6322"
         inkscape:connector-curvature="0" />
      <path
         style="fill:#dcf0f5;fill-opacity:1;stroke-width:3.54330707;stroke-linecap:round;stroke-linejoin:round;stroke-miterlimit:4"
         d="m 12.029489,4.5295819 c 0,0.3708136 -1.054935,0.4198554 -1.715557,0.7568368 -0.0037,0.0019 -0.0074,0.00379 -0.01111,0.0057 C 9.4166049,5.745741 7.4481123,5.8393876 5.9663866,5.7347424 5.9414779,5.7329784 5.9170145,5.7310786 5.8929856,5.7290489 4.4642781,5.6092132 5.3957316,4.853223 3.6660872,5.340462 3.6395312,5.347942 3.6129172,5.355122 3.5862362,5.362018 2.6522178,5.6034605 2.2512904,4.954938 2.2439093,4.5871313 c -1.47e-4,-0.00694 -6.87e-5,-0.013785 2.319e-4,-0.020517 0.016801,-0.3606598 0.9221015,-0.3993118 1.8931322,-0.6387762 0.00698,-0.00173 0.013948,-0.00344 0.020907,-0.00514 0.9704614,-0.2362386 1.5602383,0.1239967 2.810991,-0.595057 0.017019,-0.00974 0.034748,-0.019448 0.053159,-0.029136 0.6464819,-0.3400529 2.8810698,-0.4042361 3.8821756,-0.1795635 0.04738,0.010714 0.09256,0.022383 0.13545,0.03495 0.915615,0.2640931 0.989533,1.0138432 0.989533,1.3756868 0,0 0,0 0,0"
         id="path6324"
         inkscape:connector-curvature="0" />
      <path
         style="fill:#e1f2f6;fill-opacity:1;stroke-width:3.54330707;stroke-linecap:round;stroke-linejoin:round;stroke-miterlimit:4"
         d="m 11.871622,4.5031035 c 0,0.3580828 -1.029979,0.4053234 -1.674434,0.7309461 -0.0036,0.00182 -0.0072,0.00364 -0.01076,0.00546 -0.8640077,0.4371434 -2.7807356,0.5277359 -4.2254136,0.4272503 -0.02421,-0.00169 -0.048024,-0.0035 -0.07145,-0.00543 C 4.4903478,5.5470209 5.3998117,4.8164392 3.7173252,5.28446 3.6914897,5.2916461 3.6655318,5.2986056 3.6394405,5.3053552 2.7257871,5.5417129 2.3330423,4.9159651 2.3248411,4.5600312 2.3246777,4.5532682 2.3247262,4.546607 2.3249839,4.5400506 2.3393845,4.1909461 3.222755,4.1536922 4.1707025,3.9225475 c 0.00678,-0.00166 0.013547,-0.00331 0.020309,-0.00494 0.9467146,-0.2284891 1.521879,0.119057 2.7403729,-0.5728269 0.016691,-0.00943 0.034006,-0.018863 0.051922,-0.028301 0.6244991,-0.3288127 2.7996595,-0.3919546 3.7821956,-0.1769328 0.04627,0.010203 0.09036,0.021288 0.132193,0.033205 0.901353,0.2527377 0.973927,0.9799568 0.973927,1.3303512 0,0 0,0 0,0"
         id="path6326"
         inkscape:connector-curvature="0" />
      <path
         style="fill:#e6f4f8;fill-opacity:1;stroke-width:3.54330707;stroke-linecap:round;stroke-linejoin:round;stroke-miterlimit:4"
         d="m 11.713755,4.476625 c 0,0.3453521 -1.005023,0.3907914 -1.63331,0.7050555 -0.0035,0.00174 -0.0069,0.00348 -0.01042,0.00523 C 9.2282336,5.6075704 7.3632705,5.6951089 5.9556403,5.5987827 5.9321286,5.5971692 5.9089644,5.5954475 5.8861414,5.5936218 4.5164174,5.4848286 5.4038918,4.7796553 3.7685631,5.2284581 3.7434485,5.23535 3.7181462,5.2420897 3.6926446,5.248692 2.7993562,5.4799649 2.4147939,4.8769918 2.4057726,4.5329308 c -1.797e-4,-0.00658 -1.61e-4,-0.013064 5.37e-5,-0.019444 0.012,-0.3375492 0.8734406,-0.3734049 1.7983049,-0.59623 0.00658,-0.00159 0.013147,-0.00317 0.019711,-0.00474 C 5.14681,3.6917774 5.7073618,4.0266343 6.893597,3.3619201 c 0.016362,-0.00912 0.033264,-0.018279 0.050685,-0.027465 0.6025162,-0.3175726 2.7182492,-0.3796732 3.682215,-0.174302 0.04515,0.00969 0.08817,0.020193 0.128936,0.031461 0.887092,0.2413823 0.958322,0.9460706 0.958322,1.2850156 0,0 0,0 0,0"
         id="path6328"
         inkscape:connector-curvature="0" />
      <path
         style="fill:#ebf6f9;fill-opacity:1;stroke-width:3.54330707;stroke-linecap:round;stroke-linejoin:round;stroke-miterlimit:4"
         d="m 11.555887,4.4501466 c 0,0.3326213 -0.980066,0.3762593 -1.5921859,0.6791648 -0.00335,0.00166 -0.00671,0.00333 -0.010073,0.00499 C 9.1340479,5.5384851 7.3208497,5.6229695 5.9502672,5.5308028 5.9274539,5.5292647 5.9049393,5.527632 5.8827194,5.5259083 4.5424871,5.4226363 5.4079719,4.7428715 3.819801,5.1724561 3.795407,5.1790561 3.770761,5.1855741 3.745849,5.1920291 2.8729252,5.4182169 2.4965455,4.8380186 2.4867041,4.5058304 c -1.961e-4,-0.0064 -2.072e-4,-0.012703 -3.54e-5,-0.018908 0.0096,-0.3259938 0.8491102,-0.3604513 1.7508913,-0.5749568 0.00638,-0.00152 0.012747,-0.00304 0.019114,-0.00455 0.899221,-0.2129898 1.4451603,0.109178 2.5991367,-0.5283665 0.016034,-0.00882 0.032522,-0.017695 0.049448,-0.02663 0.5805334,-0.3063325 2.6368389,-0.3673917 3.5822353,-0.1716713 0.04404,0.00918 0.08597,0.019098 0.125678,0.029717 0.87283,0.2300269 0.942715,0.9121843 0.942715,1.23968 0,0 0,0 0,0"
         id="path6330"
         inkscape:connector-curvature="0" />
      <path
         style="fill:#f0f8fa;fill-opacity:1;stroke-width:3.54330707;stroke-linecap:round;stroke-linejoin:round;stroke-miterlimit:4"
         d="m 11.39802,4.4236681 c 0,0.3198906 -0.955109,0.3617273 -1.5510625,0.6532742 -0.00323,0.00159 -0.00648,0.00317 -0.00973,0.00476 C 9.0398622,5.4693998 7.2784288,5.5508301 5.944894,5.462823 5.9227793,5.4613601 5.9009142,5.4598164 5.8792973,5.4581947 4.5685567,5.360444 5.412052,4.7060876 3.871039,5.1164542 3.847366,5.1227542 3.823375,5.1290582 3.799053,5.1353652 2.9464943,5.3564689 2.5782971,4.7990454 2.5676356,4.4787301 c -2.124e-4,-0.00622 -2.533e-4,-0.012343 -1.245e-4,-0.018372 0.0072,-0.3144386 0.8247798,-0.3474979 1.7034776,-0.5536837 0.00617,-0.00145 0.012346,-0.0029 0.018516,-0.00435 0.8754742,-0.2052402 1.4068009,0.1042383 2.5285186,-0.5061364 0.015706,-0.00851 0.03178,-0.017111 0.048211,-0.025794 0.5585506,-0.2950924 2.5554286,-0.3551103 3.4822547,-0.1690405 0.04292,0.00867 0.08378,0.018003 0.122421,0.027973 0.858569,0.2186716 0.92711,0.8782981 0.92711,1.1943444 0,0 0,0 0,0"
         id="path6332"
         inkscape:connector-curvature="0" />
      <path
         style="fill:#f5fafc;fill-opacity:1;stroke-width:3.54330707;stroke-linecap:round;stroke-linejoin:round;stroke-miterlimit:4"
         d="m 11.240153,4.3971897 c 0,0.3071598 -0.930153,0.3471953 -1.5099392,0.6273835 -0.00312,0.00151 -0.00625,0.00302 -0.00938,0.00453 C 8.9456809,5.4003187 7.2360122,5.478695 5.9395252,5.3948473 5.9181092,5.3934573 5.8968932,5.3920073 5.8758792,5.3904873 4.5946304,5.2982573 5.4161361,4.6693098 3.9222809,5.0604584 c -0.022952,0.00601 -0.046287,0.01209 -0.07002,0.01825 C 3.0200633,5.2947209 2.6600487,4.7600722 2.648567,4.4516297 c -2.287e-4,-0.00604 -2.993e-4,-0.011982 -2.134e-4,-0.017836 0.0048,-0.3028832 0.8004493,-0.3345444 1.6560639,-0.5324106 0.00597,-0.00138 0.011946,-0.00277 0.017918,-0.00416 C 5.1740629,3.6997325 5.6907771,3.9965221 6.780236,3.413317 6.795614,3.405107 6.811274,3.396791 6.82721,3.388358 7.3637778,3.1045057 9.3012283,3.0455292 10.209485,3.2219482 c 0.04181,0.00816 0.08158,0.016908 0.119163,0.026229 0.844308,0.2073162 0.911505,0.8444117 0.911505,1.1490088 0,0 0,0 0,0"
         id="path6334"
         inkscape:connector-curvature="0" />
      <path
         style="fill:#fafcfd;fill-opacity:1;stroke-width:3.54330707;stroke-linecap:round;stroke-linejoin:round;stroke-miterlimit:4"
         d="m 11.082285,4.3707112 c 0,0.2944291 -0.905196,0.3326633 -1.4688148,0.6014929 -0.003,0.00143 -0.00601,0.00286 -0.00904,0.00429 C 8.8514909,5.3312292 7.193587,5.4065514 5.9341478,5.3268632 5.91343,5.325551 5.892864,5.3241853 5.8724531,5.3227676 4.6206961,5.2360594 5.4202122,4.6325199 3.9735149,5.0044503 c -0.022231,0.00572 -0.044911,0.011576 -0.068054,0.017589 -0.8118284,0.2109336 -1.1636605,-0.3009403 -1.1759623,-0.59751 -2.45e-4,-0.00585 -3.455e-4,-0.011622 -3.025e-4,-0.0173 0.0024,-0.291328 0.7761189,-0.321591 1.6086502,-0.5111375 0.00577,-0.00132 0.011546,-0.00264 0.01732,-0.00396 0.8279806,-0.189741 1.3300822,0.094359 2.3872824,-0.461676 0.01505,-0.0079 0.030296,-0.015942 0.045737,-0.024124 0.5145849,-0.2726121 2.392608,-0.3305474 3.2822953,-0.1637791 0.04069,0.00765 0.07939,0.015813 0.115906,0.024484 0.830046,0.1959608 0.895898,0.8105255 0.895898,1.1036732 0,0 0,0 0,0"
         id="path6336"
         inkscape:connector-curvature="0" />
      <path
         style="fill:#ffffff;fill-opacity:1;stroke-width:3.54330707;stroke-linecap:round;stroke-linejoin:round;stroke-miterlimit:4"
         d="m 10.924418,4.3442328 c 0,0.2816983 -0.88024,0.3181312 -1.4276915,0.5756022 -0.00288,0.00136 -0.00578,0.00271 -0.0087,0.00406 C 8.7573052,5.2621439 7.1511662,5.334412 5.9287746,5.2588833 5.9087553,5.2576464 5.8888389,5.2563698 5.869031,5.2550541 4.6467657,5.1738671 5.4242923,4.595736 4.0247528,4.9484484 c -0.02151,0.00542 -0.043534,0.011062 -0.066088,0.016928 C 3.1672014,5.1712249 2.8235519,4.6821258 2.81043,4.3974289 c -2.614e-4,-0.00567 -3.916e-4,-0.011261 -3.916e-4,-0.016763 0,-0.2797726 0.7517885,-0.3086375 1.5612366,-0.4898644 0.00557,-0.00125 0.011146,-0.0025 0.016722,-0.00376 0.8042338,-0.1819914 1.2917229,0.08942 2.3166642,-0.4394458 0.014722,-0.0076 0.029554,-0.015358 0.044501,-0.023288 0.4926021,-0.261372 2.3111977,-0.3182659 3.1823149,-0.1611483 0.039576,0.00714 0.077196,0.014718 0.1126479,0.02274 0.815785,0.1846054 0.880293,0.7766392 0.880293,1.0583376 0,0 0,0 0,0"
         id="path6338"
         inkscape:connector-curvature="0" />
    </g>
    <g
       id="g6434"
       transform="matrix(1.9898239,0,0,1.9898239,-0.80129146,-32.103765)">
      <path
         id="path6436"
         d="m 31.257729,10.11959 c 0,0.222329 -0.153077,0.813015 -0.486997,1.005662 -0.0033,0.0019 -0.0065,0.0038 -0.0099,0.0056 -0.335354,0.190371 -0.907501,0.359455 -1.467484,0.25361 -0.0024,-4.46e-4 -0.0047,-8.86e-4 -0.0071,-0.0013 -0.600612,-0.110865 -1.083044,0.138951 -1.869436,0.220116 -7.71e-4,8e-5 -0.0015,1.58e-4 -0.0023,2.36e-4 -0.788071,0.07955 -1.842383,-0.72382 -2.751698,-0.726174 -0.0013,-3e-6 -0.0027,-5e-6 -0.004,-5e-6 -0.906662,0 -1.67682,-0.232215 -2.4934,0.08969 -0.004,0.0016 -0.008,0.0032 -0.01202,0.0048 -0.729538,0.292305 -1.361691,0.429389 -1.953725,0.290568 -0.0058,-0.0014 -0.01167,-0.0028 -0.0175,-0.0042 -0.586583,-0.143138 -0.819461,0.02211 -1.144086,-0.154705 -0.0058,-0.0032 -0.01165,-0.0064 -0.01752,-0.0098 -0.328703,-0.189637 -0.390385,-0.703782 -0.392232,-0.931872 -3e-5,-0.0036 -4.4e-5,-0.0072 -4.4e-5,-0.01064 0,-0.2223283 0.261586,-0.9523407 0.644864,-0.9109415 0,0 0,0 0,0 0.553851,0.059823 0.816085,0.3588812 1.410694,0.2152025 0.0012,-2.812e-4 0.0023,-5.64e-4 0.0035,-8.486e-4 0.596496,-0.1455564 0.932938,-1.0283701 1.716342,-0.9137505 7.66e-4,1.121e-4 0.0015,2.25e-4 0.0023,3.39e-4 0.725974,0.1079051 1.664445,-1.4322429 2.535721,-1.1688528 4.26e-4,1.287e-4 8.51e-4,2.578e-4 0.0013,3.873e-4 1.036393,0.3154264 1.462529,0.8964057 2.250526,0.9787845 7.7e-4,8.06e-5 0.0015,1.606e-4 0.0023,2.402e-4 0.785621,0.081085 1.493499,0.1982399 2.088768,0.3429569 0.0029,7.101e-4 0.0058,0.00142 0.0088,0.00213 0.590082,0.1439913 1.315631,0.1300994 1.654873,0.3157075 0.004,0.0022 0.008,0.00443 0.0119,0.00669 0.33392,0.1926473 0.297556,0.8780541 0.297556,1.1003825 0,0 0,0 0,0 0,0 0,4e-6 0,4e-6"
         style="fill:#afdde9;fill-opacity:1;stroke-width:3.54330707;stroke-linecap:round;stroke-linejoin:round;stroke-miterlimit:4"
         inkscape:connector-curvature="0" />
      <path
         id="path6438"
         d="m 31.125502,10.084188 c 0,0.217917 -0.149866,0.796728 -0.47677,0.985881 -0.0032,0.0018 -0.0064,0.0037 -0.0096,0.0055 -0.328479,0.186739 -0.889203,0.352703 -1.438044,0.24898 -0.0023,-4.36e-4 -0.0046,-8.66e-4 -0.0069,-0.0013 -0.588622,-0.108848 -1.061346,0.136161 -1.831961,0.215774 -7.56e-4,7.8e-5 -0.0015,1.55e-4 -0.0023,2.31e-4 -0.772248,0.07809 -1.805443,-0.709852 -2.696507,-0.712059 -0.0013,-3e-6 -0.0027,-5e-6 -0.004,-5e-6 -0.888479,-3.9e-5 -1.643187,-0.227775 -2.44343,0.08816 -0.0039,0.0015 -0.0078,0.0031 -0.01173,0.0047 -0.714947,0.286623 -1.334442,0.420949 -1.914634,0.284558 -0.0057,-0.0013 -0.01144,-0.0027 -0.01715,-0.0041 -0.574661,-0.140144 -0.802695,0.02204 -1.121033,-0.151943 -0.0057,-0.0031 -0.01141,-0.0063 -0.01716,-0.0097 -0.32165,-0.186428 -0.381863,-0.690537 -0.383594,-0.913781 -2.8e-5,-0.0035 -3.9e-5,-0.007 -3.3e-5,-0.01044 3.39e-4,-0.2185198 0.256559,-0.9333507 0.631859,-0.8927835 2.3e-5,2.5e-6 4.6e-5,5.1e-6 6.9e-5,7.6e-6 0.542687,0.058684 0.799636,0.3519474 1.382342,0.2109785 0.0011,-2.759e-4 0.0023,-5.534e-4 0.0034,-8.327e-4 0.584406,-0.1428469 0.91408,-1.0084235 1.6817,-0.895951 7.48e-4,1.096e-4 0.0015,2.2e-4 0.0022,3.312e-4 0.711345,0.1056685 1.630884,-1.4044915 2.484579,-1.1461469 4.2e-4,1.273e-4 8.41e-4,2.55e-4 0.0013,3.831e-4 1.015502,0.3093176 1.433041,0.8790255 2.205202,0.959764 7.55e-4,7.89e-5 0.0015,1.574e-4 0.0023,2.354e-4 0.769912,0.079527 1.46362,0.1944349 2.046943,0.3363773 0.0029,6.963e-4 0.0057,0.00139 0.0086,0.00209 0.578418,0.1411702 1.289543,0.1275064 1.621653,0.3097721 0.0039,0.00216 0.0078,0.00435 0.01165,0.00657 0.326663,0.1892944 0.291068,0.8608115 0.291068,1.0787099 0,0 0,0 0,0 0,0 0,4e-6 0,4e-6"
         style="fill:#b4dfea;fill-opacity:1;stroke-width:3.54330707;stroke-linecap:round;stroke-linejoin:round;stroke-miterlimit:4"
         inkscape:connector-curvature="0" />
      <path
         id="path6440"
         d="m 30.993275,10.048786 c 0,0.213505 -0.146654,0.780442 -0.466542,0.9661 -0.0031,0.0018 -0.0063,0.0036 -0.0094,0.0054 -0.321605,0.183106 -0.870905,0.34595 -1.408605,0.24435 -0.0023,-4.25e-4 -0.0045,-8.46e-4 -0.0067,-0.0013 -0.576632,-0.106832 -1.039646,0.13337 -1.794485,0.211431 -7.4e-4,7.6e-5 -0.0015,1.52e-4 -0.0022,2.27e-4 -0.756424,0.07663 -1.768501,-0.695886 -2.641315,-0.697945 -0.0013,-3e-6 -0.0026,-5e-6 -0.004,-5e-6 -0.870296,-7.9e-5 -1.609553,-0.223335 -2.393461,0.08662 -0.0038,0.0015 -0.0076,0.003 -0.01143,0.0046 -0.700354,0.280941 -1.307191,0.412508 -1.875541,0.278548 -0.0056,-0.0013 -0.0112,-0.0027 -0.01679,-0.004 -0.562738,-0.137149 -0.785929,0.02196 -1.09798,-0.149182 -0.0056,-0.0031 -0.01118,-0.0062 -0.0168,-0.0095 -0.314597,-0.183218 -0.373339,-0.677291 -0.374955,-0.895688 -2.6e-5,-0.0035 -3.3e-5,-0.0069 -2.2e-5,-0.01024 6.78e-4,-0.2147113 0.251532,-0.9143607 0.618854,-0.8746254 4.6e-5,5e-6 9.2e-5,1.01e-5 1.37e-4,1.51e-5 0.531524,0.057544 0.783188,0.3450136 1.35399,0.2067545 0.0011,-2.705e-4 0.0022,-5.428e-4 0.0034,-8.168e-4 0.572316,-0.1401374 0.895222,-0.9884769 1.647057,-0.8781515 7.3e-4,1.071e-4 0.0015,2.15e-4 0.0022,3.235e-4 0.696716,0.1034318 1.597322,-1.3767402 2.433437,-1.123441 4.15e-4,1.258e-4 8.3e-4,2.521e-4 0.0012,3.787e-4 0.994609,0.303209 1.403551,0.8616454 2.159877,0.9407435 7.39e-4,7.73e-5 0.0015,1.543e-4 0.0022,2.307e-4 0.754201,0.077969 1.433739,0.1906299 2.005117,0.3297976 0.0028,6.826e-4 0.0056,0.00137 0.0084,0.00205 0.566755,0.138349 1.263455,0.1249134 1.588433,0.3038368 0.0039,0.00212 0.0077,0.00427 0.0114,0.00645 0.319407,0.1859414 0.28458,0.8435689 0.28458,1.0570363 0,0 0,1e-6 0,1e-6 0,0 0,3e-6 0,3e-6"
         style="fill:#b9e1eb;fill-opacity:1;stroke-width:3.54330707;stroke-linecap:round;stroke-linejoin:round;stroke-miterlimit:4"
         inkscape:connector-curvature="0" />
      <path
         id="path6442"
         d="m 30.861048,10.013384 c 0,0.209094 -0.143443,0.764155 -0.456315,0.946319 -0.0031,0.0018 -0.0061,0.0036 -0.0092,0.0053 -0.31473,0.179475 -0.852607,0.339199 -1.379165,0.239721 -0.0022,-4.15e-4 -0.0044,-8.26e-4 -0.0066,-0.0012 -0.564641,-0.104814 -1.017947,0.130579 -1.757009,0.207088 -7.25e-4,7.5e-5 -0.0014,1.5e-4 -0.0022,2.23e-4 -0.7406,0.07517 -1.731561,-0.681918 -2.586124,-0.683831 -0.0013,-2e-6 -0.0026,-4e-6 -0.0039,-4e-6 -0.852113,-1.18e-4 -1.57592,-0.218896 -2.343491,0.08508 -0.0037,0.0015 -0.0074,0.0029 -0.01114,0.0044 -0.685763,0.27526 -1.279942,0.404067 -1.83645,0.272538 -0.0055,-0.0013 -0.01096,-0.0026 -0.01643,-0.0039 -0.550815,-0.134154 -0.769163,0.02189 -1.074927,-0.14642 -0.0055,-0.003 -0.01094,-0.0061 -0.01644,-0.0093 -0.307544,-0.180008 -0.364816,-0.664046 -0.366317,-0.877596 -2.4e-5,-0.0034 -2.8e-5,-0.0067 -1.1e-5,-0.01004 10e-4,-0.2109028 0.246506,-0.8953707 0.605849,-0.8564674 6.8e-5,7.5e-6 1.37e-4,1.51e-5 2.06e-4,2.28e-5 0.52036,0.056405 0.76674,0.3380797 1.325637,0.2025304 0.0011,-2.652e-4 0.0022,-5.322e-4 0.0033,-8.009e-4 0.560227,-0.1374279 0.876365,-0.9685303 1.612415,-0.860352 7.13e-4,1.047e-4 0.0014,2.099e-4 0.0021,3.157e-4 0.682087,0.1011952 1.563762,-1.3489888 2.382295,-1.1007351 4.11e-4,1.245e-4 8.21e-4,2.493e-4 0.0012,3.745e-4 0.973718,0.2971002 1.374062,0.8442652 2.114553,0.921723 7.24e-4,7.57e-5 0.0014,1.51e-4 0.0022,2.26e-4 0.738492,0.076411 1.40386,0.1868249 1.963292,0.3232178 0.0027,6.689e-4 0.0055,0.00134 0.0082,0.00201 0.555091,0.1355279 1.237367,0.1223203 1.555214,0.2979014 0.0038,0.00208 0.0075,0.00419 0.01114,0.00633 0.31215,0.1825885 0.278092,0.8263262 0.278092,1.0353628 0,0 0,1e-6 0,1e-6 0,0 0,3e-6 0,3e-6"
         style="fill:#bee3ed;fill-opacity:1;stroke-width:3.54330707;stroke-linecap:round;stroke-linejoin:round;stroke-miterlimit:4"
         inkscape:connector-curvature="0" />
      <path
         id="path6444"
         d="m 30.728821,9.9779823 c 0,0.2046817 -0.140232,0.7478687 -0.446088,0.9265377 -0.003,0.0017 -0.006,0.0035 -0.009,0.0052 -0.307855,0.175843 -0.834309,0.332446 -1.349725,0.235091 -0.0021,-4.05e-4 -0.0043,-8.06e-4 -0.0064,-0.0012 -0.552651,-0.102797 -0.996248,0.127789 -1.719534,0.202746 -7.08e-4,7.3e-5 -0.0014,1.46e-4 -0.0021,2.18e-4 -0.724776,0.0737 -1.69462,-0.667951 -2.530932,-0.669716 -0.0013,-2e-6 -0.0026,-4e-6 -0.0039,-4e-6 -0.83393,-1.57e-4 -1.542286,-0.214456 -2.293521,0.08355 -0.0036,0.0014 -0.0072,0.0029 -0.01085,0.0043 -0.67117,0.269579 -1.252692,0.395627 -1.797358,0.266529 -0.0054,-0.0013 -0.01072,-0.0026 -0.01607,-0.0039 -0.538892,-0.13116 -0.752398,0.02182 -1.051875,-0.143658 -0.0053,-0.003 -0.01071,-0.006 -0.01608,-0.0092 -0.300492,-0.176798 -0.356294,-0.650801 -0.357679,-0.859504 -2.2e-5,-0.0033 -2.2e-5,-0.0066 -1e-6,-0.0098 0.0014,-0.2070943 0.24148,-0.8763808 0.592844,-0.8383094 9.2e-5,1.01e-5 1.84e-4,2.02e-5 2.76e-4,3.04e-5 0.509196,0.055266 0.750291,0.3311459 1.297284,0.1983064 0.0011,-2.599e-4 0.0021,-5.216e-4 0.0032,-7.85e-4 0.548137,-0.1347184 0.857506,-0.9485837 1.577773,-0.8425525 6.94e-4,1.022e-4 0.0014,2.049e-4 0.0021,3.08e-4 0.667458,0.098959 1.5302,-1.3212375 2.331153,-1.0780293 4.05e-4,1.231e-4 8.1e-4,2.465e-4 0.0012,3.702e-4 0.952826,0.2909916 1.344573,0.8268851 2.069229,0.9027025 7.08e-4,7.41e-5 0.0014,1.479e-4 0.0021,2.213e-4 0.722783,0.074853 1.37398,0.1830199 1.921467,0.3166381 0.0027,6.552e-4 0.0054,0.00131 0.008,0.00197 0.543429,0.1327068 1.211279,0.1197273 1.521995,0.2919661 0.0037,0.00204 0.0073,0.00411 0.01089,0.00622 0.304894,0.1792354 0.271605,0.8090835 0.271605,1.0136901 0,0 0,1.1e-6 0,1.1e-6 0,0 0,3e-6 0,3e-6"
         style="fill:#c3e5ee;fill-opacity:1;stroke-width:3.54330707;stroke-linecap:round;stroke-linejoin:round;stroke-miterlimit:4"
         inkscape:connector-curvature="0" />
      <path
         id="path6446"
         d="m 30.596595,9.9425803 c 0,0.2002697 -0.137022,0.7315817 -0.435861,0.9067577 -0.0029,0.0017 -0.0059,0.0034 -0.0088,0.0051 -0.30098,0.172211 -0.816011,0.325693 -1.320285,0.230461 -0.0021,-3.94e-4 -0.0042,-7.86e-4 -0.0063,-0.0012 -0.54066,-0.10078 -0.974549,0.124999 -1.682058,0.198404 -6.93e-4,7.2e-5 -0.0014,1.43e-4 -0.0021,2.14e-4 -0.708953,0.07224 -1.657679,-0.653984 -2.475741,-0.655602 -0.0013,-2e-6 -0.0026,-4e-6 -0.0039,-4e-6 -0.815747,-1.97e-4 -1.508653,-0.210016 -2.243551,0.08201 -0.0035,0.0014 -0.007,0.0028 -0.01055,0.0042 -0.656579,0.263897 -1.225442,0.387187 -1.758267,0.260519 -0.0052,-0.0012 -0.01049,-0.0025 -0.01572,-0.0038 -0.526969,-0.128165 -0.735632,0.02175 -1.028822,-0.140897 -0.0052,-0.0029 -0.01047,-0.0059 -0.01572,-0.009 -0.29344,-0.173589 -0.347771,-0.637556 -0.349041,-0.841412 -2e-5,-0.00324 -1.7e-5,-0.00645 1e-5,-0.00964 0.0017,-0.2032862 0.236453,-0.8573912 0.579839,-0.8201518 1.15e-4,1.26e-5 2.3e-4,2.53e-5 3.44e-4,3.8e-5 0.498033,0.054126 0.733843,0.3242121 1.268932,0.1940824 0.001,-2.546e-4 0.0021,-5.11e-4 0.0031,-7.691e-4 0.536048,-0.132009 0.838648,-0.9286371 1.54313,-0.824753 6.76e-4,9.98e-5 0.0014,1.998e-4 0.002,3.002e-4 0.652829,0.096722 1.496639,-1.2934861 2.280011,-1.0553233 4e-4,1.216e-4 8e-4,2.436e-4 0.0012,3.659e-4 0.931935,0.2848828 1.315084,0.8095049 2.023904,0.883682 6.93e-4,7.25e-5 0.0014,1.446e-4 0.0021,2.165e-4 0.707072,0.073294 1.3441,0.1792149 1.879642,0.3100585 0.0026,6.414e-4 0.0052,0.00128 0.0079,0.00192 0.531765,0.1298857 1.185191,0.1171343 1.488775,0.2860307 0.0036,0.002 0.0071,0.00403 0.01064,0.0061 0.297638,0.1758825 0.265118,0.7918409 0.265118,0.992017 0,0 0,1.3e-6 0,1.3e-6 0,0 0,2.7e-6 0,2.7e-6"
         style="fill:#c8e7ef;fill-opacity:1;stroke-width:3.54330707;stroke-linecap:round;stroke-linejoin:round;stroke-miterlimit:4"
         inkscape:connector-curvature="0" />
      <path
         id="path6448"
         d="m 30.464368,9.9071784 c 0,0.1958576 -0.13381,0.7152946 -0.425634,0.8869766 -0.0029,0.0017 -0.0057,0.0034 -0.0086,0.005 -0.294105,0.168578 -0.797714,0.318941 -1.290846,0.225832 -0.002,-3.85e-4 -0.0041,-7.67e-4 -0.0061,-0.0011 -0.528669,-0.09876 -0.952849,0.122207 -1.644582,0.194061 -6.78e-4,7e-5 -0.0014,1.4e-4 -0.002,2.09e-4 -0.69313,0.07078 -1.620739,-0.640016 -2.42055,-0.641487 -0.0013,-3e-6 -0.0026,-4e-6 -0.0039,-4e-6 -0.797564,-2.36e-4 -1.475019,-0.205577 -2.193581,0.08047 -0.0034,0.0014 -0.0068,0.0027 -0.01025,0.0041 -0.641987,0.258215 -1.198193,0.378746 -1.719175,0.254509 -0.0051,-0.0012 -0.01025,-0.0025 -0.01536,-0.0037 -0.515046,-0.125171 -0.718866,0.02168 -1.005769,-0.138135 -0.0051,-0.0029 -0.01024,-0.0058 -0.01536,-0.0088 -0.286386,-0.170379 -0.339248,-0.62431 -0.340402,-0.8233194 -1.9e-5,-0.00316 -1.1e-5,-0.00631 2.1e-5,-0.00944 0.002,-0.1994777 0.231426,-0.8384012 0.566834,-0.8019938 1.38e-4,1.52e-5 2.76e-4,3.04e-5 4.13e-4,4.56e-5 0.486869,0.052987 0.717394,0.3172784 1.24058,0.1898584 10e-4,-2.493e-4 0.002,-5.004e-4 0.0031,-7.532e-4 0.523958,-0.1292995 0.81979,-0.9086904 1.508487,-0.8069535 6.59e-4,9.73e-5 0.0013,1.948e-4 0.002,2.924e-4 0.6382,0.094485 1.463078,-1.2657347 2.228869,-1.0326174 3.94e-4,1.203e-4 7.89e-4,2.408e-4 0.0012,3.616e-4 0.911043,0.2787742 1.285594,0.7921248 1.978579,0.8646615 6.78e-4,7.09e-5 0.0014,1.415e-4 0.002,2.118e-4 0.691363,0.071736 1.31422,0.1754099 1.837817,0.3034788 0.0026,6.277e-4 0.0051,0.00125 0.0077,0.00188 0.520102,0.1270645 1.159103,0.1145413 1.455555,0.2800954 0.0035,0.00196 0.007,0.00395 0.01038,0.00598 0.290381,0.1725296 0.25863,0.7745983 0.25863,0.9703438 0,0 0,1.6e-6 0,1.6e-6 0,0 0,2.5e-6 0,2.5e-6"
         style="fill:#cde9f1;fill-opacity:1;stroke-width:3.54330707;stroke-linecap:round;stroke-linejoin:round;stroke-miterlimit:4"
         inkscape:connector-curvature="0" />
      <path
         id="path6450"
         d="m 30.332141,9.8717765 c 0,0.1914465 -0.130599,0.6990085 -0.415407,0.8671955 -0.0028,0.0016 -0.0056,0.0033 -0.0084,0.0049 -0.28723,0.164947 -0.779416,0.312189 -1.261406,0.221203 -0.002,-3.74e-4 -0.004,-7.47e-4 -0.0059,-0.0011 -0.516679,-0.09675 -0.93115,0.119417 -1.607106,0.189718 -6.62e-4,6.9e-5 -0.0013,1.37e-4 -0.002,2.05e-4 -0.677306,0.06932 -1.583798,-0.626049 -2.365358,-0.627373 -0.0013,-2e-6 -0.0026,-3e-6 -0.0038,-3e-6 -0.779381,-2.75e-4 -1.441386,-0.201137 -2.143611,0.07894 -0.0033,0.0013 -0.0066,0.0027 -0.01,0.004 -0.627395,0.252533 -1.170942,0.370305 -1.680083,0.248499 -0.005,-0.0012 -0.01001,-0.0024 -0.015,-0.0036 -0.503123,-0.122176 -0.7021,0.02161 -0.982716,-0.135373 -0.005,-0.0028 -0.01,-0.0057 -0.015,-0.0087 -0.279334,-0.16717 -0.330725,-0.611065 -0.331764,-0.8052278 -1.7e-5,-0.00308 -6e-6,-0.00616 3.2e-5,-0.00924 0.0024,-0.1956693 0.2264,-0.8194113 0.553829,-0.7838358 1.61e-4,1.76e-5 3.21e-4,3.53e-5 4.82e-4,5.31e-5 0.475705,0.051848 0.700946,0.3103446 1.212227,0.1856344 0.001,-2.44e-4 0.002,-4.898e-4 0.003,-7.374e-4 0.511868,-0.1265899 0.800931,-0.8887437 1.473844,-0.7891538 6.41e-4,9.48e-5 0.0013,1.896e-4 0.0019,2.846e-4 0.623571,0.092249 1.429517,-1.2379834 2.177727,-1.0099116 3.9e-4,1.189e-4 7.79e-4,2.38e-4 0.0012,3.574e-4 0.890151,0.2726654 1.256105,0.7747446 1.933255,0.8456409 6.62e-4,6.93e-5 0.0013,1.384e-4 0.002,2.071e-4 0.675654,0.070178 1.284341,0.1716049 1.795992,0.2968991 0.0025,6.14e-4 0.005,0.00123 0.0075,0.00184 0.508438,0.1242434 1.133015,0.1119483 1.422335,0.27416 0.0034,0.00192 0.0068,0.00387 0.01013,0.00586 0.283124,0.1691766 0.252142,0.7573556 0.252142,0.9486707 0,0 0,1.8e-6 0,1.8e-6 0,0 0,2.3e-6 0,2.3e-6"
         style="fill:#d2ebf2;fill-opacity:1;stroke-width:3.54330707;stroke-linecap:round;stroke-linejoin:round;stroke-miterlimit:4"
         inkscape:connector-curvature="0" />
      <path
         id="path6452"
         d="m 30.199914,9.8363746 c 0,0.1870344 -0.127388,0.6827214 -0.405179,0.8474144 -0.0027,0.0016 -0.0055,0.0032 -0.0082,0.0048 -0.280356,0.161315 -0.761118,0.305437 -1.231966,0.216573 -0.0019,-3.64e-4 -0.0039,-7.27e-4 -0.0058,-0.0011 -0.504688,-0.09473 -0.909451,0.116627 -1.56963,0.185376 -6.47e-4,6.7e-5 -0.0013,1.34e-4 -0.0019,2.01e-4 -0.661483,0.06785 -1.546857,-0.612082 -2.310167,-0.613259 -0.0013,-2e-6 -0.0025,-3e-6 -0.0038,-3e-6 -0.761199,-3.14e-4 -1.407753,-0.196697 -2.093643,0.0774 -0.0032,0.0013 -0.0064,0.0026 -0.0097,0.0039 -0.612803,0.246851 -1.143693,0.361864 -1.640992,0.242489 -0.0049,-0.0012 -0.0098,-0.0024 -0.01464,-0.0035 -0.4912,-0.119182 -0.685335,0.02154 -0.959663,-0.132611 -0.0049,-0.0027 -0.0098,-0.0056 -0.01464,-0.0085 -0.272282,-0.16396 -0.322203,-0.597819 -0.323126,-0.7871351 -1.5e-5,-0.00301 0,-0.00602 4.3e-5,-0.00904 0.0027,-0.1918609 0.221373,-0.8004214 0.540824,-0.7656779 1.84e-4,2.02e-5 3.67e-4,4.04e-5 5.5e-4,6.08e-5 0.464542,0.050709 0.684498,0.3034107 1.183875,0.1814103 9.77e-4,-2.387e-4 0.002,-4.792e-4 0.0029,-7.215e-4 0.499778,-0.1238804 0.782073,-0.8687971 1.439202,-0.7713543 6.23e-4,9.23e-5 0.0012,1.846e-4 0.0019,2.768e-4 0.608942,0.090012 1.395956,-1.210232 2.126585,-0.9872057 3.84e-4,1.175e-4 7.69e-4,2.352e-4 0.0012,3.532e-4 0.86926,0.2665567 1.226616,0.7573644 1.887931,0.8266204 6.46e-4,6.77e-5 0.0013,1.351e-4 0.0019,2.024e-4 0.659944,0.06862 1.254462,0.1677998 1.754167,0.2903194 0.0024,6.002e-4 0.0049,0.0012 0.0073,0.0018 0.496775,0.1214223 1.106926,0.1093553 1.389115,0.2682247 0.0033,0.00188 0.0066,0.00379 0.0099,0.00575 0.275867,0.1658237 0.245654,0.740113 0.245654,0.9269976 0,0 0,2.1e-6 0,2.1e-6 0,0 0,2e-6 0,2e-6"
         style="fill:#d7eef4;fill-opacity:1;stroke-width:3.54330707;stroke-linecap:round;stroke-linejoin:round;stroke-miterlimit:4"
         inkscape:connector-curvature="0" />
      <path
         id="path6454"
         d="m 30.067687,9.8009726 c 0,0.1826224 -0.124176,0.6664354 -0.394952,0.8276334 -0.0027,0.0016 -0.0053,0.0031 -0.008,0.0047 -0.273481,0.157683 -0.74282,0.298684 -1.202527,0.211943 -0.0019,-3.54e-4 -0.0037,-7.07e-4 -0.0056,-0.0011 -0.492698,-0.09271 -0.887751,0.113836 -1.532154,0.181034 -6.31e-4,6.6e-5 -0.0013,1.31e-4 -0.0019,1.96e-4 -0.645658,0.06639 -1.509916,-0.598114 -2.254975,-0.599144 -0.0013,-2e-6 -0.0025,-3e-6 -0.0038,-3e-6 -0.743016,-3.54e-4 -1.37412,-0.192258 -2.043673,0.07586 -0.0031,0.0013 -0.0062,0.0025 -0.0094,0.0038 -0.598212,0.241169 -1.116444,0.353424 -1.601901,0.236479 -0.0048,-0.0012 -0.0095,-0.0023 -0.01428,-0.0035 -0.479276,-0.116187 -0.668568,0.02146 -0.936609,-0.12985 -0.0048,-0.0027 -0.0095,-0.0055 -0.01428,-0.0084 -0.265229,-0.160751 -0.31368,-0.584574 -0.314488,-0.7690435 -1.3e-5,-0.00293 5e-6,-0.00588 5.4e-5,-0.00884 0.0031,-0.1880524 0.216346,-0.7814314 0.527819,-0.7475199 2.06e-4,2.27e-5 4.13e-4,4.55e-5 6.19e-4,6.84e-5 0.453378,0.049569 0.668049,0.2964769 1.155522,0.1771862 9.54e-4,-2.333e-4 0.0019,-4.685e-4 0.0029,-7.055e-4 0.487689,-0.1211709 0.763216,-0.8488505 1.40456,-0.7535548 6.05e-4,8.99e-5 0.0012,1.796e-4 0.0018,2.691e-4 0.594313,0.087775 1.362394,-1.1824807 2.075443,-0.9644998 3.79e-4,1.16e-4 7.58e-4,2.323e-4 0.0011,3.488e-4 0.848369,0.260448 1.197127,0.7399843 1.842607,0.8075999 6.31e-4,6.61e-5 0.0013,1.32e-4 0.0019,1.977e-4 0.644234,0.067062 1.224581,0.1639948 1.712342,0.2837397 0.0024,5.865e-4 0.0048,0.00117 0.0072,0.00176 0.485111,0.1186012 1.080838,0.1067623 1.355896,0.2622893 0.0033,0.00184 0.0065,0.00371 0.0096,0.00563 0.268611,0.1624707 0.239166,0.7228704 0.239166,0.9053244 0,0 0,2.4e-6 0,2.4e-6 0,0 0,1.7e-6 0,1.7e-6"
         style="fill:#dcf0f5;fill-opacity:1;stroke-width:3.54330707;stroke-linecap:round;stroke-linejoin:round;stroke-miterlimit:4"
         inkscape:connector-curvature="0" />
      <path
         id="path6456"
         d="m 29.93546,9.7655707 c 0,0.1782105 -0.120965,0.6501483 -0.384725,0.8078523 -0.0026,0.0015 -0.0052,0.0031 -0.0078,0.0046 -0.266606,0.154051 -0.724522,0.291932 -1.173087,0.207313 -0.0018,-3.43e-4 -0.0036,-6.87e-4 -0.0055,-10e-4 -0.480707,-0.0907 -0.866052,0.111045 -1.494679,0.176691 -6.15e-4,6.4e-5 -0.0012,1.28e-4 -0.0018,1.91e-4 -0.629835,0.06493 -1.472976,-0.584147 -2.199784,-0.585029 -0.0013,-2e-6 -0.0025,-3e-6 -0.0038,-4e-6 -0.724833,-3.92e-4 -1.340486,-0.187817 -1.993703,0.07433 -0.003,0.0012 -0.0061,0.0024 -0.0091,0.0036 -0.583619,0.235488 -1.089193,0.344984 -1.562808,0.23047 -0.0047,-0.0011 -0.0093,-0.0023 -0.01393,-0.0034 -0.467354,-0.113193 -0.651802,0.02139 -0.913556,-0.127089 -0.0047,-0.0026 -0.0093,-0.0054 -0.01392,-0.0082 -0.258176,-0.157541 -0.305156,-0.5713281 -0.305849,-0.7509508 -1.1e-5,-0.00285 1.1e-5,-0.00573 6.4e-5,-0.00864 0.0034,-0.184244 0.21132,-0.7624416 0.514815,-0.7293619 2.29e-4,2.52e-5 4.59e-4,5.05e-5 6.88e-4,7.59e-5 0.442214,0.04843 0.6516,0.2895431 1.12717,0.1729622 9.3e-4,-2.28e-4 0.0019,-4.579e-4 0.0028,-6.896e-4 0.475599,-0.1184614 0.744358,-0.8289039 1.369917,-0.7357553 5.88e-4,8.74e-5 0.0012,1.745e-4 0.0018,2.613e-4 0.579683,0.085539 1.328833,-1.1547293 2.024301,-0.9417939 3.74e-4,1.147e-4 7.48e-4,2.295e-4 0.0011,3.446e-4 0.827476,0.2543393 1.167638,0.7226041 1.797282,0.7885794 6.15e-4,6.44e-5 0.0012,1.287e-4 0.0018,1.929e-4 0.628525,0.065504 1.194702,0.1601898 1.670517,0.27716 0.0023,5.728e-4 0.0047,0.00114 0.007,0.00171 0.473449,0.11578 1.054751,0.1041693 1.322677,0.256354 0.0032,0.0018 0.0063,0.00364 0.0094,0.00551 0.261354,0.1591177 0.232678,0.7056277 0.232678,0.8836512 0,0 0,2.6e-6 0,2.6e-6 0,0 0,1.5e-6 0,1.5e-6"
         style="fill:#e1f2f6;fill-opacity:1;stroke-width:3.54330707;stroke-linecap:round;stroke-linejoin:round;stroke-miterlimit:4"
         inkscape:connector-curvature="0" />
      <path
         id="path6458"
         d="m 29.803233,9.7301688 c 0,0.1737986 -0.117754,0.6338622 -0.374497,0.7880712 -0.0025,0.0015 -0.0051,0.003 -0.0076,0.0045 -0.259731,0.150419 -0.706225,0.28518 -1.143647,0.202684 -0.0018,-3.33e-4 -0.0035,-6.67e-4 -0.0053,-10e-4 -0.468716,-0.08868 -0.844353,0.108254 -1.457203,0.172348 -6e-4,6.3e-5 -0.0012,1.25e-4 -0.0018,1.87e-4 -0.614011,0.06347 -1.436035,-0.570179 -2.144592,-0.570915 -0.0012,-10e-7 -0.0025,-2e-6 -0.0037,-3e-6 -0.706651,-4.31e-4 -1.306853,-0.183377 -1.943733,0.07279 -0.0029,0.0012 -0.0059,0.0024 -0.0088,0.0035 -0.569027,0.229806 -1.061944,0.336543 -1.523717,0.22446 -0.0045,-0.0011 -0.0091,-0.0022 -0.01357,-0.0033 -0.455431,-0.110199 -0.635036,0.02132 -0.890503,-0.124327 -0.0046,-0.0026 -0.0091,-0.0053 -0.01356,-0.008 -0.251124,-0.154331 -0.296634,-0.5580832 -0.297211,-0.7328592 -9e-6,-0.00278 1.6e-5,-0.00559 7.5e-5,-0.00844 0.0037,-0.1804356 0.206293,-0.7434517 0.50181,-0.711204 2.52e-4,2.77e-5 5.04e-4,5.56e-5 7.57e-4,8.35e-5 0.431049,0.047291 0.635152,0.2826093 1.098817,0.1687382 9.07e-4,-2.227e-4 0.0018,-4.472e-4 0.0027,-6.737e-4 0.463509,-0.1157519 0.725499,-0.8089573 1.335275,-0.7179558 5.69e-4,8.49e-5 0.0011,1.695e-4 0.0017,2.535e-4 0.565055,0.083302 1.295273,-1.1269779 1.973159,-0.919088 3.69e-4,1.133e-4 7.38e-4,2.267e-4 0.0011,3.403e-4 0.806585,0.2482307 1.138149,0.705224 1.751958,0.7695589 5.99e-4,6.29e-5 0.0012,1.256e-4 0.0018,1.882e-4 0.612815,0.063946 1.164822,0.1563848 1.628692,0.2705804 0.0023,5.59e-4 0.0045,0.00112 0.0068,0.00167 0.461785,0.1129589 1.028663,0.1015763 1.289457,0.2504186 0.0031,0.00176 0.0061,0.00356 0.0091,0.00539 0.254097,0.1557647 0.22619,0.688385 0.22619,0.861978 0,0 0,2.9e-6 0,2.9e-6 0,0 0,1.3e-6 0,1.3e-6"
         style="fill:#e6f4f8;fill-opacity:1;stroke-width:3.54330707;stroke-linecap:round;stroke-linejoin:round;stroke-miterlimit:4"
         inkscape:connector-curvature="0" />
      <path
         id="path6460"
         d="m 29.671006,9.6947668 c 0,0.1693869 -0.114542,0.6175752 -0.36427,0.7682902 -0.0025,0.0015 -0.0049,0.0029 -0.0074,0.0044 -0.252856,0.146787 -0.687927,0.278428 -1.114207,0.198054 -0.0017,-3.23e-4 -0.0034,-6.46e-4 -0.0051,-9.71e-4 -0.456726,-0.08666 -0.822654,0.105464 -1.419727,0.168006 -5.84e-4,6.1e-5 -0.0012,1.22e-4 -0.0018,1.83e-4 -0.598188,0.06201 -1.399094,-0.556213 -2.089401,-0.556801 -0.0012,-1e-6 -0.0025,-2e-6 -0.0037,-3e-6 -0.688468,-4.71e-4 -1.273219,-0.178938 -1.893763,0.07126 -0.0028,0.0011 -0.0057,0.0023 -0.0085,0.0034 -0.554435,0.224124 -1.034694,0.328103 -1.484625,0.21845 -0.0044,-0.0011 -0.0088,-0.0021 -0.01321,-0.0032 -0.443508,-0.107203 -0.61827,0.02125 -0.867451,-0.121565 -0.0044,-0.0025 -0.0088,-0.0052 -0.0132,-0.0079 -0.244071,-0.151121 -0.288111,-0.5448372 -0.288573,-0.7147666 -7e-6,-0.0027 2.1e-5,-0.00545 8.6e-5,-0.00824 0.0041,-0.1766273 0.201267,-0.7244618 0.488805,-0.6930461 2.75e-4,3.03e-5 5.5e-4,6.06e-5 8.25e-4,9.11e-5 0.419886,0.046151 0.618704,0.2756755 1.070465,0.1645142 8.84e-4,-2.174e-4 0.0018,-4.366e-4 0.0026,-6.578e-4 0.451419,-0.1130424 0.706641,-0.7890107 1.300632,-0.7001563 5.52e-4,8.25e-5 0.0011,1.644e-4 0.0017,2.458e-4 0.550426,0.081066 1.261711,-1.0992266 1.922017,-0.8963821 3.64e-4,1.118e-4 7.28e-4,2.238e-4 0.0011,3.36e-4 0.785693,0.2421219 1.10866,0.6878437 1.706634,0.7505383 5.84e-4,6.13e-5 0.0012,1.225e-4 0.0018,1.835e-4 0.597105,0.062388 1.134942,0.1525798 1.586866,0.2640007 0.0022,5.453e-4 0.0044,0.00109 0.0066,0.00163 0.450122,0.1101378 1.002575,0.098983 1.256237,0.2444833 0.003,0.00172 0.0059,0.00348 0.0089,0.00528 0.246842,0.1524118 0.219703,0.6711424 0.219703,0.8403049 0,0 0,3.1e-6 0,3.1e-6 0,0 0,10e-7 0,10e-7"
         style="fill:#ebf6f9;fill-opacity:1;stroke-width:3.54330707;stroke-linecap:round;stroke-linejoin:round;stroke-miterlimit:4"
         inkscape:connector-curvature="0" />
      <path
         id="path6462"
         d="m 29.53878,9.6593649 c 0,0.164975 -0.111332,0.6012881 -0.354044,0.7485101 -0.0024,0.0014 -0.0048,0.0029 -0.0072,0.0043 -0.245982,0.143155 -0.669629,0.271675 -1.084768,0.193424 -0.0017,-3.12e-4 -0.0033,-6.26e-4 -0.005,-9.42e-4 -0.444735,-0.08464 -0.800954,0.102674 -1.382251,0.163664 -5.69e-4,6e-5 -0.0011,1.19e-4 -0.0017,1.78e-4 -0.582364,0.06055 -1.362153,-0.542245 -2.034209,-0.542686 -0.0012,-1e-6 -0.0025,-2e-6 -0.0037,-3e-6 -0.670285,-5.1e-4 -1.239586,-0.174498 -1.843793,0.06972 -0.0027,0.0011 -0.0055,0.0022 -0.0082,0.0033 -0.539843,0.218442 -1.007444,0.319662 -1.445534,0.21244 -0.0043,-0.0011 -0.0086,-0.0021 -0.01285,-0.0031 -0.431585,-0.104209 -0.601505,0.02118 -0.844398,-0.118803 -0.0043,-0.0025 -0.0086,-0.0051 -0.01284,-0.0077 -0.237018,-0.147912 -0.279588,-0.5315923 -0.279934,-0.6966749 -6e-6,-0.00262 2.7e-5,-0.0053 9.7e-5,-0.00804 0.0044,-0.1728188 0.19624,-0.7054718 0.475799,-0.6748881 2.99e-4,3.28e-5 5.97e-4,6.57e-5 8.95e-4,9.87e-5 0.408722,0.045012 0.602255,0.2687417 1.042112,0.1602902 8.6e-4,-2.121e-4 0.0017,-4.26e-4 0.0026,-6.419e-4 0.439329,-0.1103329 0.687783,-0.7690641 1.265989,-0.6823568 5.34e-4,8e-5 0.0011,1.594e-4 0.0016,2.38e-4 0.535796,0.078829 1.22815,-1.0714752 1.870875,-0.8736762 3.58e-4,1.105e-4 7.17e-4,2.21e-4 0.0011,3.317e-4 0.764802,0.2360133 1.079171,0.6704636 1.661309,0.7315179 5.69e-4,5.96e-5 0.0011,1.192e-4 0.0017,1.787e-4 0.581396,0.06083 1.105062,0.1487748 1.545041,0.257421 0.0022,5.316e-4 0.0043,0.00106 0.0065,0.00159 0.438458,0.1073166 0.976486,0.09639 1.223017,0.2385479 0.0029,0.00168 0.0058,0.0034 0.0086,0.00516 0.239585,0.1490589 0.213216,0.6538998 0.213216,0.8186317 0,0 0,3.4e-6 0,3.4e-6 0,0 0,8e-7 0,8e-7"
         style="fill:#f0f8fa;fill-opacity:1;stroke-width:3.54330707;stroke-linecap:round;stroke-linejoin:round;stroke-miterlimit:4"
         inkscape:connector-curvature="0" />
      <path
         id="path6464"
         d="m 29.406553,9.623963 c 0,0.1605631 -0.108121,0.585002 -0.343817,0.728729 -0.0023,0.0014 -0.0047,0.0028 -0.007,0.0042 -0.239107,0.139523 -0.651331,0.264923 -1.055328,0.188794 -0.0016,-3.02e-4 -0.0032,-6.06e-4 -0.0048,-9.12e-4 -0.432745,-0.08263 -0.779255,0.09988 -1.344775,0.159321 -5.53e-4,5.8e-5 -0.0011,1.16e-4 -0.0017,1.73e-4 -0.56654,0.05908 -1.325213,-0.528277 -1.979018,-0.528571 -0.0012,-10e-7 -0.0024,-2e-6 -0.0037,-3e-6 -0.652102,-5.49e-4 -1.205952,-0.170058 -1.793824,0.06818 -0.0026,0.0011 -0.0053,0.0021 -0.0079,0.0032 -0.525252,0.212761 -0.980195,0.311221 -1.406442,0.20643 -0.0042,-0.001 -0.0084,-0.002 -0.0125,-0.003 -0.419662,-0.101215 -0.584739,0.02111 -0.821345,-0.116042 -0.0042,-0.0024 -0.0084,-0.005 -0.01248,-0.0075 -0.229965,-0.144702 -0.271065,-0.5183464 -0.271296,-0.6785823 -4e-6,-0.00255 3.2e-5,-0.00516 1.08e-4,-0.00784 0.0048,-0.1690104 0.191213,-0.6864819 0.462794,-0.6567301 3.22e-4,3.53e-5 6.43e-4,7.07e-5 9.64e-4,1.063e-4 0.397558,0.043873 0.585807,0.2618078 1.01376,0.1560661 8.36e-4,-2.067e-4 0.0017,-4.154e-4 0.0025,-6.26e-4 0.42724,-0.1076234 0.668924,-0.7491175 1.231346,-0.6645573 5.17e-4,7.76e-5 0.001,1.543e-4 0.0015,2.303e-4 0.521167,0.076592 1.194589,-1.0437239 1.819733,-0.8509704 3.53e-4,1.091e-4 7.06e-4,2.182e-4 0.0011,3.275e-4 0.74391,0.2299045 1.049681,0.6530834 1.615984,0.7124973 5.54e-4,5.81e-5 0.0011,1.161e-4 0.0017,1.741e-4 0.565686,0.059271 1.075183,0.1449697 1.503217,0.2508412 0.0021,5.178e-4 0.0042,0.00103 0.0063,0.00155 0.426795,0.1044954 0.950398,0.093797 1.189798,0.2326125 0.0028,0.00164 0.0056,0.00332 0.0084,0.00504 0.232328,0.1457059 0.206728,0.6366572 0.206728,0.7969586 0,0 0,3.7e-6 0,3.7e-6 0,0 0,5e-7 0,5e-7"
         style="fill:#f5fafc;fill-opacity:1;stroke-width:3.54330707;stroke-linecap:round;stroke-linejoin:round;stroke-miterlimit:4"
         inkscape:connector-curvature="0" />
      <path
         id="path6466"
         d="m 29.274326,9.588561 c 0,0.1561513 -0.10491,0.568715 -0.333589,0.708948 -0.0023,0.0014 -0.0045,0.0027 -0.0068,0.0041 -0.232232,0.135892 -0.633033,0.258171 -1.025888,0.184165 -0.0016,-2.92e-4 -0.0031,-5.86e-4 -0.0047,-8.83e-4 -0.420754,-0.08061 -0.757556,0.09709 -1.307299,0.154978 -5.38e-4,5.7e-5 -0.0011,1.13e-4 -0.0016,1.7e-4 -0.550716,0.05762 -1.288271,-0.514311 -1.923826,-0.514458 -0.0012,0 -0.0024,-1e-6 -0.0036,-2e-6 -0.633919,-5.89e-4 -1.172319,-0.1656188 -1.743854,0.06665 -0.0025,0.001 -0.0051,0.0021 -0.0076,0.0031 -0.510659,0.207079 -0.952945,0.30278 -1.36735,0.20042 -0.0041,-0.001 -0.0081,-0.002 -0.01214,-0.003 -0.407739,-0.09822 -0.567973,0.02103 -0.798292,-0.11328 -0.0041,-0.0024 -0.0081,-0.0048 -0.01212,-0.0074 -0.222913,-0.141493 -0.262543,-0.5051015 -0.262658,-0.6604906 -2e-6,-0.00247 3.8e-5,-0.00502 1.19e-4,-0.00764 0.0051,-0.165202 0.186186,-0.667492 0.449789,-0.6385722 3.44e-4,3.78e-5 6.88e-4,7.58e-5 10e-4,1.139e-4 0.386395,0.042734 0.569359,0.254874 0.985408,0.1518421 8.13e-4,-2.014e-4 0.0016,-4.048e-4 0.0024,-6.101e-4 0.415151,-0.1049139 0.650067,-0.7291709 1.196705,-0.6467578 4.98e-4,7.51e-5 9.97e-4,1.493e-4 0.0015,2.225e-4 0.506539,0.074356 1.161028,-1.0159725 1.768591,-0.8282644 3.49e-4,1.076e-4 6.97e-4,2.154e-4 0.001,3.231e-4 0.723018,0.2237959 1.020192,0.6357033 1.57066,0.6934769 5.38e-4,5.64e-5 0.0011,1.129e-4 0.0016,1.693e-4 0.549976,0.057713 1.045302,0.1411648 1.461391,0.2442616 0.002,5.04e-4 0.0041,0.00101 0.0061,0.0015 0.415131,0.1016743 0.92431,0.091204 1.156578,0.2266771 0.0027,0.0016 0.0054,0.00324 0.0081,0.00492 0.225072,0.142353 0.20024,0.6194146 0.20024,0.7752854 0,0 0,4e-6 0,4e-6 0,0 0,2e-7 0,2e-7"
         style="fill:#fafcfd;fill-opacity:1;stroke-width:3.54330707;stroke-linecap:round;stroke-linejoin:round;stroke-miterlimit:4"
         inkscape:connector-curvature="0" />
      <path
         id="path6468"
         d="m 29.142099,9.5531591 c 0,0.1517395 -0.101698,0.5524289 -0.323362,0.6891669 -0.0022,0.0013 -0.0044,0.0027 -0.0066,0.004 -0.225357,0.132259 -0.614736,0.251419 -0.996449,0.179536 -0.0015,-2.82e-4 -0.003,-5.67e-4 -0.0045,-8.55e-4 -0.408763,-0.07859 -0.735857,0.0943 -1.269824,0.150636 -5.21e-4,5.5e-5 -0.001,1.1e-4 -0.0016,1.65e-4 -0.534893,0.05616 -1.251331,-0.500343 -1.868635,-0.500343 -0.0012,0 -0.0024,-10e-7 -0.0036,-2e-6 -0.615736,-6.28e-4 -1.138685,-0.1611792 -1.693884,0.06511 -0.0024,9.93e-4 -0.0049,0.002 -0.0073,0.003 -0.496068,0.201398 -0.925695,0.294341 -1.328259,0.194411 -0.004,-9.81e-4 -0.0079,-0.0019 -0.01178,-0.0029 -0.395816,-0.09523 -0.551207,0.02096 -0.775239,-0.110519 -0.004,-0.0023 -0.0079,-0.0047 -0.01176,-0.0072 -0.215861,-0.138283 -0.25402,-0.4918556 -0.25402,-0.642398 0,-0.00239 4.3e-5,-0.00487 1.29e-4,-0.00744 0.0054,-0.1613936 0.181161,-0.6485022 0.436785,-0.6204143 3.67e-4,4.03e-5 7.34e-4,8.08e-5 0.0011,1.215e-4 0.375231,0.041594 0.55291,0.2479402 0.957055,0.1476181 7.9e-4,-1.961e-4 0.0016,-3.942e-4 0.0024,-5.942e-4 0.403061,-0.1022044 0.631209,-0.7092243 1.162062,-0.6289583 4.81e-4,7.27e-5 9.61e-4,1.442e-4 0.0014,2.147e-4 0.49191,0.072119 1.127467,-0.9882211 1.717449,-0.8055585 3.43e-4,1.063e-4 6.86e-4,2.126e-4 0.001,3.189e-4 0.702127,0.2176871 0.990703,0.6183231 1.525336,0.6744563 5.22e-4,5.48e-5 0.001,1.097e-4 0.0016,1.646e-4 0.534267,0.056155 1.015423,0.1373598 1.419566,0.2376819 0.002,4.903e-4 0.004,9.78e-4 0.0059,0.00146 0.403468,0.098853 0.898222,0.088611 1.123358,0.2207418 0.0027,0.00156 0.0053,0.00316 0.0079,0.00481 0.217815,0.1389999 0.193752,0.6021718 0.193752,0.7536122 0,0 0,4.2e-6 0,4.2e-6 0,0 0,0 0,0"
         style="fill:#ffffff;fill-opacity:1;stroke-width:3.54330707;stroke-linecap:round;stroke-linejoin:round;stroke-miterlimit:4"
         inkscape:connector-curvature="0" />
    </g>
  </g>
</svg>
