<?xml version="1.0" encoding="UTF-8" standalone="no"?>
<!-- Created with Inkscape (http://www.inkscape.org/) -->

<svg
   xmlns:dc="http://purl.org/dc/elements/1.1/"
   xmlns:cc="http://creativecommons.org/ns#"
   xmlns:rdf="http://www.w3.org/1999/02/22-rdf-syntax-ns#"
   xmlns:svg="http://www.w3.org/2000/svg"
   xmlns="http://www.w3.org/2000/svg"
   xmlns:sodipodi="http://sodipodi.sourceforge.net/DTD/sodipodi-0.dtd"
   xmlns:inkscape="http://www.inkscape.org/namespaces/inkscape"
   width="120"
   height="40"
   id="svg2"
   version="1.1"
   inkscape:version="0.48.5 r10040"
   sodipodi:docname="Toggle.svg">
  <defs
     id="defs4" />
  <sodipodi:namedview
     id="base"
     pagecolor="#ffffff"
     bordercolor="#666666"
     borderopacity="1.0"
     inkscape:pageopacity="0.0"
     inkscape:pageshadow="2"
     inkscape:zoom="7.9195959"
     inkscape:cx="47.040033"
     inkscape:cy="7.6595409"
     inkscape:document-units="px"
     inkscape:current-layer="layer1"
     showgrid="false"
     inkscape:window-width="1600"
     inkscape:window-height="837"
     inkscape:window-x="-8"
     inkscape:window-y="-8"
     inkscape:window-maximized="1" />
  <metadata
     id="metadata7">
    <rdf:RDF>
      <cc:Work
         rdf:about="">
        <dc:format>image/svg+xml</dc:format>
        <dc:type
           rdf:resource="http://purl.org/dc/dcmitype/StillImage" />
        <dc:title></dc:title>
      </cc:Work>
    </rdf:RDF>
  </metadata>
  <g
     inkscape:label="Layer 1"
     inkscape:groupmode="layer"
     id="layer1"
     transform="translate(0,-1012.3622)">
    <rect
       style="fill:#0000ff;fill-opacity:1;stroke-width:2;stroke-linecap:round;stroke-linejoin:round;stroke-miterlimit:4;stroke-dasharray:none"
       id="rect2985"
       width="120"
       height="40"
       x="0"
       y="1012.3622" />
    <path
       style="font-size:medium;font-style:normal;font-variant:normal;font-weight:normal;font-stretch:normal;text-indent:0;text-align:start;text-decoration:none;line-height:normal;letter-spacing:normal;word-spacing:normal;text-transform:none;direction:ltr;block-progression:tb;writing-mode:lr-tb;text-anchor:start;baseline-shift:baseline;color:#000000;fill-opacity:1;fill-rule:nonzero;stroke:none;stroke-width:2;marker:none;visibility:visible;display:inline;overflow:visible;enable-background:accumulate;font-family:Sans;-inkscape-font-specification:Sans;fill:#ffffff"
       d="m 4.8125,1016.375 a 1.0001,1.0001 0 0 0 -0.8125,1 l 0,30 a 1.0001,1.0001 0 0 0 1,1 l 30,0 a 1.0001,1.0001 0 0 0 1,-1 l 0,-30 a 1.0001,1.0001 0 0 0 -1,-1 l -30,0 a 1.0001,1.0001 0 0 0 -0.1875,0 z m 1.1875,2 28,0 0,28 -28,0 0,-28 z"
       id="rect2987"
       inkscape:connector-curvature="0" />
    <path
       style="fill:none;stroke:#ffffff;stroke-width:1px;stroke-linecap:butt;stroke-linejoin:miter;stroke-opacity:1"
       d="m 1.894036,1.9930104 c 0.7422037,0 0.5649119,-0.083529 1.3889598,0.5050763 0.03425,0.024464 -0.029762,0.096507 0,0.1262691 0.06655,0.06655 0.1742294,0.074063 0.2525381,0.126269 0.049527,0.033018 0.073029,0.099649 0.1262691,0.1262691 0.037646,0.018823 0.096507,-0.029762 0.1262691,0 0.029762,0.029762 -0.029762,0.096507 0,0.1262691 0.059524,0.059524 0.1930143,-0.059524 0.2525381,0 0.029762,0.029762 -0.029762,0.096507 0,0.126269 0.029762,0.029762 0.088623,-0.018823 0.1262691,0 0.5255016,0.2627508 -0.1349862,-0.00872 0.126269,0.2525382 0.029762,0.029762 0.084179,0 0.1262691,0 0,0.04209 -0.018823,0.088623 0,0.126269 0.2627508,0.5255017 -0.00872,-0.1349861 0.2525381,0.1262691 0.2612552,0.2612552 -0.3992325,-0.010213 0.1262691,0.2525381 0.037646,0.018823 0.096507,-0.029762 0.1262691,0 0.029762,0.029762 -0.029762,0.096507 0,0.1262691 0.029762,0.029762 0.088623,-0.018823 0.126269,0 0.05324,0.02662 0.073029,0.099649 0.1262691,0.1262691 0.075292,0.037646 0.1930143,-0.059524 0.2525381,0 0.029762,0.029762 -0.029762,0.096507 0,0.1262691 0.059524,0.059524 0.1930144,-0.059524 0.2525382,0 0.029762,0.029762 -0.029762,0.096507 0,0.126269 0.029762,0.029762 0.088623,-0.018823 0.126269,0 0.1064795,0.05324 0.1460588,0.1992984 0.2525382,0.2525382 0.037646,0.018823 0.096507,-0.029762 0.1262691,0 0.029762,0.029762 -0.018823,0.088623 0,0.126269 0.016763,0.033526 0.3452814,0.3620443 0.3788072,0.3788072 0.037646,0.018823 0.096507,-0.029762 0.126269,0 0.059524,0.059524 -0.059524,0.1930144 0,0.2525382 0.029762,0.029762 0.096507,-0.029762 0.1262691,0 0.029762,0.029762 -0.018823,0.088623 0,0.126269 0.02662,0.05324 0.099649,0.073029 0.1262691,0.1262691 0.037646,0.075292 -0.059524,0.1930143 0,0.2525381 0.029762,0.029762 0.088623,-0.018823 0.126269,0 0.5255016,0.2627508 -0.1349861,-0.00872 0.1262691,0.2525382 0.029762,0.029762 0.096507,-0.029762 0.1262691,0 0.059524,0.059524 -0.037646,0.1772458 0,0.2525381 0.02662,0.05324 0.099649,0.073029 0.126269,0.1262691 0.018823,0.037646 -0.018823,0.088623 0,0.1262691 0.05324,0.1064794 0.1992985,0.1460587 0.2525382,0.2525381 0.018823,0.037646 -0.029762,0.096507 0,0.1262691 0.029762,0.029762 0.096507,-0.029762 0.126269,0 0.059524,0.059524 -0.059524,0.1930143 0,0.2525381 0.029762,0.029762 0.096507,-0.029762 0.1262691,0 0.059524,0.059524 -0.059524,0.1930143 0,0.2525381 0.029762,0.029762 0.096507,-0.029762 0.1262691,0 0.029762,0.029762 -0.018823,0.088623 0,0.1262691 0.02662,0.05324 0.099649,0.073029 0.126269,0.1262691 0.039682,0.079363 -0.039681,0.4257133 0,0.5050762 0.02662,0.05324 0.099649,0.073029 0.1262691,0.1262691 0.037646,0.075292 -0.037646,0.1772458 0,0.2525381 0.02662,0.05324 0.099649,0.073029 0.1262691,0.1262691 0.018823,0.037646 -0.018823,0.088623 0,0.1262691 0.05324,0.1064794 0.1992984,0.1460587 0.2525381,0.2525381 0.037646,0.075292 -0.059524,0.1930143 0,0.2525382 0.029762,0.029762 0.096507,-0.029762 0.1262691,0 0.029762,0.029762 -0.018823,0.088623 0,0.126269 0.02662,0.05324 0.099649,0.073029 0.1262691,0.1262691 0.037646,0.075292 -0.059524,0.1930143 0,0.2525381 0.029762,0.029762 0.096507,-0.029762 0.126269,0 0.029762,0.029762 -0.018823,0.088623 0,0.1262693 0.02662,0.05324 0.099649,0.07303 0.1262691,0.126269 0.037646,0.07529 -0.059524,0.193014 0,0.252538 0.029762,0.02976 0.096507,-0.02976 0.1262691,0 0.059524,0.05952 -0.037646,0.177246 0,0.252538 0.02662,0.05324 0.099649,0.07303 0.126269,0.126269 0.025032,0.05007 -0.025814,0.352993 0,0.378807 0.029762,0.02976 0.096507,-0.02976 0.1262691,0 0.029762,0.02976 -0.029762,0.09651 0,0.126269 0.029762,0.02976 0.096507,-0.02976 0.1262691,0 0.025814,0.02581 -0.025032,0.328743 0,0.378808 0.02662,0.05324 0.099649,0.07303 0.126269,0.126269 0.050508,0.101015 -0.050508,0.277792 0,0.378807 0.018823,0.03765 0.096507,-0.02976 0.1262691,0 0.059524,0.05952 -0.059524,0.193014 0,0.252538 0.029762,0.02976 0.096508,-0.02976 0.1262686,0 0.02976,0.02976 -0.01882,0.08862 0,0.126269 0.02662,0.05324 0.09965,0.07303 0.12627,0.126269 0.03765,0.07529 -0.05952,0.193015 0,0.252538 0.02976,0.02976 0.08862,-0.01882 0.126269,0 0.05324,0.02662 0.07303,0.09965 0.126269,0.126269 0.03765,0.01882 0.09651,-0.02976 0.126269,0 0.02976,0.02976 -0.02976,0.09651 0,0.12627 0.02976,0.02976 0.09651,-0.02976 0.126269,0 0.05952,0.05952 -0.05952,0.193014 0,0.252538 0.02976,0.02976 0.09651,-0.02976 0.126269,0 0.02976,0.02976 -0.02976,0.09651 0,0.126269 0.261255,0.261255 -0.01021,-0.399233 0.252538,0.126269 0.01882,0.03765 -0.02976,0.09651 0,0.126269 0.02976,0.02976 0.09651,-0.02976 0.126269,0 0.02976,0.02976 -0.01882,0.08862 0,0.126269 0.02662,0.05324 0.09965,0.07303 0.126269,0.126269 0.01882,0.03765 -0.02976,0.09651 0,0.126269 0.02976,0.02976 0.09651,-0.02976 0.126269,0 0.02976,0.02976 -0.02976,0.09651 0,0.126269 0.02976,0.02976 0.09651,-0.02976 0.126269,0 0.0196,0.0196 -0.01638,0.329673 0,0.378807 0.02976,0.08929 0.09651,0.163253 0.126269,0.252538 0.02662,0.07986 -0.03765,0.177246 0,0.252539 0.02662,0.05324 0.09965,0.07303 0.126269,0.126269 0.03765,0.07529 -0.05952,0.193014 0,0.252538 0.02976,0.02976 0.09651,-0.02976 0.126269,0 0.02976,0.02976 -0.01882,0.08862 0,0.126269 0.02662,0.05324 0.09965,0.07303 0.12627,0.126269 0.01882,0.03765 -0.01882,0.08862 0,0.126269 0.02662,0.05324 0.09965,0.07303 0.126269,0.126269 0.01882,0.03765 -0.02976,0.09651 0,0.126269 0.02976,0.02976 0.08862,-0.01882 0.126269,0 0.525501,0.262751 -0.134986,-0.0087 0.126269,0.252538 0.02976,0.02976 0.09651,-0.02976 0.126269,0 0.02976,0.02976 -0.02976,0.09651 0,0.126269 0.02976,0.02976 0.09651,-0.02976 0.126269,0 0.261255,0.261256 -0.399233,-0.01021 0.126269,0.252538 0.03765,0.01882 0.08862,-0.01882 0.126269,0 0.151523,0.07576 0.227284,0.303046 0.378807,0.378808 0.03765,0.01882 0.09651,-0.02976 0.126269,0 0.02976,0.02976 -0.02976,0.09651 0,0.126269 0.261256,0.261255 -0.01021,-0.399233 0.252538,0.126269 0.03765,0.07529 -0.05952,0.193014 0,0.252538 0.05952,0.05952 0.193015,-0.05952 0.252539,0 0.02976,0.02976 -0.01882,0.08862 0,0.126269 0.02662,0.05324 0.09965,0.07303 0.126269,0.126269 0.01882,0.03765 -0.01882,0.08862 0,0.126269 0.02662,0.05324 0.09965,0.07303 0.126269,0.126269 0.01882,0.03765 -0.02976,0.09651 0,0.126269 0.05952,0.05952 0.193014,-0.05952 0.252538,0 0.02976,0.02976 -0.01882,0.08862 0,0.126269 0.02662,0.05324 0.08418,0.08418 0.126269,0.126269 0.04209,0.04209 0.07303,0.09965 0.126269,0.12627 0.03765,0.01882 0.08862,-0.01882 0.126269,0 0.05324,0.02662 0.08418,0.08418 0.126269,0.126269 0.04209,0.04209 0.09965,0.07303 0.126269,0.126269 0.01882,0.03765 -0.02976,0.09651 0,0.126269 0.02976,0.02976 0.08862,-0.01882 0.126269,0 0.05324,0.02662 0.07303,0.09965 0.126269,0.126269 0.03765,0.01882 0.09651,-0.02976 0.126269,0 0.02976,0.02976 -0.02976,0.09651 0,0.126269 0.02976,0.02976 0.09651,-0.02976 0.126269,0 0.02976,0.02976 -0.02976,0.09651 0,0.126269 0.06655,0.06655 0.17423,0.07406 0.252539,0.126269 0.04953,0.03302 0.08418,0.08418 0.126269,0.126269 0.252538,0.252538 0.505076,0.505076 0.757614,0.757614 0.04209,0.04209 0.08418,0.08418 0.126269,0.12627 0.04209,0.04209 0.07303,0.09965 0.126269,0.126269 0.03765,0.01882 0.09651,-0.02976 0.126269,0 0.02976,0.02976 -0.02976,0.09651 0,0.126269 0.02976,0.02976 0.08862,-0.01882 0.126269,0 0.525502,0.26275 -0.134986,-0.0087 0.126269,0.252538 0.02976,0.02976 0.08862,-0.01882 0.12627,0 0.05324,0.02662 0.07303,0.09965 0.126269,0.126269 0.03765,0.01882 0.09651,-0.02976 0.126269,0 0.261255,0.261255 -0.399233,-0.01021 0.126269,0.252538 0.03765,0.01882 0.08862,-0.01882 0.126269,0 0.05324,0.02662 0.07303,0.09965 0.126269,0.126269 0.03765,0.01882 0.09651,-0.02976 0.126269,0 0.02976,0.02976 -0.02976,0.09651 0,0.126269 0.06655,0.06655 0.174229,0.07406 0.252538,0.126269 0.04953,0.03302 0.0698,0.107446 0.126269,0.126269 0.07986,0.02662 0.177246,-0.03765 0.252538,0 0.03765,0.01882 -0.02976,0.09651 0,0.126269 0.02976,0.02976 0.09651,-0.02976 0.126269,0 0.02976,0.02976 -0.02976,0.09651 0,0.126269 0.02976,0.02976 0.09651,-0.02976 0.126269,0 0.02976,0.02976 0,0.08418 0,0.126269 0.08418,0 0.177246,-0.03765 0.252539,0 0.03765,0.01882 -0.02976,0.09651 0,0.12627 0.02976,0.02976 0.08862,-0.01882 0.126269,0 0.525501,0.26275 -0.134987,-0.0087 0.126269,0.252538 0.02581,0.02581 0.328742,-0.02503 0.378807,0 0.05324,0.02662 0.07303,0.09965 0.126269,0.126269 0.07529,0.03765 0.177246,-0.03765 0.252538,0 0.10648,0.05324 0.146059,0.199298 0.252538,0.252538 0.03765,0.01882 0.08862,-0.01882 0.126269,0 0.05324,0.02662 0.07303,0.09965 0.126269,0.126269 0.03765,0.01882 0.08862,-0.01882 0.126269,0 0.05324,0.02662 0.0698,0.107446 0.126269,0.126269 0.07986,0.02662 0.172679,-0.02662 0.252539,0 0.112938,0.03765 0.146058,0.199298 0.252538,0.252538 0.03765,0.01882 0.09651,-0.02976 0.126269,0 0.02976,0.02976 -0.02976,0.09651 0,0.126269 0.02976,0.02976 0.09651,-0.02976 0.126269,0 0.02976,0.02976 -0.03765,0.107446 0,0.126269 0.07529,0.03765 0.177246,-0.03765 0.252538,0 0.03765,0.01882 -0.02976,0.09651 0,0.126269 0.02976,0.02976 0.08862,-0.01882 0.126269,0 0.05324,0.02662 0.07303,0.09965 0.126269,0.126269 0.03765,0.01882 0.08862,-0.01882 0.126269,0 0.151523,0.07576 0.227285,0.303046 0.378807,0.378808 0.03765,0.01882 0.08862,-0.01882 0.12627,0 0.05324,0.02662 0.07303,0.09965 0.126269,0.126269 0.07529,0.03765 0.193014,-0.05952 0.252538,0 0.02976,0.02976 -0.03765,0.107446 0,0.126269 0.07529,0.03765 0.177246,-0.03765 0.252538,0 0.03765,0.01882 -0.02976,0.09651 0,0.126269 0.02976,0.02976 0.08862,-0.01882 0.126269,0 0.05324,0.02662 0.07303,0.09965 0.126269,0.126269 0.07529,0.03765 0.177246,-0.03765 0.252538,0 0.10648,0.05324 0.146059,0.199298 0.252538,0.252538 0.03765,0.01882 0.08862,-0.01882 0.126269,0 0.05324,0.02662 0.07303,0.09965 0.126269,0.126269 0.03765,0.01882 0.08862,-0.01882 0.126269,0 0.05324,0.02662 0.07674,0.09325 0.12627,0.126269 0.07831,0.05221 0.174229,0.07406 0.252538,0.126269 0.04953,0.03302 0.07674,0.09325 0.126269,0.126269 0.07831,0.05221 0.174229,0.07406 0.252538,0.126269 0.09905,0.06604 0.146059,0.199299 0.252538,0.252539 0.03765,0.01882 0.08862,-0.01882 0.126269,0 0.151523,0.07576 0.227284,0.303045 0.378807,0.378807 0.03765,0.01882 0.08862,-0.01882 0.126269,0 0.05324,0.02662 0.08418,0.08418 0.126269,0.126269 0.04209,0.04209 0.09965,0.07303 0.126269,0.126269 0.01882,0.03765 -0.02976,0.09651 0,0.126269 0.05952,0.05952 0.193015,-0.05952 0.252539,0 0.02976,0.02976 -0.02976,0.09651 0,0.126269 0.02976,0.02976 0.08862,-0.01882 0.126269,0 0.106479,0.05324 0.146058,0.199298 0.252538,0.252538 0.03765,0.01882 0.09651,-0.02976 0.126269,0 0.02976,0.02976 -0.03765,0.107446 0,0.126269 0.07529,0.03765 0.177246,-0.03765 0.252538,0 0.03765,0.01882 -0.02976,0.09651 0,0.126269 0.492795,0.492795 0.06781,-0.02923 0.378807,0.126269 0.05324,0.02662 0.07303,0.09965 0.126269,0.126269 0.03765,0.01882 0.08862,-0.01882 0.126269,0 0.05324,0.02662 0.09965,0.07303 0.126269,0.12627 0.01882,0.03765 -0.03765,0.107445 0,0.126269 0.07529,0.03765 0.172679,-0.02662 0.252539,0 0.05647,0.01882 0.07303,0.09965 0.126269,0.126269 0.03765,0.01882 0.09651,-0.02976 0.126269,0 0.02976,0.02976 -0.02976,0.09651 0,0.126269 0.02976,0.02976 0.09651,-0.02976 0.126269,0 0.02976,0.02976 -0.02976,0.09651 0,0.126269 0.02976,0.02976 0.08862,-0.01882 0.126269,0 0.05324,0.02662 0.07303,0.09965 0.126269,0.126269 0.03765,0.01882 0.09651,-0.02976 0.126269,0 0.02976,0.02976 -0.02976,0.09651 0,0.126269 0.02976,0.02976 0.08862,-0.01882 0.126269,0 0.05324,0.02662 0.07303,0.09965 0.126269,0.126269 0.03765,0.01882 0.09651,-0.02976 0.126269,0 0.02976,0.02976 -0.02976,0.09651 0,0.126269 0.02976,0.02976 0.08862,-0.01882 0.126269,0 0.05324,0.02662 0.07303,0.09965 0.126269,0.126269 0.03765,0.01882 0.09651,-0.02976 0.126269,0 0.02976,0.02976 -0.02976,0.09651 0,0.126269 0.05952,0.05952 0.177246,-0.03765 0.252539,0 0.525501,0.262751 -0.134987,-0.0087 0.126269,0.252538 0.02976,0.02976 0.08862,-0.01882 0.126269,0 0.05324,0.02662 0.07303,0.09965 0.126269,0.126269 0.03765,0.01882 0.09651,-0.02976 0.126269,0 0.02976,0.02976 -0.02976,0.09651 0,0.126269 0.02976,0.02976 0.08862,-0.01882 0.126269,0 0.03353,0.01676 0.362044,0.345282 0.378807,0.378808 0.01882,0.03765 -0.02976,0.09651 0,0.126269 0.02976,0.02976 0.08862,-0.01882 0.126269,0 0.525502,0.262751 -0.134986,-0.0087 0.126269,0.252538 0.02976,0.02976 0.09651,-0.02976 0.126269,0 0.02976,0.02976 -0.02976,0.09651 0,0.126269 0.02976,0.02976 0.09651,-0.02976 0.126269,0 0.02976,0.02976 -0.02976,0.09651 0,0.126269 0.02976,0.02976 0.09651,-0.02976 0.126269,0 0.04293,0.04293 -0.04293,0.20961 0,0.252538 0.02976,0.02976 0.08862,-0.01882 0.12627,0 0.05324,0.02662 0.08418,0.08418 0.126269,0.126269 0.04209,0.04209 0.09965,0.07303 0.126269,0.126269 0.01882,0.03765 -0.01882,0.08862 0,0.126269 0.02662,0.05324 0.09965,0.07303 0.126269,0.126269 0.01882,0.03765 -0.02976,0.09651 0,0.126269 0.02976,0.02976 0.09651,-0.02976 0.126269,0 0.02976,0.02976 -0.02976,0.09651 0,0.12627 0.02976,0.02976 0.09651,-0.02976 0.126269,0 0.02976,0.02976 -0.02976,0.09651 0,0.126269 0.02976,0.02976 0.107446,-0.03765 0.126269,0 0.03765,0.07529 -0.04669,0.182496 0,0.252538 0.05221,0.07831 0.185988,0.05972 0.252538,0.126269 0.05952,0.05952 -0.05952,0.193014 0,0.252538 0.02976,0.02976 0.107446,-0.03765 0.126269,0 0.03765,0.07529 -0.03765,0.177246 0,0.252538 0.01882,0.03765 0.09651,-0.02976 0.126269,0 0.02976,0.02976 -0.01882,0.08862 0,0.126269 0.05324,0.10648 0.199299,0.146059 0.252538,0.252538 0.01882,0.03765 -0.01882,0.08862 0,0.126269 0.02662,0.05324 0.09325,0.07674 0.126269,0.126269 0.05221,0.07831 0.07406,0.17423 0.126269,0.252539 0.03302,0.04953 0.09965,0.07303 0.12627,0.126269 0.01882,0.03765 -0.02976,0.09651 0,0.126269 0.261255,0.261255 -0.01021,-0.399233 0.252538,0.126269 0.01882,0.03765 -0.01882,0.08862 0,0.126269 0.02662,0.05324 0.09965,0.07303 0.126269,0.126269 0.01882,0.03765 -0.01882,0.08862 0,0.126269 0.02662,0.05324 0.07303,0.09965 0.126269,0.126269 0.03765,0.01882 0.107446,-0.03765 0.126269,0 0.03765,0.07529 -0.03765,0.177246 0,0.252538 0.01882,0.03765 0.09651,-0.02976 0.126269,0 0.02976,0.02976 -0.01882,0.08862 0,0.126269 0.05324,0.10648 0.199298,0.146059 0.252538,0.252538 0.01882,0.03765 -0.02976,0.09651 0,0.126269 0.02976,0.02976 0.09651,-0.02976 0.126269,0 0.02976,0.02976 -0.01882,0.08862 0,0.12627 0.02662,0.05324 0.09965,0.07303 0.126269,0.126269 0.155498,0.310994 -0.366525,-0.113988 0.126269,0.378807 0.02976,0.02976 0.09651,-0.02976 0.126269,0 0.02976,0.02976 -0.01882,0.08862 0,0.126269 0.02662,0.05324 0.09965,0.07303 0.126269,0.126269 0.08708,0.17417 -0.152918,0.112944 0.126269,0.252538 0.03765,0.01882 0.09651,-0.02976 0.12627,0 0.0455,0.0455 -0.0455,0.207042 0,0.252538 0.02976,0.02976 0.09651,-0.02976 0.126269,0 0.02976,0.02976 -0.01882,0.08862 0,0.126269 0.26275,0.525502 -0.0087,-0.134986 0.252538,0.126269 0.02976,0.02976 -0.02976,0.09651 0,0.126269 0.02976,0.02976 0.09651,-0.02976 0.126269,0 0.02976,0.02976 -0.01882,0.08862 0,0.126269 0.02662,0.05324 0.09965,0.07303 0.126269,0.12627 0.01882,0.03765 -0.02976,0.09651 0,0.126269 0.02976,0.02976 0.09651,-0.02976 0.126269,0 0.04545,0.04545 -0.04545,0.207085 0,0.252538 0.02976,0.02976 0.09651,-0.02976 0.126269,0 0.02976,0.02976 -0.02976,0.09651 0,0.126269 0.02976,0.02976 0.09651,-0.02976 0.126269,0 0.02976,0.02976 -0.02976,0.09651 0,0.126269 0.02976,0.02976 0.09651,-0.02976 0.126269,0 0.02976,0.02976 -0.02976,0.09651 0,0.126269 0.02976,0.02976 0.09651,-0.02976 0.126269,0 0.261255,0.261255 -0.399232,-0.01021 0.126269,0.252538 0.03765,0.01882 0.09651,-0.02976 0.126269,0 0.02976,0.02976 -0.02976,0.09651 0,0.126269 0.02976,0.02976 0.09651,-0.02976 0.126269,0 0.02976,0.02976 -0.02976,0.09651 0,0.126269 0.02976,0.02976 0.09651,-0.02976 0.12627,0 0.02976,0.02976 -0.02976,0.09651 0,0.126269 0.02976,0.02976 0.09651,-0.02976 0.126269,0 0.02976,0.02976 -0.02976,0.09651 0,0.126269 0.02976,0.02976 0.09651,-0.02976 0.126269,0 0.02976,0.02976 -0.02976,0.09651 0,0.126269 0.02976,0.02976 0.09651,-0.02976 0.126269,0 0.02976,0.02976 -0.02976,0.09651 0,0.12627 0.02976,0.02976 0.09651,-0.02976 0.126269,0 0.02976,0.02976 -0.02976,0.09651 0,0.126269 0.02976,0.02976 0.09651,-0.02976 0.126269,0 0.06655,0.06655 0.05972,0.185988 0.126269,0.252538 0.02976,0.02976 0.09651,-0.02976 0.126269,0 0.02976,0.02976 -0.02976,0.09651 0,0.126269 0.02976,0.02976 0.09651,-0.02976 0.126269,0 0.261255,0.261255 -0.399232,-0.01021 0.126269,0.252538 0.03765,0.01882 0.09651,-0.02976 0.126269,0 0.02976,0.02976 -0.02976,0.09651 0,0.126269 0.02976,0.02976 0.09651,-0.02976 0.126269,0 0.02976,0.02976 -0.02976,0.09651 0,0.126269 0.02976,0.02976 0.09651,0.02976 0.126269,0 0.02976,-0.02976 0,-0.08418 0,-0.126269 0,-0.04209 0,-0.08418 0,-0.126269 0,-0.505076 0,-1.010153 0,-1.515229 0,-0.04209 0,-0.08418 0,-0.126269 0,-0.04209 0.02976,-0.09651 0,-0.126269 -0.02976,-0.02976 -0.09651,0.02976 -0.126269,0 -0.02976,-0.02976 0.02976,-0.09651 0,-0.126269 -0.06313,-0.06314 -0.315672,0.06313 -0.378807,0 -0.02976,-0.02976 0.02976,-0.09651 0,-0.126269 -0.0057,-0.0057 -0.57181,0 -0.631345,0 -0.04209,0 -0.09651,0.02976 -0.126269,0 -0.02976,-0.02976 0.02976,-0.09651 0,-0.126269 -0.02976,-0.02976 -0.08862,0.01882 -0.126269,0 -0.05324,-0.02662 -0.07303,-0.09965 -0.126269,-0.126269 -0.08722,-0.04361 -0.587023,0.04432 -0.631346,0 -0.02976,-0.02976 0,-0.08418 0,-0.126269"
       id="path2991"
       inkscape:connector-curvature="0"
       transform="translate(0,1012.3622)" />
    <path
       style="fill:none;stroke:#ffffff;stroke-width:1px;stroke-linecap:butt;stroke-linejoin:miter;stroke-opacity:1"
       d="m 38.764604,1.235396 c -1.271762,-0.27713837 -0.205267,0.4578051 -0.378807,0.6313454 -0.02976,0.029762 -0.09651,-0.029762 -0.126269,0 -0.02976,0.029762 0.01331,0.086339 0,0.126269 -0.02976,0.089286 -0.05972,0.1859885 -0.126269,0.2525382 -0.02976,0.029762 -0.09651,-0.029762 -0.126269,0 -0.05952,0.059524 0.03765,0.1772458 0,0.2525381 -0.07576,0.1515229 -0.303046,0.2272843 -0.378808,0.3788072 -0.01882,0.037646 0.01882,0.088623 0,0.1262691 -0.02662,0.05324 -0.08418,0.084179 -0.126269,0.126269 -0.04209,0.04209 -0.07303,0.099649 -0.126269,0.1262691 -0.03765,0.018823 -0.08862,-0.018823 -0.126269,0 -0.525501,0.2627508 0.134986,-0.00872 -0.126269,0.2525381 -0.02976,0.029762 -0.09651,-0.029762 -0.126269,0 -0.02976,0.029762 0,0.084179 0,0.1262691 -0.08418,0 -0.172679,-0.02662 -0.252538,0 -0.275079,-0.047196 -0.04209,0.2104485 -0.126269,0.2525381 -0.07529,0.037646 -0.172679,-0.02662 -0.252538,0 -0.05647,0.018823 -0.07674,0.093251 -0.126269,0.1262691 -0.07831,0.052206 -0.17423,0.074063 -0.252539,0.1262691 -0.04953,0.033018 -0.07303,0.099649 -0.126269,0.1262691 -0.03765,0.018823 -0.09651,-0.029762 -0.126269,0 -0.06655,0.06655 -0.05972,0.1859884 -0.126269,0.2525381 -0.02976,0.029762 -0.08862,-0.018823 -0.126269,0 -0.106479,0.05324 -0.139599,0.214892 -0.252538,0.2525381 -0.07986,0.02662 -0.177246,-0.037646 -0.252538,0 -0.03765,0.018823 0.01882,0.088623 0,0.1262691 -0.02662,0.05324 -0.07674,0.093251 -0.126269,0.1262691 -0.156618,0.1044116 -0.348459,0.1481264 -0.505076,0.2525381 -0.185802,0.1238677 -0.319275,0.3812086 -0.505077,0.5050763 -0.07831,0.052206 -0.185988,0.059719 -0.252538,0.126269 -0.02976,0.029762 0.02976,0.096507 0,0.1262691 -0.02976,0.029762 -0.08862,-0.018823 -0.126269,0 -0.05324,0.02662 -0.07303,0.099649 -0.126269,0.1262691 -0.03765,0.018823 -0.09651,-0.029762 -0.126269,0 -0.02976,0.029762 0.02976,0.096507 0,0.126269 -0.02976,0.029762 -0.09651,-0.029762 -0.126269,0 -0.02976,0.029762 0.01882,0.088623 0,0.1262691 -0.02662,0.05324 -0.08418,0.084179 -0.126269,0.1262691 -0.04209,0.04209 -0.07303,0.099649 -0.126269,0.1262691 -0.03765,0.018823 -0.09651,-0.029762 -0.126269,0 -0.02976,0.029762 0.02976,0.096507 0,0.126269 -0.02976,0.029762 -0.09651,-0.029762 -0.126269,0 -0.05952,0.059524 0.05952,0.1930143 0,0.2525382 -0.02976,0.029762 -0.09651,-0.029762 -0.126269,0 -0.02976,0.029762 0.02976,0.096507 0,0.126269 -0.02976,0.029762 -0.08862,-0.018823 -0.126269,0 -0.05324,0.02662 -0.08418,0.084179 -0.12627,0.1262691 -0.04209,0.04209 -0.09965,0.073029 -0.126269,0.1262691 -0.01882,0.037646 0.02976,0.096507 0,0.126269 -0.02976,0.029762 -0.09651,-0.029762 -0.126269,0 -0.02976,0.029762 0.02976,0.096507 0,0.1262691 -0.02976,0.029762 -0.08862,-0.018823 -0.126269,0 -0.05324,0.02662 -0.07303,0.099649 -0.126269,0.1262691 -0.03765,0.018823 -0.09651,-0.029762 -0.126269,0 -0.02976,0.029762 0.01882,0.088623 0,0.126269 -0.262751,0.5255017 0.0087,-0.1349861 -0.252538,0.1262691 -0.02976,0.029762 0.02976,0.096507 0,0.1262691 -0.06313,0.063134 -0.315673,-0.063135 -0.378807,0 -0.02976,0.029762 0.02976,0.096507 0,0.126269 -0.02976,0.029762 -0.09651,-0.029762 -0.126269,0 -0.02976,0.029762 0.02976,0.096507 0,0.1262691 -0.02976,0.029762 -0.08862,-0.018823 -0.126269,0 -0.525502,0.2627508 0.134986,-0.00872 -0.126269,0.2525381 -0.02976,0.029762 -0.08862,-0.018823 -0.12627,0 -0.05324,0.02662 -0.08418,0.084179 -0.126269,0.1262691 -0.04209,0.04209 -0.09965,0.073029 -0.126269,0.1262691 -0.01882,0.037646 0.02976,0.096507 0,0.126269 -0.02976,0.029762 -0.09651,-0.029762 -0.126269,0 -0.02976,0.029762 0,0.084179 0,0.1262691 -0.04209,0 -0.08862,-0.018823 -0.126269,0 -0.05324,0.02662 -0.08418,0.084179 -0.126269,0.1262691 -0.04209,0.04209 -0.09965,0.073029 -0.126269,0.1262691 -0.01882,0.037646 0.03765,0.1074459 0,0.126269 -0.07529,0.037646 -0.177246,-0.037646 -0.252538,0 -0.03765,0.018823 0.01882,0.088623 0,0.1262691 -0.0967,0.1933909 -0.225014,0.098745 -0.378807,0.2525381 -0.02976,0.029762 0.02976,0.096507 0,0.1262693 -0.02976,0.02976 -0.08862,-0.01882 -0.126269,0 -0.05324,0.02662 -0.07674,0.09325 -0.126269,0.126269 -0.07831,0.05221 -0.185989,0.05972 -0.252539,0.126269 -0.02976,0.02976 0.02976,0.09651 0,0.126269 -0.02976,0.02976 -0.08862,-0.01882 -0.126269,0 -0.05324,0.02662 -0.08418,0.08418 -0.126269,0.126269 -0.04209,0.04209 -0.09965,0.07303 -0.126269,0.126269 0,0.336718 0.04209,-0.04209 -0.126269,0.126269 -0.02976,0.02976 0.02976,0.09651 0,0.126269 -0.06655,0.06655 -0.185988,0.05972 -0.252538,0.126269 -0.02976,0.02976 0.02976,0.09651 0,0.126269 -0.02976,0.02976 -0.09651,-0.02976 -0.126269,0 -0.02976,0.02976 0.02976,0.09651 0,0.126269 -0.06655,0.06655 -0.174229,0.07406 -0.252538,0.12627 -0.09905,0.06603 -0.146059,0.199298 -0.252538,0.252538 -0.03765,0.01882 -0.09651,-0.02976 -0.126269,0 -0.02976,0.02976 0.02976,0.09651 0,0.126269 -0.02976,0.02976 -0.09651,-0.02976 -0.126269,0 -0.02976,0.02976 0.02976,0.09651 0,0.126269 -0.02976,0.02976 -0.09651,-0.02976 -0.12627,0 -0.02976,0.02976 0.02976,0.09651 0,0.126269 -0.05952,0.05952 -0.193014,-0.05952 -0.252538,0 -0.02976,0.02976 0.02976,0.09651 0,0.126269 -0.02976,0.02976 -0.09651,-0.02976 -0.126269,0 -0.02976,0.02976 0.01882,0.08862 0,0.126269 -0.02662,0.05324 -0.08418,0.08418 -0.126269,0.126269 -0.04209,0.04209 -0.07303,0.09965 -0.126269,0.126269 -0.03765,0.01882 -0.09651,-0.02976 -0.126269,0 -0.02976,0.02976 0.01331,0.08634 0,0.126269 -0.02976,0.08929 -0.08418,0.168359 -0.126269,0.252538 -0.04209,0.08418 -0.07406,0.17423 -0.126269,0.252539 -0.06604,0.09905 -0.199298,0.146058 -0.252538,0.252538 -0.03765,0.07529 0.03765,0.177245 0,0.252538 -0.02662,0.05324 -0.09965,0.07303 -0.126269,0.126269 -0.01882,0.03765 0.01882,0.08862 0,0.126269 -0.02662,0.05324 -0.09965,0.07303 -0.126269,0.126269 -0.04027,0.08054 0.03376,0.597588 0,0.631345 -0.02976,0.02976 -0.09651,-0.02976 -0.126269,0 -0.03039,0.03039 0.03038,0.474692 0,0.505077 -0.02976,0.02976 -0.09651,-0.02976 -0.126269,0 -0.02976,0.02976 0.02976,0.09651 0,0.126269 -0.05952,0.05952 -0.193015,-0.05952 -0.252539,0 -0.02976,0.02976 0.01882,0.08862 0,0.126269 -0.02662,0.05324 -0.09965,0.07303 -0.126269,0.126269 -0.01882,0.03765 0.02976,0.09651 0,0.126269 -0.02976,0.02976 -0.09651,-0.02976 -0.126269,0 -0.02976,0.02976 0.02976,0.09651 0,0.126269 -0.02976,0.02976 -0.08862,-0.01882 -0.126269,0 -0.05324,0.02662 -0.08418,0.08418 -0.126269,0.126269 -0.04209,0.04209 -0.09965,0.07303 -0.126269,0.126269 0,0.336718 0.04209,-0.04209 -0.126269,0.126269 -0.02976,0.02976 0.02976,0.09651 0,0.126269 -0.06655,0.06655 -0.185989,0.05972 -0.252538,0.126269 -0.02976,0.02976 0.01882,0.08862 0,0.126269 -0.07576,0.151523 -0.303046,0.227285 -0.378807,0.378808 -0.01882,0.03765 0.02976,0.09651 0,0.126269 -0.02976,0.02976 -0.09651,-0.02976 -0.126269,0 -0.02976,0.02976 0.01882,0.08862 0,0.126269 -0.02662,0.05324 -0.09965,0.07303 -0.126269,0.126269 -0.03765,0.07529 0.03765,0.177246 0,0.252538 -0.262751,0.525502 0.0087,-0.134986 -0.252539,0.126269 -0.05952,0.05952 0.05952,0.193014 0,0.252538 -0.02976,0.02976 -0.09651,-0.02976 -0.126269,0 -0.02976,0.02976 0.01882,0.08862 0,0.126269 -0.02662,0.05324 -0.09965,0.07303 -0.126269,0.126269 -0.08709,0.17417 0.152919,0.112944 -0.126269,0.252538 -0.03765,0.01882 -0.09651,-0.02976 -0.126269,0 -0.02976,0.02976 0.01882,0.08862 0,0.126269 -0.02662,0.05324 -0.09965,0.07303 -0.126269,0.12627 -0.01882,0.03765 0.02976,0.09651 0,0.126269 -0.02976,0.02976 -0.09651,-0.02976 -0.126269,0 -0.02976,0.02976 0.02976,0.09651 0,0.126269 -0.02976,0.02976 -0.09651,-0.02976 -0.126269,0 -0.02976,0.02976 0.01882,0.08862 0,0.126269 -0.05324,0.106479 -0.199299,0.146058 -0.252538,0.252538 -0.01882,0.03765 0.02976,0.09651 0,0.126269 -0.02976,0.02976 -0.09651,-0.02976 -0.126269,0 -0.02976,0.02976 0.02976,0.09651 0,0.126269 -0.05952,0.05952 -0.193015,-0.05952 -0.252538,0 -0.02976,0.02976 0.02976,0.09651 0,0.126269 -0.02976,0.02976 -0.09651,-0.02976 -0.12627,0 -0.02976,0.02976 0.02976,0.09651 0,0.126269 -0.02976,0.02976 -0.09651,-0.02976 -0.126269,0 -0.02976,0.02976 0.02976,0.09651 0,0.126269 -0.05952,0.05952 -0.193014,-0.05952 -0.252538,0 -0.02976,0.02976 0.02976,0.09651 0,0.126269 -0.05952,0.05952 -0.193014,-0.05952 -0.252538,0 -0.02976,0.02976 0.02976,0.09651 0,0.126269 -0.02976,0.02976 -0.08862,-0.01882 -0.126269,0 -0.106479,0.05324 -0.146059,0.199299 -0.252538,0.252538 -0.03765,0.01882 -0.09651,-0.02976 -0.126269,0 -0.02976,0.02976 0.02976,0.09651 0,0.12627 -0.05952,0.05952 -0.193014,-0.05952 -0.252538,0 -0.02976,0.02976 0.02976,0.09651 0,0.126269 -0.261255,0.261255 0.01021,-0.399233 -0.252538,0.126269 -0.01882,0.03765 0.02976,0.09651 0,0.126269 -0.05952,0.05952 -0.177246,-0.03765 -0.252539,0 -0.05324,0.02662 -0.07303,0.09965 -0.126269,0.126269 -0.03765,0.01882 -0.09651,-0.02976 -0.126269,0 -0.02976,0.02976 0.02976,0.09651 0,0.126269 -0.02976,0.02976 -0.09651,-0.02976 -0.126269,0 -0.02976,0.02976 0.02976,0.09651 0,0.126269 -0.05952,0.05952 -0.193014,-0.05952 -0.252538,0 -0.05952,0.05952 0.05952,0.193014 0,0.252538 -0.02976,0.02976 -0.08862,-0.01882 -0.126269,0 -0.169661,0.08483 -0.08288,0.167707 -0.252538,0.252538 -0.03765,0.01882 -0.09651,-0.02976 -0.126269,0 -0.02976,0.02976 0.01882,0.08862 0,0.126269 -0.02662,0.05324 -0.09965,0.07303 -0.126269,0.126269 -0.01882,0.03765 0.02976,0.09651 0,0.126269 -0.02976,0.02976 -0.08862,-0.01882 -0.126269,0 -0.05324,0.02662 -0.08418,0.08418 -0.126269,0.126269 -0.04209,0.04209 -0.09965,0.07303 -0.126269,0.12627 -0.01882,0.03765 0.02976,0.09651 0,0.126269 -0.02976,0.02976 -0.09651,-0.02976 -0.126269,0 -0.02976,0.02976 0.01882,0.08862 0,0.126269 -0.07576,0.151523 -0.303046,0.227284 -0.378808,0.378807 -0.01882,0.03765 0.02976,0.09651 0,0.126269 -0.02976,0.02976 -0.09651,-0.02976 -0.126269,0 -0.02976,0.02976 0.02976,0.09651 0,0.126269 -0.02976,0.02976 -0.09651,-0.02976 -0.126269,0 -0.05952,0.05952 0.05952,0.193014 0,0.252538 -0.02976,0.02976 -0.09651,-0.02976 -0.126269,0 -0.02976,0.02976 0.02976,0.09651 0,0.126269 -0.02976,0.02976 -0.09651,-0.02976 -0.126269,0 -0.02976,0.02976 0.02976,0.09651 0,0.126269 -0.02976,0.02976 -0.09651,-0.02976 -0.126269,0 -0.02976,0.02976 0.02976,0.09651 0,0.126269 -0.02976,0.02976 -0.09651,-0.02976 -0.126269,0 -0.02976,0.02976 0.02976,0.09651 0,0.126269 -0.02976,0.02976 -0.08862,-0.01882 -0.126269,0 -0.05324,0.02662 -0.07303,0.09965 -0.126269,0.12627 -0.07529,0.03765 -0.193015,-0.05952 -0.252538,0 -0.02976,0.02976 0.02976,0.09651 0,0.126269 -0.05952,0.05952 -0.193015,-0.05952 -0.252539,0 -0.02976,0.02976 0.02976,0.09651 0,0.126269 -0.02976,0.02976 -0.09651,-0.02976 -0.126269,0 -0.02976,0.02976 0.02976,0.09651 0,0.126269 -0.05952,0.05952 -0.193014,-0.05952 -0.252538,0 -0.02976,0.02976 0.02976,0.09651 0,0.126269 -0.02976,0.02976 -0.09651,-0.02976 -0.126269,0 -0.02976,0.02976 0.02976,0.09651 0,0.126269 -0.02976,0.02976 -0.09651,-0.02976 -0.126269,0 -0.05952,0.05952 0.05952,0.193014 0,0.252538 -0.02976,0.02976 -0.09651,-0.02976 -0.126269,0 -0.02976,0.02976 0.02976,0.09651 0,0.126269 -0.02976,0.02976 -0.09651,-0.02976 -0.126269,0 -0.05952,0.05952 0.05952,0.193014 0,0.252538 -0.02976,0.02976 -0.08862,-0.01882 -0.126269,0 -0.525502,0.262751 0.134986,-0.0087 -0.126269,0.252538 -0.02976,0.02976 -0.08634,-0.01331 -0.126269,0 -0.08929,0.02976 -0.17423,0.07406 -0.252538,0.126269 -0.17303,-0.08972 -0.11425,0.240519 -0.126269,0.252539 -0.05952,0.05952 -0.177246,-0.03765 -0.252539,0 -0.106479,0.05324 -0.146058,0.199298 -0.252538,0.252538 -0.03765,0.01882 -0.08862,-0.01882 -0.126269,0 -0.05324,0.02662 -0.07303,0.09965 -0.126269,0.126269 -0.03765,0.01882 -0.08862,-0.01882 -0.126269,0 -0.05324,0.02662 -0.07303,0.09965 -0.126269,0.126269 -0.03765,0.01882 -0.09651,-0.02976 -0.126269,0 -0.02976,0.02976 0.02976,0.09651 0,0.126269 -0.02976,0.02976 -0.08634,-0.01331 -0.126269,0 -0.91462,0.304873 0.199077,-0.0364 -0.378807,0.252538 -0.03765,0.01882 -0.08862,-0.01882 -0.126269,0 -0.05324,0.02662 -0.07303,0.09965 -0.126269,0.126269 -0.03765,0.01882 -0.09651,-0.02976 -0.12627,0 -0.02976,0.02976 0.02976,0.09651 0,0.126269 -0.02976,0.02976 -0.08862,-0.01882 -0.126269,0 -0.05324,0.02662 -0.07303,0.09965 -0.126269,0.126269 -0.03765,0.01882 -0.08862,-0.01882 -0.126269,0 -0.05324,0.02662 -0.07303,0.09965 -0.126269,0.126269 -0.07529,0.03765 -0.177246,-0.03765 -0.252538,0 -0.05324,0.02662 -0.07303,0.09965 -0.126269,0.126269 -0.03765,0.01882 -0.08862,-0.01882 -0.126269,0 -0.106479,0.05324 -0.146059,0.199299 -0.252538,0.252539 -0.03765,0.01882 -0.08862,-0.01882 -0.126269,0 -0.05324,0.02662 -0.07303,0.09965 -0.126269,0.126269 -0.03765,0.01882 -0.08862,-0.01882 -0.126269,0 -0.05324,0.02662 -0.07303,0.09965 -0.126269,0.126269 -0.03765,0.01882 -0.09651,-0.02976 -0.12627,0 -0.02976,0.02976 0.02976,0.09651 0,0.126269 -0.02976,0.02976 -0.08862,-0.01882 -0.1262686,0 -0.05324,0.02662 -0.073029,0.09965 -0.1262691,0.126269 -0.037646,0.01882 -0.088623,-0.01882 -0.126269,0 -0.1064795,0.05324 -0.1460587,0.199298 -0.2525382,0.252538 -0.037646,0.01882 -0.096507,-0.02976 -0.126269,0 -0.029762,0.02976 0.029762,0.09651 0,0.126269 -0.029762,0.02976 -0.088623,-0.01882 -0.1262691,0 -0.05324,0.02662 -0.073029,0.09965 -0.1262691,0.126269 -0.075292,0.03765 -0.1930143,-0.05952 -0.2525381,0 -0.029762,0.02976 0.029762,0.09651 0,0.126269 -0.059524,0.05952 -0.1772458,-0.03765 -0.2525382,0 -0.1064794,0.05324 -0.1460587,0.199299 -0.2525381,0.252538 -0.037646,0.01882 -0.096507,-0.02976 -0.1262691,0 -0.029762,0.02976 0.029762,0.09651 0,0.126269 -0.025814,0.02581 -0.3287425,-0.02503 -0.3788072,0 -0.05324,0.02662 -0.073029,0.09965 -0.126269,0.126269 -0.037646,0.01882 -0.088623,-0.01882 -0.1262691,0 -0.038603,0.0193 -0.2139352,0.233237 -0.2525381,0.252539 -0.075292,0.03765 -0.1772458,-0.03765 -0.2525382,0 -0.05324,0.02662 -0.0698,0.107446 -0.126269,0.126269 -5.723e-4,1.9e-4 -0.3786867,-1.21e-4 -0.3788072,0 -0.029762,0.02976 0.037646,0.107446 0,0.126269 -0.046107,0.02305 -0.6067682,-0.02458 -0.6313454,0 -0.029762,0.02976 0.029762,0.09651 0,0.126269 -0.029762,0.02976 -0.088623,-0.01882 -0.1262691,0 -0.05324,0.02662 -0.073029,0.09965 -0.126269,0.126269 -0.075292,0.03765 -0.1930144,-0.05952 -0.2525382,0 -0.029762,0.02976 0.029762,0.09651 0,0.126269 -0.063134,0.06313 -0.3156726,-0.06314 -0.3788072,0 -0.029762,0.02976 0.029762,0.09651 0,0.126269 -0.059524,0.05952 -0.1930143,-0.05952 -0.2525381,0 -0.041552,0.04155 0.041552,0.210986 0,0.252538 -0.029762,0.02976 -0.096507,-0.02976 -0.1262691,0 -0.029762,0.02976 0.029762,0.09651 0,0.126269 -0.059524,0.05952 -0.1930143,-0.05952 -0.2525381,0 -0.029762,0.02976 0.029762,0.09651 0,0.126269 -0.029762,0.02976 -0.096507,-0.02976 -0.1262691,0 -0.029762,0.02976 0.029762,0.09651 0,0.126269 -0.029762,0.02976 -0.096507,-0.02976 -0.126269,0 -0.029762,0.02976 0.029762,0.09651 0,0.126269 -0.059524,0.05952 -0.1772459,-0.03765 -0.2525382,0 -0.05324,0.02662 -0.073029,0.09965 -0.126269,0.126269 -0.037646,0.01882 -0.084179,0 -0.1262691,0 -0.04209,0 -0.084179,0 -0.1262691,0 -0.04209,0 -0.096507,-0.02976 -0.1262691,0 -0.029762,0.02976 0.029762,0.09651 0,0.126269 -0.029762,0.02976 -0.096507,0.02976 -0.126269,0 -0.029762,-0.02976 0.029762,-0.09651 0,-0.126269 -0.029762,-0.02976 -0.084179,0 -0.1262691,0 -0.04209,0 -0.096507,-0.02976 -0.1262691,0 -0.059524,0.05952 0.059524,0.193015 0,0.252539 -0.029762,0.02976 -0.096507,-0.02976 -0.126269,0 -0.029762,0.02976 0.029762,0.09651 0,0.126269 -0.045496,0.0455 -0.2070418,-0.0455 -0.2525382,0 -0.029762,0.02976 0.029762,0.09651 0,0.126269 -0.2612552,0.261255 0.010213,-0.399233 -0.2525381,0.126269 -0.037646,0.07529 0.059524,0.193014 0,0.252538 -0.029762,0.02976 -0.096507,-0.02976 -0.1262691,0 -0.063134,0.06313 0.063135,0.315673 0,0.378807 -0.059524,0.05952 -0.1930143,-0.05952 -0.2525381,0 -0.029762,0.02976 0.029762,0.09651 0,0.126269 -0.059524,0.05952 -0.1930143,-0.05952 -0.2525381,0 -0.059524,0.05952 0.059524,0.193014 0,0.252538 -0.029762,0.02976 -0.096507,-0.02976 -0.1262691,0 -0.063135,0.06314 0.063134,0.315673 0,0.378808 -0.029762,0.02976 -0.096507,-0.02976 -0.1262691,0 -0.029762,0.02976 0.018823,0.08862 0,0.126269 -0.02662,0.05324 -0.099649,0.07303 -0.126269,0.126269 -0.018823,0.03765 0.029762,0.09651 0,0.126269 -0.029762,0.02976 -0.096507,-0.02976 -0.1262691,0 -0.029762,0.02976 0.029762,0.09651 0,0.126269 -0.029762,0.02976 -0.096507,-0.02976 -0.1262691,0 -0.059524,0.05952 0.059524,0.193014 0,0.252538 -0.029762,0.02976 -0.096507,-0.02976 -0.1262691,0 -0.0297619,0.02976 0.029762,0.09651 0,0.126269 -0.0297619,0.02976 -0.0965071,-0.02976 -0.12626902,0 -0.0297619,0.02976 0.0188231,0.08862 0,0.126269 -0.0266199,0.05324 -0.0996492,0.07303 -0.12626907,0.126269 -0.0228316,0.04566 0,0.54352 0,0.631345 0,0.04209 0.0297619,0.09651 0,0.12627 -0.0297619,0.02976 -0.0965072,-0.02976 -0.12626907,0 -0.0297619,0.02976 0.0188231,0.08862 0,0.126269 -0.0266199,0.05324 -0.0996492,0.07303 -0.12626907,0.126269 -0.0188231,0.03765 0,0.08418 0,0.126269 0,0.04209 0,0.08418 0,0.126269"
       id="path3761"
       inkscape:connector-curvature="0"
       transform="translate(0,1012.3622)" />
  </g>
</svg>
