<?xml version="1.0" encoding="UTF-8" standalone="no"?>
<!-- Created with Inkscape (http://www.inkscape.org/) -->

<svg
   xmlns:dc="http://purl.org/dc/elements/1.1/"
   xmlns:cc="http://creativecommons.org/ns#"
   xmlns:rdf="http://www.w3.org/1999/02/22-rdf-syntax-ns#"
   xmlns:svg="http://www.w3.org/2000/svg"
   xmlns="http://www.w3.org/2000/svg"
   xmlns:sodipodi="http://sodipodi.sourceforge.net/DTD/sodipodi-0.dtd"
   xmlns:inkscape="http://www.inkscape.org/namespaces/inkscape"
   inkscape:version="0.48.4 r9939"
   version="1.1"
   id="svg2"
   height="1000"
   width="1000"
   sodipodi:docname="New document 1">
  <sodipodi:namedview
     id="base"
     pagecolor="#ffffff"
     bordercolor="#666666"
     borderopacity="1.0"
     inkscape:pageopacity="0.0"
     inkscape:pageshadow="2"
     inkscape:zoom="0.49497475"
     inkscape:cx="448.60508"
     inkscape:cy="500.31904"
     inkscape:document-units="px"
     inkscape:current-layer="layer1"
     showgrid="false"
     inkscape:window-width="1600"
     inkscape:window-height="837"
     inkscape:window-x="-8"
     inkscape:window-y="-8"
     inkscape:window-maximized="1" />
  <defs
     id="defs4" />
  <metadata
     id="metadata7">
    <rdf:RDF>
      <cc:Work
         rdf:about="">
        <dc:format>image/svg+xml</dc:format>
        <dc:type
           rdf:resource="http://purl.org/dc/dcmitype/StillImage" />
        <dc:title></dc:title>
      </cc:Work>
    </rdf:RDF>
  </metadata>
  <g
     transform="translate(0,-52.362183)"
     id="layer1"
     inkscape:groupmode="layer"
     inkscape:label="Layer 1">
    <path
       id="path2985"
       d="m 987.9292,590.88824 c 0,213.67258 -173.21585,386.88843 -386.88843,386.88843 -213.67258,0 -386.88843,-173.21585 -386.88843,-386.88843 0,-213.67257 173.21585,-386.88842 386.88843,-386.88842 213.67258,0 386.88843,173.21585 386.88843,386.88842 z"
       style="stroke-width:3.54330707;stroke-linecap:round;stroke-linejoin:round;stroke-miterlimit:4"
       transform="matrix(1.2923623,0,0,1.2923623,-276.76241,-211.27947)" />
    <path
       sodipodi:nodetypes="sssssssssssssssss"
       inkscape:connector-curvature="0"
       id="path2985-1-7-4"
       d="m 913.89286,519.63734 c 0,53.3268 -56.24869,85.45544 -74.66019,131.66298 -18.4115,46.20754 -0.0224,111.42982 -32.94481,146.37649 -32.92239,34.94664 -152.62428,-31.62241 -196.15693,-12.07827 -43.53264,19.54415 -83.30747,136.22792 -133.53521,136.22792 -50.24228,0 -106.87311,-11.89093 -126.29184,-58.13599 -26.21343,-62.4264 -68.44232,-13.53925 -101.36471,-48.4859 -32.92238,-34.94665 -70.43201,-118.74035 -88.84351,-164.94789 -18.4115,-46.20755 -28.13137,-101.17613 -28.13137,-154.50292 0,-53.3268 47.01649,-74.54009 65.42799,-120.74763 18.4115,-46.20754 23.89376,-148.44984 75.4261,-193.3824 25.25522,-22.02076 74.39077,9.49999 122.30082,1.08619 40.269,-7.0719 41.22619,55.04583 91.45392,55.04583 50.24229,0 50.71659,-89.39751 94.24925,-69.85337 43.53264,19.54413 137.68908,3.59084 170.61145,38.53749 32.92239,34.94664 80.22449,120.54524 98.63599,166.75278 18.4115,46.20753 63.82305,93.11791 63.82305,146.44469 z"
       style="fill:#803300;stroke-width:3.54330707;stroke-linecap:round;stroke-linejoin:round;stroke-miterlimit:4" />
    <path
       sodipodi:nodetypes="sssssssssssssssss"
       inkscape:connector-curvature="0"
       id="path2985-1-7"
       d="m 867.5,538.89164 c 0,43.13442 -124.81429,24.60279 -140.62679,61.97866 -15.8125,37.37587 86.30179,128.87404 58.02679,157.14133 -28.275,28.26727 -175.51786,-62.01366 -212.90536,-46.205 -37.3875,15.80866 -57.78214,166.26984 -100.91964,166.26984 -43.15,0 -88.17833,-1.94008 -91.2875,-42.40232 -9.16786,-119.30894 -71.05,-38.68415 -99.325,-66.95143 -28.275,-28.26728 13.125,-122.62258 -2.6875,-159.99845 C 261.9625,571.3484 180,553.46313 180,510.32872 c 0,-43.13442 71.96071,-63.16998 87.77321,-100.54585 15.8125,-37.37587 9.41429,-93.87722 3.75179,-148.92223 -4.075,-39.76695 83.925,48.19344 113.625,20.52256 28.45,-26.51975 61.70893,37.19644 104.84643,37.19644 43.15,0 68.18036,-59.07812 105.56786,-43.26946 37.3875,15.80865 96.77321,-67.70939 125.04821,-39.44211 28.275,28.26727 52.95,152.9707 68.7625,190.34657 15.8125,37.37586 78.125,69.54259 78.125,112.677 z"
       style="fill:#ff0000;stroke-width:3.54330707;stroke-linecap:round;stroke-linejoin:round;stroke-miterlimit:4" />
    <path
       sodipodi:nodetypes="sssssssssssssssss"
       inkscape:connector-curvature="0"
       id="path2985-1"
       d="m 1054.2529,579.83428 c 0,53.41815 -172.2137,26.93006 -191.79132,73.21676 -19.57762,46.28669 124.53483,163.13737 89.52831,198.14389 -35.00652,35.00651 -257.97517,-177.64046 -304.26186,-158.06284 -46.28669,19.57762 -30.85256,306.75249 -84.27071,306.75249 -53.41814,0 -116.54251,-2.379 -113.01099,-52.51152 22.24783,-315.82362 -87.97047,-47.90687 -122.97699,-82.91339 -35.00652,-35.00652 16.25271,-151.85719 -3.32491,-198.14389 -19.57762,-46.28669 -121.04605,-68.43601 -121.04605,-121.85415 0,-53.41814 145.68425,-44.61638 165.26187,-90.90308 19.57762,-46.28669 -44.94636,-149.87262 -51.94487,-218.041 -5.05603,-49.24783 103.90126,59.68331 140.66333,25.41537 35.23273,-32.84236 28.64177,130.98414 82.05991,130.98414 53.41815,0 137.46961,-143.92938 183.7563,-124.35176 46.2867,19.57762 114.49997,-98.00534 149.50649,-62.99882 35.00652,35.00651 65.54656,189.44064 85.12418,235.72733 19.57762,46.28669 96.72731,86.12233 96.72731,139.54047 z"
       style="fill:#ffcc00;stroke-width:3.54330707;stroke-linecap:round;stroke-linejoin:round;stroke-miterlimit:4"
       transform="matrix(0.64618113,0,0,0.64618113,111.6188,170.54135)" />
    <g
       id="g4804">
      <path
         id="path4806"
         d="M1000.00004315 552.362214889C1000.00004315 617.333269234 987.607923731 679.409988971 965.058333114 736.35772588C941.913452405 794.808834805 908.067724328 847.856584833 865.937488757 893.08463609C810.147684452 952.976637511 739.830456678 999.156287834 660.596813231 1026.01257926C610.191498577 1043.09749119 556.17770882 1052.36223613 500.000021911 1052.36223613C474.347634648 1052.36223613 449.146442599 1050.4304398 424.533986955 1046.70438834C363.685088806 1037.49254336 306.434648642 1017.31390296 254.861051949 988.24685263C211.576846171 963.851730544 172.29126824 933.195832792 138.232979517 897.507820736C85.6723575896 842.432120243 45.5612346417 775.371756304 22.4155200546 700.842638299C7.8471945084 653.93268226 6.72782050515e-07 604.063853749 6.72782050515e-07 552.362214889C6.72782050515e-07 538.038087685 0.602341276156 523.854644634 1.78307532432 509.835832896C6.69957973509 451.462357641 21.6444935306 395.943323809 44.8889280385 345.007620203C80.8872585389 266.12420869 136.791394834 198.233586343 206.179531345 147.757559225C247.100412521 117.989884061 292.710920211 94.2788646522 341.69390085 77.9416546646C384.341747129 63.7173912349 429.546131487 55.0829204761 476.43770905 52.907587329C484.246364257 52.5453383412 492.101806726 52.3622065748 500.000021911 52.3622065748C545.376263441 52.3622065748 589.340728465 58.4067402653 631.132153523 69.7345441289C702.323124933 89.0312625315 767.208252805 123.659256751 822.024415991 169.855405357C882.485030035 220.808397117 930.696305004 285.834558262 961.608838777 359.884486289C986.340988471 419.129513509 1000.00004315 484.150742995 1000.00004315 552.362214889C1000.00004315 552.362214889 1000.00004315 552.362214889 1000.00004315 552.362214889"
         style="stroke-linejoin:round;opacity:1.0;fill-opacity:0.0;stroke-linecap:round;stroke-miterlimit:4;stroke-width:3.54330707;fill:#803300" />
      <path
         id="path4808"
         d="M987.699016985 547.687232762C987.699016985 610.994822201 969.041673198 668.793244832 947.083238383 724.206667897C924.614554918 780.908695547 898.230945138 835.695664142 857.41611322 879.454946648C804.893082388 935.783325009 727.520902867 965.856018143 653.38740134 991.667716511C606.142085608 1008.12604197 556.030427282 1023.7399235 503.73376271 1028.89208667C479.511967301 1031.66938115 455.580950541 1032.05844269 431.97137739 1028.86468429C372.637710405 1020.96881716 315.475785979 1001.97413539 268.49574167 970.453083683C227.650218147 940.624921895 187.944167063 921.332316679 154.048149586 885.750213488C104.292990791 833.550091637 64.5535096929 764.099251118 42.0841114754 693.616072828C27.5360802325 648.235287414 19.5113308975 599.549926899 19.0457223532 549.240090656C18.9170986785 535.306393391 19.368333951 521.489200133 20.3803917066 507.824108197C24.5945383444 450.171586549 44.1211058834 399.553373265 66.6751211759 349.293121603C100.161047319 275.077691735 148.862058429 202.279686865 215.699366867 152.595583622C254.382296446 123.934610623 300.496381609 108.113843988 349.326086442 92.9085497126C391.634097539 79.706052487 430.517454132 81.1790389795 477.8856249 79.3144677106C485.585023107 79.0039685782 493.184780359 78.595977817 500.717997961 78.1720153496C544.293187423 75.5719460077 582.776751706 71.648389446 623.945041591 83.7585206819C691.1848228 103.090583598 760.25156669 130.492680072 811.940045135 175.081757449C868.466627173 223.748127529 916.548020003 291.71320851 945.674691809 361.785652533C969.503891547 419.168180151 987.699016985 481.602145424 987.699016985 547.687232762C987.699016985 547.687232762 987.699016985 547.687232762 987.699016985 547.687232762"
         style="stroke-linejoin:round;opacity:1.0;fill-opacity:0.142857142857;stroke-linecap:round;stroke-miterlimit:4;stroke-width:3.54330707;fill:#803300" />
      <path
         id="path4810"
         d="M975.397990821 543.012250635C975.397990821 604.656375167 950.475422665 658.176500693 929.108143653 712.055609914C907.315657432 767.00855629 888.394165949 823.534743452 848.894737684 865.825257207C799.638480323 918.590012508 715.211349056 932.555748453 646.17798945 957.322853759C602.092672638 973.154592761 555.883145745 995.117610865 507.46750351 1005.42193721C484.676299954 1010.97652617 462.015458484 1013.68644557 439.408767825 1011.02498024C381.590332004 1004.44509097 324.516923316 986.634367828 282.130431392 952.659314736C243.723590122 917.398113246 203.597065886 909.468800566 169.863319655 873.99260624C122.913623993 824.668063031 83.5457847441 752.826745931 61.7527028961 686.389507356C47.2249659566 642.537892568 39.0226611222 595.036000049 38.0914440335 546.117966423C37.8341966842 532.574699097 38.1343266258 519.123755631 38.9777080888 505.812383497C42.4894969536 448.880815458 66.5977182361 403.163422721 88.4613143132 353.578623002C119.434836099 284.031174779 160.932722024 206.325787388 225.219202389 157.433608018C261.664180372 129.879337186 308.281843008 121.948823323 356.958272035 107.87544476C398.926447949 95.6947137392 431.488776777 107.275157483 479.33354075 105.721348092C486.923681958 105.462598815 494.267753993 104.829749059 501.435974011 103.981824124C543.210111406 98.7816854406 576.212774947 84.8900386266 616.757929659 97.7824972349C680.046520666 117.149904665 753.294880575 137.326103394 801.855674279 180.308109541C854.448224311 226.687857941 902.399735003 297.591858759 929.740544841 363.686818778C952.666794622 419.206846792 975.397990821 479.053547853 975.397990821 543.012250635C975.397990821 543.012250635 975.397990821 543.012250635 975.397990821 543.012250635"
         style="stroke-linejoin:round;opacity:1.0;fill-opacity:0.285714285714;stroke-linecap:round;stroke-miterlimit:4;stroke-width:3.54330707;fill:#803300" />
      <path
         id="path4812"
         d="M963.096964657 538.337268508C963.096964657 598.317928134 931.909172132 647.559756555 911.133048922 699.904551931C890.016759946 753.108417032 878.557386759 811.373822762 840.373362147 852.195567765C794.383878258 901.396700006 702.901795245 899.255478762 638.96857756 922.977991007C598.043259668 938.183143547 555.735864207 966.495298233 511.201244309 981.951787753C489.840632607 990.283671187 468.449966427 995.314448457 446.84615826 993.185276192C390.542953604 987.921364775 333.558060653 971.294600262 295.765121114 934.865545789C259.796962098 894.171304597 219.249964709 897.605284453 185.678489724 862.234998992C141.534257194 815.786034425 102.538059795 741.554240745 81.4212943169 679.162941885C66.9138516807 636.840497722 58.5339913469 590.522073199 57.1371657139 542.99584219C56.7512946899 529.843004803 56.9003193007 516.75831113 57.575024471 503.800658798C60.3844555629 447.590044366 89.0743305889 406.773472177 110.247507451 357.864124402C138.708624879 292.984657823 173.00338562 210.37188791 234.739037911 162.271632414C268.946064297 135.824063749 316.067304406 135.783802658 364.590457628 122.842339808C406.218798359 111.683374991 432.460099421 133.371275986 480.7814566 132.128228474C488.262340808 131.921229052 495.350727626 131.063520301 502.153950061 129.791632899C542.127035388 121.991424873 569.648798189 98.1316878073 609.570817727 111.806473788C668.908218533 131.209225732 746.33819446 144.159526715 791.771303423 185.534461633C840.429821448 229.627588353 888.251450002 303.470509007 913.806397872 365.587985022C935.829697698 419.245513434 963.096964657 476.504950283 963.096964657 538.337268508C963.096964657 538.337268508 963.096964657 538.337268508 963.096964657 538.337268508"
         style="stroke-linejoin:round;opacity:1.0;fill-opacity:0.428571428571;stroke-linecap:round;stroke-miterlimit:4;stroke-width:3.54330707;fill:#803300" />
      <path
         id="path4814"
         d="M950.795938492 533.662286381C950.795938492 591.9794811 913.342921599 636.943012416 893.157954192 687.753493949C872.717862459 739.208277774 868.720607569 799.212902071 831.85198661 838.565878324C789.129276194 884.203387505 690.592241434 865.955209072 631.75916567 888.633128255C593.993846698 903.211694333 555.588582669 937.872985602 514.934985109 958.481638294C495.004965261 969.590816207 474.88447437 976.942451343 454.283548695 975.345572144C399.495575203 971.397638581 342.599197989 955.954832697 309.399810835 917.071776842C275.870334073 870.944495947 234.902863531 885.74176834 201.493659793 850.477391744C160.154890396 806.904005819 121.530334846 730.281735559 101.089885738 671.936376414C86.6027374048 631.143102876 78.0453215716 586.008146349 76.1828873943 539.873717957C75.6683926956 527.111310509 75.6663119755 514.392866629 76.1723408533 501.788934098C78.2794141722 446.299273275 111.550942942 410.383521633 132.033700588 362.149625801C157.98241366 301.938140867 185.074049215 214.417988433 244.258873433 167.109656811C276.227948223 141.768790312 323.852765805 149.618781994 372.222643221 137.809234856C413.51114877 127.672036244 433.431422066 159.46739449 482.22937245 158.535108855C489.600999658 158.379859289 496.43370126 157.297291544 502.871926111 155.601441674C541.043959371 145.201164306 563.08482143 111.373336988 602.383705796 125.830450341C657.7699164 145.268546799 739.381508345 150.992950036 781.686932567 190.760813724C826.411418586 232.567318765 874.103165002 309.349159255 897.872250904 367.489151267C918.992600773 419.284180075 950.795938492 473.956352712 950.795938492 533.662286381C950.795938492 533.662286381 950.795938492 533.662286381 950.795938492 533.662286381"
         style="stroke-linejoin:round;opacity:1.0;fill-opacity:0.571428571429;stroke-linecap:round;stroke-miterlimit:4;stroke-width:3.54330707;fill:#803300" />
      <path
         id="path4816"
         d="M938.494912328 528.987304254C938.494912328 585.641034067 894.776671066 626.326268277 875.182859461 675.602435966C855.418964973 725.308138516 858.883828379 787.051981381 823.330611073 824.936188883C783.874674129 867.010075003 678.282687622 832.654939381 624.54975378 854.288265504C589.944433728 868.240245119 555.441301131 909.250672971 518.668725908 935.011488836C500.169297914 948.897961227 481.318982312 958.570454229 461.72093913 957.505868096C408.448196802 954.873912387 351.640335326 940.615065131 323.034500557 899.278007894C291.943706049 847.717687298 250.555762354 873.878252226 217.308829862 838.719784496C178.775523597 798.021977212 140.522609898 719.009230373 120.758477158 664.709810943C106.291623129 625.44570803 97.5566517963 581.494219499 95.2286090746 536.751593723C94.5854907013 524.379616214 94.4323046503 512.027422128 94.7696572355 499.777209399C96.1743727815 445.008502183 134.027555294 413.993571088 153.819893725 366.435127201C177.25620244 310.891623912 197.14471281 218.464088955 253.778708956 171.947681207C283.509832149 147.713516874 331.638227203 163.453761329 379.854828814 152.776129904C420.80349918 143.660697496 434.402744711 185.563512993 483.6772883 184.941989237C490.939658509 184.838489526 497.516674893 183.531062786 503.589902161 181.411250449C539.960883353 168.410903739 556.520844671 124.614986169 595.196593864 139.854426894C646.631614267 159.327867866 732.42482223 157.826373357 771.602561712 195.987165816C812.393015724 235.507049176 859.954880001 315.227809503 881.938103936 369.390317511C902.155503849 419.322846717 938.494912328 471.407755141 938.494912328 528.987304254C938.494912328 528.987304254 938.494912328 528.987304254 938.494912328 528.987304254"
         style="stroke-linejoin:round;opacity:1.0;fill-opacity:0.714285714286;stroke-linecap:round;stroke-miterlimit:4;stroke-width:3.54330707;fill:#803300" />
      <path
         id="path4818"
         d="M926.193886164 524.312322127C926.193886164 579.302587033 876.210420533 615.709524139 857.207764731 663.451377983C838.120067486 711.407999258 849.04704919 774.89106069 814.809235537 811.306499441C778.620072065 849.816762502 665.973133811 799.354669691 617.34034189 819.943402752C585.895020758 833.268795905 555.294019593 880.628360339 522.402466707 911.541339378C505.333630567 928.205106247 487.753490255 940.198457114 469.158329565 939.666164048C417.400818401 938.350186194 360.681472663 925.275297566 336.669190278 881.484238947C308.017078024 824.490878649 266.208661177 862.014736113 233.123999931 826.962177248C197.396156799 789.139948606 159.514884949 707.736725186 140.427068579 657.483245471C125.980508853 619.748313184 117.067982021 576.980292649 114.274330755 533.62946949C113.502588707 521.64792192 113.198297325 509.661977627 113.366973618 497.765484699C114.069331391 443.717731092 156.504167647 417.603620544 175.606086863 370.7206286C196.52999122 319.845106956 209.215376405 222.510189478 263.298544478 176.785705604C290.791716074 153.658243437 339.423688602 177.288740665 387.487014407 167.743024952C428.09584959 159.649358748 435.374067355 211.659631497 485.12520415 211.348869618C492.278317359 211.297119763 498.599648526 209.764834028 504.307878211 207.221059223C538.877807335 191.620643172 549.956867912 137.856635349 588.009481932 153.878403447C635.493312133 173.387188933 725.468136115 164.659796679 761.518190856 201.213517908C798.374612862 238.446779588 845.806595001 321.106459752 866.003956968 371.291483756C885.318406924 419.361513358 926.193886164 468.859157571 926.193886164 524.312322127C926.193886164 524.312322127 926.193886164 524.312322127 926.193886164 524.312322127"
         style="stroke-linejoin:round;opacity:1.0;fill-opacity:0.857142857143;stroke-linecap:round;stroke-miterlimit:4;stroke-width:3.54330707;fill:#803300" />
      <path
         id="path4820"
         d="M913.89286 519.63734C913.89286 572.96414 857.64417 605.09278 839.23267 651.30032C820.82117 697.50786 839.21027 762.73014 806.28786 797.67681C773.36547 832.62345 653.66358 766.0544 610.13093 785.59854C581.845607788 798.297346691 555.146738056 852.006047708 526.136207507 888.071189919C510.49796322 907.512251267 494.187998198 921.82646 476.59572 921.82646C426.35344 921.82646 369.72261 909.93553 350.30388 863.69047C324.09045 801.26407 281.86156 850.15122 248.93917 815.20457C216.01679 780.25792 178.50716 696.46422 160.09566 650.25668C145.669394577 614.050918338 136.579312246 572.466365799 133.320052435 530.507345257C132.419686713 518.916227626 131.96429 507.296533125 131.96429 495.75376C131.96429 442.42696 178.98078 421.21367 197.39228 375.00613C215.80378 328.79859 221.28604 226.55629 272.81838 181.62373C298.0736 159.60297 347.20915 191.12372 395.1192 182.70992C435.3882 175.63802 436.34539 237.75575 486.57312 237.75575C493.616976209 237.75575 499.68262216 235.99860527 505.02585426 233.030867998C537.794731318 214.830382605 543.392891154 151.09828453 580.82237 167.90238C624.35501 187.44651 718.51145 171.49322 751.43382 206.43987C784.35621 241.38651 831.65831 326.98511 850.06981 373.19265C868.48131 419.40018 913.89286 466.31056 913.89286 519.63734C913.89286 519.63734 913.89286 519.63734 913.89286 519.63734"
         style="stroke-linejoin:round;opacity:1.0;fill-opacity:1.0;stroke-linecap:round;stroke-miterlimit:4;stroke-width:3.54330707;fill:#803300" />
    </g>
    <g
       id="g4822">
      <path
         id="path4824"
         d="M913.89286 519.63734C913.89286 572.96414 857.64417 605.09278 839.23267 651.30032C837.40798292 655.879756833 835.9447501 660.645955806 834.757201964 665.550936992C823.962124286 710.138311007 835.947467068 766.193558909 806.28786 797.67681C797.465487362 807.041630735 782.411433521 809.116556768 764.261388563 807.512208342C714.681030017 803.12962029 641.997924493 771.291738054 610.13093 785.59854C593.163855056 793.21597505 576.767625851 815.589807608 560.10086274 840.060112788C534.005499741 878.373580864 507.246934688 921.82646 476.59572 921.82646C447.311744606 921.82646 415.857449646 917.786870729 390.866099587 905.2598056C372.979992254 896.294286292 358.404301764 882.981355167 350.30388 863.69047C338.831504523 836.369394487 324.291531238 830.369292708 308.806646464 829.33137529C288.90984905 827.997737171 267.452990817 834.856728189 248.93917 815.20457C232.686708773 797.9528077 215.316333946 768.797011055 199.677515607 738.13552903C183.637001633 706.686482164 169.418139404 673.653407045 160.09566 650.25668C151.326205464 628.247880665 144.52857447 604.25151338 139.813874862 579.391668731C134.630046407 552.058183926 131.96429 523.680834579 131.96429 495.75376C131.96429 470.982218063 142.109598041 453.140190669 154.820239984 436.50343989C169.472362235 417.325517378 187.533351022 399.749190321 197.39228 375.00613C203.933902581 358.588549298 208.843354301 335.097211551 214.766018997 309.615927636C225.512787564 263.379735808 239.595526952 210.591710844 272.81838 181.62373C276.384539147 178.51429224 280.426843541 176.472408215 284.87460883 175.234900221C311.925519355 167.708487331 353.974280656 189.935650768 395.1192 182.70992C404.834366611 181.003776645 412.261397105 183.324802004 418.64419135 187.829138833C438.717839052 201.995108651 448.463167085 237.75575 486.57312 237.75575C499.82903181 237.75575 509.620524224 231.532664285 517.652469385 222.729239864C540.063041027 198.166102323 548.775354898 153.514760458 580.82237 167.90238C589.323178112 171.718847341 599.754376658 174.181724473 611.283047791 175.93434479C658.251898679 183.074678778 723.436834818 178.426017898 750.513761337 205.492257773C750.825528388 205.803901776 751.132243268 206.119750382 751.43382 206.43987C784.35621 241.38651 831.65831 326.98511 850.06981 373.19265C851.994510722 378.023091102 854.214273009 382.861213079 856.646373104 387.713543149C877.479506086 429.278130831 913.89286 471.885233001 913.89286 519.63734C913.89286 519.63734 913.89286 519.63734 913.89286 519.63734"
         style="stroke-linejoin:round;opacity:1.0;fill-opacity:1.0;stroke-linecap:round;stroke-miterlimit:4;stroke-width:3.54330707;fill:#803300" />
      <path
         id="path4826"
         d="M913.89286 519.63734C913.89286 572.96414 857.64417 605.09278 839.23267 651.30032C837.40798292 655.879756833 835.9447501 660.645955806 834.757201964 665.550936992C823.962124286 710.138311007 835.947467068 766.193558909 806.28786 797.67681C797.465487362 807.041630735 782.411433521 809.116556768 764.261388563 807.512208342C714.681030017 803.12962029 641.997924493 771.291738054 610.13093 785.59854C593.163855056 793.21597505 576.767625851 815.589807608 560.10086274 840.060112788C534.005499741 878.373580864 507.246934688 921.82646 476.59572 921.82646C447.311744606 921.82646 415.857449646 917.786870729 390.866099587 905.2598056C372.979992254 896.294286292 358.404301764 882.981355167 350.30388 863.69047C338.831504523 836.369394487 324.291531238 830.369292708 308.806646464 829.33137529C288.90984905 827.997737171 267.452990817 834.856728189 248.93917 815.20457C232.686708773 797.9528077 215.316333946 768.797011055 199.677515607 738.13552903C183.637001633 706.686482164 169.418139404 673.653407045 160.09566 650.25668C151.326205464 628.247880665 144.52857447 604.25151338 139.813874862 579.391668731C134.630046407 552.058183926 131.96429 523.680834579 131.96429 495.75376C131.96429 470.982218063 142.109598041 453.140190669 154.820239984 436.50343989C169.472362235 417.325517378 187.533351022 399.749190321 197.39228 375.00613C203.933902581 358.588549298 208.843354301 335.097211551 214.766018997 309.615927636C225.512787564 263.379735808 239.595526952 210.591710844 272.81838 181.62373C276.384539147 178.51429224 280.426843541 176.472408215 284.87460883 175.234900221C311.925519355 167.708487331 353.974280656 189.935650768 395.1192 182.70992C404.834366611 181.003776645 412.261397105 183.324802004 418.64419135 187.829138833C438.717839052 201.995108651 448.463167085 237.75575 486.57312 237.75575C499.82903181 237.75575 509.620524224 231.532664285 517.652469385 222.729239864C540.063041027 198.166102323 548.775354898 153.514760458 580.82237 167.90238C589.323178112 171.718847341 599.754376658 174.181724473 611.283047791 175.93434479C658.251898679 183.074678778 723.436834818 178.426017898 750.513761337 205.492257773C750.825528388 205.803901776 751.132243268 206.119750382 751.43382 206.43987C784.35621 241.38651 831.65831 326.98511 850.06981 373.19265C851.994510722 378.023091102 854.214273009 382.861213079 856.646373104 387.713543149C877.479506086 429.278130831 913.89286 471.885233001 913.89286 519.63734C913.89286 519.63734 913.89286 519.63734 913.89286 519.63734"
         style="stroke-linejoin:round;opacity:1.0;fill-opacity:1.0;stroke-linecap:round;stroke-miterlimit:4;stroke-width:3.54330707;fill:#803300" />
      <path
         id="path4828"
         d="M907.265308571 522.387954286C907.265308571 573.559525834 845.038256686 599.637510045 824.502866576 642.562467537C822.330389177 646.912420728 820.619409389 651.500743691 819.345203112 656.310845994C808.520756403 698.243190488 825.376012778 753.747235081 802.74490377 786.286823295C796.403871469 796.743183532 783.996122019 800.587009114 767.209761626 800.44069715C722.082547595 799.313238013 649.949273277 767.474374964 614.618196864 776.865471402C595.778236766 781.855410018 577.949554947 799.975570344 561.799973777 821.738186676C536.489127814 855.822864731 511.347061211 900.154675867 482.65563539 906.266307055C455.584609692 911.244825982 426.512101026 912.113956339 402.324513932 901.376471943C384.146947009 893.691741107 368.74965776 882.221553623 359.461531937 865.053654748C346.895131554 840.898012636 332.458581088 834.238143976 318.946768398 830.237485963C301.549459172 824.631777545 282.298711781 828.006320095 265.275663059 809.823151944C248.091299741 791.262354403 227.604626561 771.76728141 211.218227663 742.50512774C195.169443532 713.249657614 183.908632707 679.575999782 176.725775281 654.346404286C169.820137563 631.567230695 164.536583004 607.189889141 159.522607025 583.582040341C153.842491783 557.229845899 147.487705336 530.817638068 144.057956891 504.576995674C141.223680753 481.440968014 147.522512606 464.098120265 158.417348557 447.049908478C170.976310487 427.326717711 189.378677309 409.91410931 200.899555264 386.421144885C209.195791403 370.34797966 216.207203037 348.259581542 222.338474855 323.92549083C233.629269442 279.37969618 245.091123822 226.903131389 272.826956167 194.82189896C275.819650269 191.530133239 279.219484732 189.153250479 282.967521855 187.467148761C305.683308397 176.422409079 349.854189772 202.81045335 390.493652819 197.504159589C400.092788876 196.251782806 407.57616626 198.089830518 413.859306871 201.194004714C434.058248576 210.546370117 445.776893665 245.399051173 482.469843129 247.807473746C495.273614448 248.66956736 505.192674424 243.96794653 513.701606615 236.422154169C537.33917907 215.368036277 547.899403068 172.739550811 578.739158423 183.456052854C587.346798899 186.094012786 597.651823548 187.992719193 609.037510964 190.130892677C654.637597439 198.509557524 718.994072701 182.593842484 746.242152575 209.831659519C746.551416278 210.140806262 746.856293855 210.455048888 747.156710764 210.774414734C778.941047428 244.553626694 822.641938675 332.324546602 840.649478056 378.71197816C842.562385014 383.653928578 844.715206902 388.495989204 847.036176946 393.213699842C867.152076645 434.179897855 907.265308571 475.295518286 907.265308571 522.387954286C907.265308571 522.387954286 907.265308571 522.387954286 907.265308571 522.387954286"
         style="stroke-linejoin:round;opacity:1.0;fill-opacity:1.0;stroke-linecap:round;stroke-miterlimit:4;stroke-width:3.54330707;fill:#922b00" />
      <path
         id="path4830"
         d="M900.637757143 525.138568571C900.637757143 574.154911667 832.432343372 594.18224009 809.773063152 633.824615074C807.252795435 637.945084623 805.294068678 642.355531576 803.93320426 647.070754995C793.07938852 686.348069969 814.804558487 741.300911252 799.201947541 774.896836591C795.342255576 786.44473633 785.580810516 792.057461461 770.158134688 793.369185959C729.484065172 795.496855735 657.90062206 763.657011874 619.105463729 768.132402804C598.392618475 770.494844986 579.131484043 784.36133308 563.499084814 803.416260563C538.972755888 833.272148599 515.447187734 878.482891735 488.71555078 890.70615411C463.857474778 900.663191963 437.166752406 906.44104195 413.782928276 897.493138286C395.313901763 891.089195923 379.095013757 881.46175208 368.619183873 866.416839496C354.958758585 845.426630784 340.625630939 838.106995244 329.086890332 831.143596636C314.189069295 821.265817919 297.144432745 821.155912001 281.612156118 804.441733888C263.495890709 784.571901107 239.892919175 774.737551765 222.758939719 746.87472645C206.701885431 719.812833065 198.39912601 685.49859252 193.355890562 658.436128571C188.314069662 634.886580726 184.544591538 610.128264901 179.231339187 587.772411951C173.054937159 562.401507873 163.011120671 537.954441558 156.151623781 513.400231348C150.483071507 491.899717965 152.935427172 475.05604986 162.014457131 457.596377065C172.480258739 437.327918045 191.224003595 420.079028299 204.406830529 397.836159771C214.457680225 382.107410021 223.571051774 361.421951533 229.910930712 338.235054025C241.745751321 295.379656552 250.586720692 243.214551935 272.835532333 208.020067921C275.254761391 204.545974238 278.012125923 201.834092743 281.060434879 199.699397301C299.441097439 185.136330827 345.734098888 215.685255931 385.868105637 212.298399177C395.351211141 211.499788966 402.890935414 212.854859031 409.074422393 214.558870595C429.3986581 219.097631582 443.090620246 253.042352346 478.366566257 257.859197491C490.718197085 259.583384721 500.764824624 256.403228775 509.750743846 250.115068474C534.615317114 232.56997023 547.023451237 191.964341165 576.655946846 199.009725708C585.370419686 200.469178232 595.549270438 201.803713913 606.791974137 204.327440565C651.023296199 213.94443627 714.551310584 186.76166707 741.970543812 214.171061266C742.277304169 214.477710748 742.580344443 214.790347394 742.879601528 215.108959468C773.525884857 247.720743387 813.62556735 337.663983205 831.229146111 384.23130632C833.130259307 389.284766054 835.216140794 394.13076533 837.425980788 398.713856535C856.824647204 439.081664879 900.637757143 478.705803572 900.637757143 525.138568571C900.637757143 525.138568571 900.637757143 525.138568571 900.637757143 525.138568571"
         style="stroke-linejoin:round;opacity:1.0;fill-opacity:1.0;stroke-linecap:round;stroke-miterlimit:4;stroke-width:3.54330707;fill:#a42400" />
      <path
         id="path4832"
         d="M894.010205714 527.889182857C894.010205714 574.750297501 819.826430058 588.726970135 795.043259729 625.086762612C792.175201692 628.977748518 789.968727966 633.210319461 788.521205408 637.830663996C777.638020636 674.452949449 804.233104197 728.854587423 795.658991311 763.506849886C794.280639682 776.146289127 787.165499014 783.527913807 773.10650775 786.297674767C736.88558275 791.680473458 665.851970843 759.839648784 623.592730593 759.399334206C601.007000185 759.134279954 580.31341314 768.747095817 565.198195851 785.09433445C541.456383962 810.721432466 519.547314257 856.811107602 494.77546617 875.146001166C472.130339864 890.081557945 447.821403787 900.76812756 425.241342621 893.609804628C406.480856518 888.486650738 389.440369753 880.701950536 377.77683581 867.780024244C363.022385616 849.955248933 348.79268079 841.975846511 339.227012265 832.049707309C326.828679417 817.899858293 311.990153708 814.305503907 297.948649177 799.060315832C278.900481676 777.88144781 252.18121179 777.70782212 234.299651776 751.24432516C218.23432733 726.376008515 212.889619313 691.421185258 209.986005843 662.525852857C206.808001761 638.205930756 204.552600072 613.066640662 198.94007135 591.962783561C192.267382535 567.573169847 178.534536007 545.091245048 168.245290672 522.223467021C159.74246226 502.358467917 158.348341738 486.013979456 165.611565705 468.142845652C173.984206991 447.329118379 193.069329882 430.243947289 207.914105793 409.251174656C219.719569047 393.866840383 230.934900511 374.584321525 237.48338657 352.54461722C249.8622332 311.379616924 256.082317562 259.52597248 272.8441085 221.218236881C274.689872512 217.561815237 276.804767114 214.514935007 279.153347903 211.931645841C293.198886481 193.850252576 341.614008004 228.560058513 381.242558456 227.092638766C390.609633406 226.747795126 398.205704569 227.619887545 404.289537914 227.923736476C424.739067624 227.648893048 440.404346826 260.685653519 474.263289386 267.910921237C486.162779722 270.497202081 496.336974823 268.83851102 505.799881077 263.807982779C531.891455157 249.771904184 546.147499407 211.189131518 574.572735269 214.563398561C583.394040473 214.844343677 593.446717329 215.614708633 604.546437309 218.523988452C647.40899496 229.379315016 710.108548467 190.929491656 737.69893505 218.510463013C738.003192059 218.814615234 738.304395031 219.1256459 738.602492292 219.443504202C768.110722285 250.887860081 804.609196025 343.003419807 821.808814167 389.750634481C823.698133599 394.915603531 825.717074687 399.765541456 827.815784631 404.214013228C846.497217764 443.983431903 894.010205714 482.116088858 894.010205714 527.889182857C894.010205714 527.889182857 894.010205714 527.889182857 894.010205714 527.889182857"
         style="stroke-linejoin:round;opacity:1.0;fill-opacity:1.0;stroke-linecap:round;stroke-miterlimit:4;stroke-width:3.54330707;fill:#b61d00" />
      <path
         id="path4834"
         d="M887.382654286 530.639797143C887.382654286 575.345683335 807.220516744 583.27170018 780.313456305 616.348910149C777.09760795 620.010412414 774.643387255 624.065107346 773.109206556 628.590572997C762.196652753 662.55782893 793.661649906 716.408263594 792.116035081 752.116863181C793.219023789 765.847841924 788.750187512 774.998366154 776.054880813 779.226163575C744.287100328 787.86409118 673.803319627 756.022285694 628.079997457 750.666265608C603.621381895 747.773714922 581.495342236 753.132858553 566.897306889 766.772408338C543.940012035 788.170716334 523.64744078 835.139323469 500.835381561 859.585848221C480.40320495 879.499923927 458.476055167 895.09521317 436.699756966 889.726470971C417.647811273 885.884105554 399.785725749 879.942148993 386.934487746 869.143208992C371.086012647 854.483867081 356.95973064 845.844697779 349.367134199 832.955817982C339.46828954 814.533898667 326.835874672 807.455095813 314.285142236 793.678897777C294.305072644 771.190994514 264.469504404 780.678092476 245.840363832 755.61392387C229.766769229 732.939183965 227.380112616 697.343777996 226.616121124 666.615577143C225.30193386 641.525280787 224.560608606 616.005016422 218.648803512 596.15315517C211.479827911 572.74483182 194.057951343 552.228048538 180.338957563 531.046702695C169.001853013 512.817217868 163.761256303 496.971909052 169.208674279 478.689314239C175.488155244 457.330318713 194.914656169 440.408866278 211.421381057 420.666189541C224.981457869 405.626270745 238.298749247 387.746691516 245.055842427 366.854180415C257.978715078 327.379577296 261.577914431 275.837393026 272.852684667 234.416405841C274.124983634 230.577656236 275.597408305 227.195777272 277.246260927 224.163894381C286.956675523 202.564174324 337.49391712 241.434861095 376.617011275 241.886878355C385.868055671 241.995801286 393.520473724 242.384916058 399.504653436 241.288602357C420.079477148 236.200154514 437.718073407 268.328954693 470.160012514 277.962644983C481.60736236 281.411019442 491.909125023 281.273793265 501.849018308 277.500897084C529.167593201 266.973838138 545.271547576 230.413921871 572.489523691 230.117071415C581.41766126 229.219509122 591.344164219 229.425703353 602.300900482 232.720536339C643.79469372 244.814193762 705.665786351 195.097316242 733.427326287 222.84986476C733.72907995 223.151519721 734.028445618 223.460944406 734.325383056 223.778048936C762.695559713 254.054976774 795.592824699 348.342856409 812.388482223 395.269962641C814.266007892 400.546441007 816.218008579 405.400317582 818.205588473 409.714169921C836.169788323 448.885198927 887.382654286 485.526374143 887.382654286 530.639797143C887.382654286 530.639797143 887.382654286 530.639797143 887.382654286 530.639797143"
         style="stroke-linejoin:round;opacity:1.0;fill-opacity:1.0;stroke-linecap:round;stroke-miterlimit:4;stroke-width:3.54330707;fill:#c81500" />
      <path
         id="path4836"
         d="M880.755102857 533.390411429C880.755102857 575.941069169 794.614603429 577.816430225 765.583652881 607.611057686C762.020014207 611.043076309 759.318046544 614.919895231 757.697207704 619.350481998C746.75528487 650.662708411 783.090195616 703.961939765 788.573078852 740.726876477C792.157407896 755.549394722 790.33487601 766.4688185 779.003253875 772.154652383C751.688617906 784.047708903 681.75466841 752.204922604 632.567264322 741.93319701C606.235763604 736.41314989 582.677271332 737.518621289 568.596417926 748.450482225C546.423640109 765.620000201 527.747567303 813.467539336 506.895296951 844.025695276C488.676070036 868.918289909 469.130706547 889.42229878 448.158171311 885.843137314C428.814766028 883.281560369 410.131081745 879.182347449 396.092139683 870.50639374C379.149639678 859.01248523 365.126780491 849.713549047 359.507256133 833.861928654C352.107899662 811.167939042 341.681595636 800.604687719 330.621635295 788.297479721C309.709663612 764.500541218 276.757797019 783.648362831 257.381075888 759.98352258C241.299211127 739.502359416 241.870605919 703.266370733 243.246236405 670.705301428C243.795865959 644.844630818 244.56861714 618.943392182 238.357535675 600.34352678C230.692273287 577.916493794 209.581366678 559.364852027 192.432624453 539.869938369C178.261243766 523.275967819 169.174170869 507.929838648 172.805782852 489.235782826C176.992103496 467.331519046 196.759982455 450.573785267 214.928656321 432.081204426C230.243346691 417.385701107 245.662597984 400.909061507 252.628298285 381.16374361C266.095196957 343.379537667 267.073511301 292.148813571 272.861260834 247.614574802C273.560094756 243.593497235 274.390049497 239.876619536 275.339173952 236.39614292C280.714464565 211.278096072 333.373826236 254.309663676 371.991464093 256.681117943C381.126477936 257.243807447 388.835242879 257.149944572 394.719768957 254.653468238C415.419886671 244.751415979 435.031799987 275.972255866 466.056735643 288.014368728C477.051944997 292.324836802 487.481275223 293.70907551 497.898155538 291.19381139C526.443731244 284.175772092 544.395595745 249.638712225 570.406312114 245.670744269C579.441282047 243.594674567 589.241611109 243.236698073 600.055363655 246.917084226C640.18039248 260.249072508 701.223024234 199.265140828 729.155717525 227.189266506C729.454967841 227.488424207 729.752496206 227.796242913 730.04827382 228.112593671C757.280397141 257.222093468 786.576453374 353.682293011 802.968150278 400.789290801C804.833882184 406.177278484 806.718942472 411.035093707 808.595392315 415.214326614C825.842358882 453.786965952 880.755102857 488.936659429 880.755102857 533.390411429C880.755102857 533.390411429 880.755102857 533.390411429 880.755102857 533.390411429"
         style="stroke-linejoin:round;opacity:1.0;fill-opacity:1.0;stroke-linecap:round;stroke-miterlimit:4;stroke-width:3.54330707;fill:#da0e00" />
      <path
         id="path4838"
         d="M874.127551429 536.141025714C874.127551429 576.536455002 782.008690115 572.36116027 750.853849457 598.873205223C746.942420465 602.075740204 743.992705832 605.774683115 742.285208852 610.110390999C731.313916987 638.767587892 772.518741325 691.515615936 785.030122622 729.336889772C791.095792002 745.250947519 791.919564508 757.939270847 781.951626938 765.083141192C759.090135483 780.231326625 689.706017194 748.387559515 637.054531186 733.200128412C608.850145314 725.052584858 583.859200429 721.904384025 570.295528963 730.128556113C548.907268182 743.069284068 531.847693826 791.795755204 512.955212341 828.465542331C496.948935122 858.33665589 479.785357928 883.74938439 459.616585655 881.959803657C439.981720782 880.679015185 420.476437742 878.422545906 405.249791619 871.869578488C387.213266709 863.541103378 373.293830341 853.582400314 369.647378066 834.768039327C364.747509785 807.801979416 356.5273166 793.754279625 346.958128354 782.916061665C325.114254579 757.810087921 289.046089633 786.618633186 268.921787944 764.35312129C252.831653026 746.065534866 256.361099222 709.188963471 259.876351686 674.795025714C262.289798058 648.163980848 264.576625675 621.881767943 258.066267837 604.53389839C249.904718664 583.088155768 225.104782014 566.501655517 204.526291344 548.693174043C187.52063452 533.73471777 174.587085434 518.887768244 176.402891426 499.782251413C178.496051748 477.33271938 198.605308742 460.738704256 218.435931586 443.496219312C235.505235513 429.145131468 253.02644672 414.071431499 260.200754142 395.473306805C274.211678835 359.379498039 272.569108171 308.460234117 272.869837 260.812743762C272.995205877 256.609338235 273.182690688 252.5574618 273.432086976 248.62839146C274.472253606 219.992017821 329.253735352 267.184466258 367.365916912 271.475357532C376.384900201 272.491813607 384.150012034 271.914973086 389.934884479 268.018334119C410.760296195 253.302677445 432.345526568 283.615557039 461.953458771 298.066092474C472.496527635 303.238654162 483.053425423 306.144357755 493.947292769 304.886725695C523.719869288 301.377706046 543.519643915 268.863502578 568.323100537 261.224417123C577.464902834 257.969840013 587.139057999 257.047692793 597.809826827 261.113632113C636.56609124 275.683951254 696.780262117 203.432965414 724.884108762 231.528668253C725.180855731 231.825328693 725.476546794 232.131541419 725.771164584 232.447138405C751.86523457 260.389210161 777.560082049 359.021729614 793.547818334 406.308618961C795.401756477 411.80811596 797.219876365 416.669869833 798.985196158 420.714483307C815.514929441 458.688732976 874.127551429 492.346944714 874.127551429 536.141025714C874.127551429 536.141025714 874.127551429 536.141025714 874.127551429 536.141025714"
         style="stroke-linejoin:round;opacity:1.0;fill-opacity:1.0;stroke-linecap:round;stroke-miterlimit:4;stroke-width:3.54330707;fill:#ec0700" />
      <path
         id="path4840"
         d="M867.5 538.89164C867.5 577.131840836 769.402776801 566.905890316 736.124046034 590.135352761C731.864826722 593.108404099 728.667365121 596.629471 726.87321 600.8703C715.872549104 626.872467372 761.947287035 679.069292107 781.487166392 717.946903067C790.034176109 734.952500316 793.504253006 749.409723194 784.9 758.01163C766.491653061 776.414944348 697.657365977 744.570196425 641.54179805 724.467059814C611.464527023 713.692019826 585.041129525 706.290146761 571.99464 711.80663C551.390896256 720.518567936 535.947820349 770.123971071 519.015127731 812.905389387C505.221800208 847.755021872 490.440009308 878.07647 471.075 878.07647C451.148675537 878.07647 430.821793738 877.662744362 414.407443556 873.232763236C395.27689374 868.069721527 381.460880192 857.451251582 379.7875 835.67415C377.387119908 804.43601979 371.373037564 786.90387153 363.294621414 777.534643609C340.518845547 751.119634625 301.334382248 789.588903541 280.4625 768.72272C264.364094925 752.628710316 270.851592525 715.111556209 276.506466968 678.88475C280.783730157 651.483330879 284.584634209 624.820143703 277.775 608.72427C269.11716404 588.259817742 240.628197349 573.638459007 216.619958235 557.516409717C196.780025273 544.193467722 180.0 529.84569784 180.0 510.32872C180.0 487.333919714 200.450635029 470.903623245 221.94320685 454.911234197C240.767124335 440.90456183 260.390295457 427.23380149 267.77321 409.78287C282.328160714 375.379458411 278.064705041 324.771654663 272.878413167 274.010912723C272.430316999 269.625179234 271.975331879 265.238304064 271.525 260.86064C268.230042648 228.705939569 325.133644468 280.05926884 362.74036973 286.26959712C371.643322466 287.739819767 379.464781189 286.680001599 385.15 281.3832C406.100705719 261.853938911 429.659253148 291.258858212 457.8501819 308.11781622C467.941110272 314.152471523 478.625575622 318.57964 489.99643 318.57964C520.996007332 318.57964 542.643692084 288.088292931 566.23988896 276.778089977C575.488523622 272.345005458 585.03650489 270.858687513 595.56429 275.31018C632.95179 291.11883 692.3375 207.60079 720.6125 235.86807C720.906743622 236.16223318 721.200597381 236.466839925 721.494055347 236.781683139C746.450071998 263.556326855 768.543710724 364.361166216 784.12748639 411.827947121C785.96963077 417.438953437 787.720810257 422.304645959 789.375 426.21464C805.1875 463.5905 867.5 495.75723 867.5 538.89164C867.5 538.89164 867.5 538.89164 867.5 538.89164"
         style="stroke-linejoin:round;opacity:1.0;fill-opacity:1.0;stroke-linecap:round;stroke-miterlimit:4;stroke-width:3.54330707;fill:#ff0000" />
      <path
         id="path4842"
         d="M867.5 538.89164C867.5 577.131840836 769.402776801 566.905890316 736.124046034 590.135352761C731.864826722 593.108404099 728.667365121 596.629471 726.87321 600.8703C715.872549104 626.872467372 761.947287035 679.069292107 781.487166392 717.946903067C790.034176109 734.952500316 793.504253006 749.409723194 784.9 758.01163C766.491653061 776.414944348 697.657365977 744.570196425 641.54179805 724.467059814C611.464527023 713.692019826 585.041129525 706.290146761 571.99464 711.80663C551.390896256 720.518567936 535.947820349 770.123971071 519.015127731 812.905389387C505.221800208 847.755021872 490.440009308 878.07647 471.075 878.07647C451.148675537 878.07647 430.821793738 877.662744362 414.407443556 873.232763236C395.27689374 868.069721527 381.460880192 857.451251582 379.7875 835.67415C377.387119908 804.43601979 371.373037564 786.90387153 363.294621414 777.534643609C340.518845547 751.119634625 301.334382248 789.588903541 280.4625 768.72272C264.364094925 752.628710316 270.851592525 715.111556209 276.506466968 678.88475C280.783730157 651.483330879 284.584634209 624.820143703 277.775 608.72427C269.11716404 588.259817742 240.628197349 573.638459007 216.619958235 557.516409717C196.780025273 544.193467722 180.0 529.84569784 180.0 510.32872C180.0 487.333919714 200.450635029 470.903623245 221.94320685 454.911234197C240.767124335 440.90456183 260.390295457 427.23380149 267.77321 409.78287C282.328160714 375.379458411 278.064705041 324.771654663 272.878413167 274.010912723C272.430316999 269.625179234 271.975331879 265.238304064 271.525 260.86064C268.230042648 228.705939569 325.133644468 280.05926884 362.74036973 286.26959712C371.643322466 287.739819767 379.464781189 286.680001599 385.15 281.3832C406.100705719 261.853938911 429.659253148 291.258858212 457.8501819 308.11781622C467.941110272 314.152471523 478.625575622 318.57964 489.99643 318.57964C520.996007332 318.57964 542.643692084 288.088292931 566.23988896 276.778089977C575.488523622 272.345005458 585.03650489 270.858687513 595.56429 275.31018C632.95179 291.11883 692.3375 207.60079 720.6125 235.86807C720.906743622 236.16223318 721.200597381 236.466839925 721.494055347 236.781683139C746.450071998 263.556326855 768.543710724 364.361166216 784.12748639 411.827947121C785.96963077 417.438953437 787.720810257 422.304645959 789.375 426.21464C805.1875 463.5905 867.5 495.75723 867.5 538.89164C867.5 538.89164 867.5 538.89164 867.5 538.89164"
         style="stroke-linejoin:round;opacity:1.0;fill-opacity:1.0;stroke-linecap:round;stroke-miterlimit:4;stroke-width:3.54330707;fill:#ff0000" />
    </g>
    <g
       id="g4844">
      <path
         id="path4846"
         d="M867.5 538.89164C867.5 578.195458126 763.869911726 566.299544194 733.501132012 592.153082068C730.541350748 594.672801916 728.277457284 597.551092795 726.87321 600.8703C714.41980462 630.306306991 775.111905613 693.312319912 787.647612744 732.561548921C791.028906863 743.148361922 790.906539154 752.006728703 784.9 758.01163C757.559503937 785.344651544 618.985098102 701.83614175 576.053407365 710.578723007C574.585993097 710.877546283 573.230316956 711.284145296 571.99464 711.80663C534.60714 727.61529 514.2125 878.07647 471.075 878.07647C462.858617401 878.07647 454.574130962 878.006127249 446.523917703 877.612879777C412.296802961 875.940908376 382.304639171 868.431795686 379.7875 835.67415C379.488763961 831.786451004 379.134056342 828.111039967 378.726363746 824.637231936C366.622446888 721.503930105 307.816155052 796.068906609 280.4625 768.72272C267.748328018 756.012019403 269.122109672 729.938635467 273.047313754 701.691782871C277.851356499 667.120564554 286.477231407 629.293659393 277.775 608.72427C272.395671272 596.009197038 259.360641945 585.54981868 244.501332403 575.584661508C215.681803184 556.257307336 180.0 538.789032238 180.0 510.32872C180.0 500.579114234 183.676390406 492.009602819 189.549829017 484.153213033C209.66178653 457.251190548 255.534784745 438.710730321 267.77321 409.78287C271.389026116 401.236196602 273.843463051 391.689468081 275.410888091 381.388778518C280.698045159 346.643025322 275.892666245 303.318605935 271.525 260.86064C269.936156654 245.355497943 282.344754779 249.267743513 299.83754537 258.1726659C327.209543906 272.106721833 367.030036163 298.265198146 385.15 281.3832C391.066954041 275.867694133 397.191916209 274.255303714 403.570492812 275.161080711C427.861497738 278.61047622 455.83055056 318.57964 489.99643 318.57964C497.775623878 318.57964 504.965896601 316.659493976 511.7458272 313.604170756C542.573135854 299.712082839 564.917105437 262.351546213 595.56429 275.31018C612.204283286 282.346109919 633.201810578 269.706828567 653.874696981 256.004338467C679.650599776 238.919445435 704.921807861 220.181661934 720.6125 235.86807C728.225298691 243.478787455 735.577130158 258.080248498 742.56528332 276.085836397C761.532109223 324.95552243 777.819878578 398.901899061 789.375 426.21464C791.68525219 431.675361733 794.988096119 437.02488907 798.944175936 442.313672972C822.065448273 473.223922156 867.5 502.059292618 867.5 538.89164C867.5 538.89164 867.5 538.89164 867.5 538.89164"
         style="stroke-linejoin:round;opacity:1.0;fill-opacity:1.0;stroke-linecap:round;stroke-miterlimit:4;stroke-width:3.54330707;fill:#ff0000" />
      <path
         id="path4848"
         d="M867.5 538.89164C867.5 578.195458126 763.869911726 566.299544194 733.501132012 592.153082068C730.541350748 594.672801916 728.277457284 597.551092795 726.87321 600.8703C714.41980462 630.306306991 775.111905613 693.312319912 787.647612744 732.561548921C791.028906863 743.148361922 790.906539154 752.006728703 784.9 758.01163C757.559503937 785.344651544 618.985098102 701.83614175 576.053407365 710.578723007C574.585993097 710.877546283 573.230316956 711.284145296 571.99464 711.80663C534.60714 727.61529 514.2125 878.07647 471.075 878.07647C462.858617401 878.07647 454.574130962 878.006127249 446.523917703 877.612879777C412.296802961 875.940908376 382.304639171 868.431795686 379.7875 835.67415C379.488763961 831.786451004 379.134056342 828.111039967 378.726363746 824.637231936C366.622446888 721.503930105 307.816155052 796.068906609 280.4625 768.72272C267.748328018 756.012019403 269.122109672 729.938635467 273.047313754 701.691782871C277.851356499 667.120564554 286.477231407 629.293659393 277.775 608.72427C272.395671272 596.009197038 259.360641945 585.54981868 244.501332403 575.584661508C215.681803184 556.257307336 180.0 538.789032238 180.0 510.32872C180.0 500.579114234 183.676390406 492.009602819 189.549829017 484.153213033C209.66178653 457.251190548 255.534784745 438.710730321 267.77321 409.78287C271.389026116 401.236196602 273.843463051 391.689468081 275.410888091 381.388778518C280.698045159 346.643025322 275.892666245 303.318605935 271.525 260.86064C269.936156654 245.355497943 282.344754779 249.267743513 299.83754537 258.1726659C327.209543906 272.106721833 367.030036163 298.265198146 385.15 281.3832C391.066954041 275.867694133 397.191916209 274.255303714 403.570492812 275.161080711C427.861497738 278.61047622 455.83055056 318.57964 489.99643 318.57964C497.775623878 318.57964 504.965896601 316.659493976 511.7458272 313.604170756C542.573135854 299.712082839 564.917105437 262.351546213 595.56429 275.31018C612.204283286 282.346109919 633.201810578 269.706828567 653.874696981 256.004338467C679.650599776 238.919445435 704.921807861 220.181661934 720.6125 235.86807C728.225298691 243.478787455 735.577130158 258.080248498 742.56528332 276.085836397C761.532109223 324.95552243 777.819878578 398.901899061 789.375 426.21464C791.68525219 431.675361733 794.988096119 437.02488907 798.944175936 442.313672972C822.065448273 473.223922156 867.5 502.059292618 867.5 538.89164C867.5 538.89164 867.5 538.89164 867.5 538.89164"
         style="stroke-linejoin:round;opacity:1.0;fill-opacity:1.0;stroke-linecap:round;stroke-miterlimit:4;stroke-width:3.54330707;fill:#ff0000" />
      <path
         id="path4850"
         d="M867.5 538.89164C867.5 578.195458126 763.869911726 566.299544194 733.501132012 592.153082068C730.541350748 594.672801916 728.277457284 597.551092795 726.87321 600.8703C714.41980462 630.306306991 775.111905613 693.312319912 787.647612744 732.561548921C791.028906863 743.148361922 790.906539154 752.006728703 784.9 758.01163C757.559503937 785.344651544 618.985098102 701.83614175 576.053407365 710.578723007C574.585993097 710.877546283 573.230316956 711.284145296 571.99464 711.80663C534.60714 727.61529 514.2125 878.07647 471.075 878.07647C462.858617401 878.07647 454.574130962 878.006127249 446.523917703 877.612879777C412.296802961 875.940908376 382.304639171 868.431795686 379.7875 835.67415C379.488763961 831.786451004 379.134056342 828.111039967 378.726363746 824.637231936C366.622446888 721.503930105 307.816155052 796.068906609 280.4625 768.72272C267.748328018 756.012019403 269.122109672 729.938635467 273.047313754 701.691782871C277.851356499 667.120564554 286.477231407 629.293659393 277.775 608.72427C272.395671272 596.009197038 259.360641945 585.54981868 244.501332403 575.584661508C215.681803184 556.257307336 180.0 538.789032238 180.0 510.32872C180.0 500.579114234 183.676390406 492.009602819 189.549829017 484.153213033C209.66178653 457.251190548 255.534784745 438.710730321 267.77321 409.78287C271.389026116 401.236196602 273.843463051 391.689468081 275.410888091 381.388778518C280.698045159 346.643025322 275.892666245 303.318605935 271.525 260.86064C269.936156654 245.355497943 282.344754779 249.267743513 299.83754537 258.1726659C327.209543906 272.106721833 367.030036163 298.265198146 385.15 281.3832C391.066954041 275.867694133 397.191916209 274.255303714 403.570492812 275.161080711C427.861497738 278.61047622 455.83055056 318.57964 489.99643 318.57964C497.775623878 318.57964 504.965896601 316.659493976 511.7458272 313.604170756C542.573135854 299.712082839 564.917105437 262.351546213 595.56429 275.31018C612.204283286 282.346109919 633.201810578 269.706828567 653.874696981 256.004338467C679.650599776 238.919445435 704.921807861 220.181661934 720.6125 235.86807C728.225298691 243.478787455 735.577130158 258.080248498 742.56528332 276.085836397C761.532109223 324.95552243 777.819878578 398.901899061 789.375 426.21464C791.68525219 431.675361733 794.988096119 437.02488907 798.944175936 442.313672972C822.065448273 473.223922156 867.5 502.059292618 867.5 538.89164C867.5 538.89164 867.5 538.89164 867.5 538.89164"
         style="stroke-linejoin:round;opacity:1.0;fill-opacity:1.0;stroke-linecap:round;stroke-miterlimit:4;stroke-width:3.54330707;fill:#ff0000" />
      <path
         id="path4852"
         d="M856.83673289 539.795594323C856.83673289 578.41569565 752.113622474 565.77404029 724.275998631 592.207014484C721.561451808 594.786647687 719.58929205 597.736527573 718.46985569 601.113885795C708.568199151 631.229560741 771.120834909 694.291951911 778.951768476 730.848106463C781.250671001 740.521867014 779.949569071 747.927689147 773.222784444 752.383896714C742.856569373 772.778198384 609.777322342 688.448959945 569.498410649 697.414652171C568.078089069 697.739534155 566.761787683 698.192540941 565.555923905 698.777804899C530.485422201 715.160624971 513.201213025 860.949298506 473.833573845 867.07316298C466.248211792 868.462305838 458.47122509 869.240665896 450.693970566 868.903596634C417.002894091 867.47047829 386.243376256 860.862918094 383.186462666 829.560117096C382.811088802 825.799982888 382.460824828 822.168065654 382.149557286 818.648476579C372.898188439 714.300807391 319.957272282 778.389851713 293.454710095 757.853407378C280.025663225 749.362650737 278.314685379 731.288217238 280.215312955 705.612796233C282.223678804 673.870938315 290.900995872 636.11931161 284.08515597 613.853720523C279.816471997 600.48958837 268.804506396 589.255268571 255.440401211 579.230000387C229.392775061 559.483351901 193.275118253 542.564639548 190.533609136 515.349506569C189.591896821 506.023828476 192.130783304 497.606454149 197.165159256 489.611637074C214.403979981 462.809129401 261.474821943 446.484084311 276.488853321 419.827587862C281.023124875 411.911497931 284.237222189 402.994541373 286.015938734 393.13642821C291.932614922 360.080254807 284.640072286 316.565206385 279.046453959 274.537918407C277.120311767 259.52902976 287.315141932 261.23294152 302.157960003 267.394905999C325.24065418 275.646581624 365.934160738 304.005634888 385.762532071 290.20330864C391.82859871 285.63030883 397.951675876 284.120632865 404.0567706 284.302537623C427.477518623 284.835665399 451.583804115 328.272456539 483.336330197 332.052431097C490.623484416 333.001104562 497.552904877 331.963960365 504.353566557 329.34511189C533.560507372 317.437607962 556.397072974 281.18070463 586.116062842 288.925577918C603.040674867 292.362082713 623.560657993 279.452626783 643.141148309 268.494718386C667.702774402 254.894398101 692.507095506 235.653068194 708.79406911 246.848308481C717.394567544 251.726208511 725.608018387 263.093579861 732.962832692 279.891909655C751.99694227 324.557041408 768.430271896 398.856946474 780.122121367 427.996145873C782.395015603 433.614710998 785.500339459 438.998845528 789.145546195 444.133277073C810.771020857 474.900574323 856.83673289 503.293897415 856.83673289 539.795594323C856.83673289 539.795594323 856.83673289 539.795594323 856.83673289 539.795594323"
         style="stroke-linejoin:round;opacity:1.0;fill-opacity:1.0;stroke-linecap:round;stroke-miterlimit:4;stroke-width:3.54330707;fill:#ff1d00" />
      <path
         id="path4854"
         d="M846.173465779 540.699548647C846.173465779 578.635933174 740.357333222 565.248536386 715.05086525 592.260946899C712.581552868 594.900493457 710.901126817 597.921962352 710.066501381 601.35747159C702.716593683 632.15281449 767.129764205 695.271583909 770.255924208 729.134664006C771.472435138 737.895372106 768.992598987 743.84864959 761.545568889 746.756163428C728.15363481 760.211745224 600.569546581 675.061778139 562.943413934 684.250581335C561.570185041 684.601522027 560.29325841 685.100936586 559.11720781 685.748979799C526.363704403 702.705959943 512.189926051 843.822127011 476.59214769 856.06985596C469.637806182 858.848141676 462.368319219 860.475204542 454.864023429 860.194313491C421.708985221 859.000048204 390.182113341 853.294040501 386.585425332 823.446084192C386.133413642 819.813514772 385.787593315 816.225091341 385.572750825 812.659721223C379.17392999 707.097684678 332.098389513 760.710796816 306.44692019 746.984094756C292.302998432 742.71328207 287.507261086 732.637799008 287.383312156 709.533809594C286.59600111 680.621312075 295.324760337 642.944963826 290.39531194 618.983171045C287.237272722 604.969979702 278.248370847 592.960718462 266.379470019 582.875339265C243.103746937 562.709396466 206.550236506 546.340246859 201.067218273 520.370293138C199.183793642 511.468542717 200.585176201 503.20330548 204.780489495 495.070061114C219.146173433 468.367068255 267.414859142 454.257438302 285.204496641 429.872305724C290.657223634 422.586799261 294.630981328 414.299614665 296.620989377 404.884077902C303.167184684 373.517484292 293.387478328 329.811806835 286.567907919 288.215196815C284.30446688 273.702561578 292.285529085 273.198139528 304.478374635 276.617146098C323.271764455 279.186441415 364.838285312 309.746071631 386.375064141 299.02341728C392.59024338 295.392923528 398.711435543 293.985962016 404.543048388 293.443994536C427.093539508 291.060854578 447.33705767 337.965273078 476.676230394 345.525222194C483.471344954 347.422569124 490.139913154 347.268426754 496.961305914 345.086053025C524.547878889 335.163133084 547.87704051 300.009863048 576.667835684 302.540975835C593.877066448 302.378055507 613.919505408 289.198424999 632.407599637 280.985098306C655.754949027 270.869350766 680.09238315 251.124474455 696.975638219 257.828546962C706.563836398 259.973629566 715.638906616 268.106911224 723.360382065 283.697982914C742.461775317 324.158560386 759.040665213 398.811993887 770.869242734 429.777651746C773.104779016 435.554060262 776.012582798 440.972801986 779.346916454 445.952881174C799.476593442 476.57722649 846.173465779 504.528502212 846.173465779 540.699548647C846.173465779 540.699548647 846.173465779 540.699548647 846.173465779 540.699548647"
         style="stroke-linejoin:round;opacity:1.0;fill-opacity:1.0;stroke-linecap:round;stroke-miterlimit:4;stroke-width:3.54330707;fill:#ff3a00" />
      <path
         id="path4856"
         d="M835.510198669 541.60350297C835.510198669 578.856170698 728.601043969 564.723032482 705.825731869 592.314879314C703.601653928 595.014339228 702.212961583 598.10739713 701.663147071 601.601057385C696.864988215 633.076068239 763.138693501 696.251215908 761.56007994 727.421221548C761.694199275 735.268877197 758.035628904 739.769610033 749.868353333 741.128430142C713.450700246 747.645292063 591.36177082 661.674596333 556.388417219 671.086510499C555.062281013 671.4635099 553.824729137 672.009332231 552.678491714 672.720154698C522.241986604 690.251294914 511.178639076 826.694955517 479.350721535 845.066548939C473.027400572 849.233977514 466.265413347 851.709743188 459.034076292 851.485030347C426.415076351 850.529618118 394.120850425 845.725162908 389.984387998 817.332051288C389.455738482 813.827046656 389.114361801 810.282117028 388.995944365 806.670965867C385.449671541 699.894561964 344.239506743 743.03174192 319.439130285 736.114782133C304.580333639 736.063913404 296.699836793 733.987380778 294.551311357 713.454822955C290.968323415 687.371685835 299.748524803 649.770616042 296.70546791 624.112621568C294.658073447 609.450371034 287.692235298 596.666168353 277.318538827 586.520678144C256.814718813 565.935441031 219.825354759 550.11585417 211.600827409 525.391079707C208.775690463 516.913256958 209.039569099 508.800156811 212.395819734 500.528485154C223.888366884 473.925007108 273.35489634 462.030792292 293.920139962 439.917023585C300.291322393 433.262100591 305.024740466 425.604687957 307.22604002 416.631727593C314.401754447 386.954713777 302.13488437 343.058407285 294.089361878 301.892475222C291.488621992 287.876093396 297.255916238 285.163337535 306.798789268 285.839386197C321.302874729 282.726301207 363.742409886 315.486508374 386.987596212 307.84352592C393.351888049 305.155538225 399.47119521 303.851291168 405.029326175 302.585451449C426.709560393 297.286043756 443.090311226 347.658089618 470.016130591 358.998013291C476.319205491 361.844033686 482.72692143 362.572893142 489.569045271 360.826994159C515.535250406 352.888658207 539.357008047 318.839021465 567.219608526 316.156373753C584.713458029 312.394028301 604.278352823 298.944223215 621.674050965 293.475478225C643.807123652 286.844303432 667.677670795 266.595880715 685.157207329 268.808785443C695.733105252 268.221050622 705.669794845 273.120242588 713.757931437 287.504056172C732.926608364 323.760079365 749.651058531 398.7670413 761.6163641 431.55915762C763.81454243 437.493409526 766.524826137 442.946758444 769.548286714 447.772485275C788.182166026 478.253878657 835.510198669 505.763107008 835.510198669 541.60350297C835.510198669 541.60350297 835.510198669 541.60350297 835.510198669 541.60350297"
         style="stroke-linejoin:round;opacity:1.0;fill-opacity:1.0;stroke-linecap:round;stroke-miterlimit:4;stroke-width:3.54330707;fill:#ff5700" />
      <path
         id="path4858"
         d="M824.846931559 542.507457293C824.846931559 579.076408221 716.844754717 564.197528578 696.600598489 592.368811729C694.621754988 595.128184999 693.524796349 598.292831909 693.259792762 601.844643181C691.013382746 633.999321988 759.147622797 697.230847906 752.864235672 725.707779091C751.915963413 732.642382289 747.07865882 735.690570477 738.191137777 735.500696856C698.747765682 735.078838903 582.153995059 648.287414527 549.833420504 657.922439663C548.554376985 658.325497772 547.356199864 658.917727876 546.239775619 659.691329598C518.120268805 677.796629885 510.167352101 809.567784023 482.10929538 834.063241919C476.416994963 839.619813351 470.162507476 842.944281835 463.204129155 842.775747204C431.121167481 842.059188032 398.05958751 838.156285316 393.383350664 811.218018384C392.778063322 807.84057854 392.441130287 804.339142715 392.419137905 800.682210511C391.725413093 692.691439251 356.380623973 725.352687023 332.43134038 725.245469511C316.857668846 729.414544737 305.8924125 735.336962549 301.719310558 717.375836316C295.340645721 694.122059595 304.172289268 656.596268258 303.015623879 629.24207209C302.078874172 613.930762366 297.136099748 600.371618244 288.257607636 590.166017022C270.525690689 569.161485596 233.100473011 553.89146148 222.134436546 530.411866276C218.367587284 522.357971199 217.493961997 514.397008142 220.011149973 505.986909194C228.630560335 479.482945962 279.294933538 469.804146282 302.635783283 449.961741447C309.925421152 443.93740192 315.418499605 436.909761249 317.831090663 428.379377285C325.63632421 400.391943263 310.882290411 356.305007735 301.610815838 315.56975363C298.672777105 302.049625213 302.226303391 297.128535542 309.1192039 295.061626296C319.333985003 286.266160998 362.646534461 321.226945117 387.600128282 316.66363456C394.113532719 314.918152923 400.230954877 313.716620319 405.515603963 311.726908362C426.325581279 303.511232935 438.843564781 357.350906157 463.356030788 372.470804388C469.167066029 376.265498248 475.313929706 377.877359531 482.176784628 376.567935294C506.522621923 370.61418333 530.836975583 337.668179883 557.771381368 329.77177167C575.549849611 322.410001095 594.637200238 308.690021431 610.940502293 305.965858145C631.859298278 302.819256098 655.262958439 282.067286976 673.338776439 279.789023924C684.902374105 276.468471677 695.700683074 278.133573951 704.15548081 291.310129431C723.39144141 323.361598343 740.261451849 398.722088713 752.363485467 433.340663493C754.524305843 439.432758791 757.037069476 444.920714902 759.749656973 449.592089375C776.887738611 479.930530825 824.846931559 506.997711805 824.846931559 542.507457293C824.846931559 542.507457293 824.846931559 542.507457293 824.846931559 542.507457293"
         style="stroke-linejoin:round;opacity:1.0;fill-opacity:1.0;stroke-linecap:round;stroke-miterlimit:4;stroke-width:3.54330707;fill:#ff7400" />
      <path
         id="path4860"
         d="M814.183664448 543.411411617C814.183664448 579.296645745 705.088465465 563.672024673 687.375465108 592.422744144C685.641856048 595.242030769 684.836631115 598.478266687 684.856438452 602.088228976C685.161777278 634.922575737 755.156552093 698.210479904 744.168391405 723.994336633C742.13772755 730.01588738 736.121688737 731.61153092 726.513922222 729.87296357C684.044831119 722.512385743 572.946219299 634.900232721 543.278423788 644.758368827C542.046472957 645.187485644 540.887670591 645.826123522 539.801059524 646.662504497C513.998551007 665.341964857 509.156065126 792.440612528 484.867869226 823.059934899C479.806589353 830.005649189 474.059601604 834.178820481 467.374182018 834.066464061C435.82725861 833.588757946 401.998324595 830.587407723 396.782313329 805.10398548C396.100388162 801.854110423 395.767898773 798.396168403 395.842331444 794.693455155C398.001154644 685.488316537 368.521741203 707.673632127 345.423550475 714.376156889C329.135004053 722.765176071 315.084988207 736.686544319 308.887309759 721.296849678C299.712968027 700.872433356 308.596053733 663.421920475 309.325779849 634.371522613C309.499674897 618.411153698 306.579964199 604.077068135 299.196676444 593.8113559C284.236662566 572.387530161 246.375591264 557.667068791 232.668045682 535.432652845C227.959484105 527.80268544 225.948354894 519.993859473 227.626480212 511.445333235C233.372753787 485.040884815 285.234970736 477.577500273 311.351426603 460.006459309C319.55951991 454.61270325 325.812258743 448.214834541 328.436141306 440.127026977C336.870893973 413.829172748 319.629696453 369.551608185 309.132269797 329.247032037C305.856932218 316.223157031 307.196690544 309.093733549 311.439618533 304.283866395C317.365095277 289.806020789 361.550659035 326.967381859 388.212660353 325.4837432C394.875177388 324.68076762 400.990714543 323.58194947 406.001881751 320.868365274C425.941602164 309.736422114 434.596818336 367.043722696 456.695930985 385.943595485C462.014926567 390.68696281 467.900937983 393.18182592 474.784523985 392.308876428C497.50999344 388.339708452 522.316943119 356.4973383 548.323154211 343.387169588C566.386241192 332.425973888 584.996047653 318.435819647 600.206953621 318.456238064C619.911472903 318.794208764 642.848246084 297.538693236 661.520345548 290.769262405C674.071642959 284.715892732 685.731571303 283.146905314 694.553030182 295.116202689C713.856274457 322.963117321 730.871845166 398.677136126 743.110606834 435.122169366C745.234069256 441.372108055 747.549312815 446.89467136 749.951027232 451.411693476C765.593311195 481.607182992 814.183664448 508.232316602 814.183664448 543.411411617C814.183664448 543.411411617 814.183664448 543.411411617 814.183664448 543.411411617"
         style="stroke-linejoin:round;opacity:1.0;fill-opacity:1.0;stroke-linecap:round;stroke-miterlimit:4;stroke-width:3.54330707;fill:#ff9100" />
      <path
         id="path4862"
         d="M803.520397338 544.31536594C803.520397338 579.516883269 693.332176213 563.146520769 678.150331727 592.47667656C676.661957108 595.35587654 676.148465882 598.663701465 676.453084142 602.331814771C679.310171809 635.845829487 751.165481389 699.190111903 735.472547137 722.280894175C732.359491687 727.389392472 725.164718653 727.532491364 714.836706666 724.245230284C669.341896555 709.945932583 563.738443538 621.513050915 536.723427073 631.594297991C535.538568929 632.049473517 534.419141318 632.734519167 533.362343429 633.633679397C509.876833208 652.887299828 508.144778152 775.313441034 487.626443071 812.056627879C483.196183744 820.391485027 477.956695733 825.413359128 471.544234881 825.357180917C440.53334974 825.11832786 405.93706168 823.018530131 400.181275995 798.989952575C399.422713003 795.867642307 399.094667259 792.45319409 399.265524984 788.704699799C404.276896195 678.285193824 380.662858434 689.99457723 358.41576057 703.506844267C341.41233926 716.115807405 324.277563914 738.036126089 316.055308961 725.217863039C304.085290332 707.622807116 313.019818198 670.247572691 315.635935819 639.500973136C316.920475621 622.89154503 316.02382865 607.782518026 310.135745252 597.456694779C297.947634442 575.613574726 259.650709517 561.442676102 243.201654819 540.453439414C237.551380925 533.247399682 234.402747792 525.590710804 235.241810451 516.903757275C238.114947238 490.598823668 291.175007935 485.350854263 320.067069924 470.051177171C329.193618669 465.288004579 336.206017882 459.519907833 339.041191949 451.874676668C348.105463736 427.266402233 328.377102495 382.798208635 316.653723756 342.924310444C313.04108733 330.396688849 312.167077697 321.058931556 313.760033165 313.506106495C315.396205551 293.345880581 360.45478361 332.707818602 388.825192423 334.303851839C395.636822058 334.443382318 401.75047421 333.447278621 406.488159539 330.009822187C425.557623049 315.961611293 430.350071892 376.736539235 450.035831182 399.416386582C454.862787105 405.108427372 460.487946259 408.486292308 467.392263341 408.049817563C488.497364958 406.065233575 513.796910656 375.326496718 538.874927053 357.002567505C557.222632773 342.441946682 575.354895068 328.181617863 589.473404949 330.946617983C607.963647529 334.76916143 630.433533728 313.010099497 649.701914658 301.749500886C663.240911813 292.963313788 675.762459533 288.160236677 684.950579555 298.922275948C704.321107504 322.564636299 721.482238484 398.632183539 733.857728201 436.903675239C735.94383267 443.31145732 738.061556154 448.868627818 740.152397491 453.231297577C754.29888378 483.283835159 803.520397338 509.466921399 803.520397338 544.31536594C803.520397338 544.31536594 803.520397338 544.31536594 803.520397338 544.31536594"
         style="stroke-linejoin:round;opacity:1.0;fill-opacity:1.0;stroke-linecap:round;stroke-miterlimit:4;stroke-width:3.54330707;fill:#ffae00" />
      <path
         id="path4864"
         d="M792.857130228 545.219320263C792.857130228 579.737120793 681.57588696 562.621016865 668.925198346 592.530608975C667.682058168 595.469722311 667.460300648 598.849136244 668.049729833 602.575400566C673.458566341 636.769083236 747.174410685 700.169743901 726.776702869 720.567451718C722.581255825 724.762897563 714.20774857 723.453451807 703.159491111 718.617496998C654.638961991 697.379479423 554.530667777 608.125869109 530.168430358 618.430227155C529.030664901 618.911461389 527.950612045 619.642914812 526.923627334 620.604854296C505.755115409 640.4326348 507.133491177 758.18626954 490.385016916 801.053320858C486.585778134 810.777320865 481.853789861 816.647897774 475.714287744 816.647897774C445.23944087 816.647897774 409.875798765 815.449652538 403.580238661 792.875919671C402.745037843 789.881174191 402.421435745 786.510219777 402.688718524 782.715944442C410.552637746 671.082071111 392.803975664 672.315522333 371.407970665 692.637531644C353.689674467 709.466438738 333.470139621 739.38570786 323.223308162 729.1388764C308.457612638 714.373180876 317.443582663 677.073224907 321.946091789 644.630423658C324.341276346 627.371936363 325.467693101 611.487967917 321.074814061 601.102033657C311.658606318 578.839619291 272.92582777 565.218283413 253.735263955 545.474225983C247.143277746 538.692113923 242.85714069 531.187562135 242.85714069 522.362181315C242.85714069 496.156762522 297.115045133 493.124208253 328.782713245 480.095895032C338.827717428 475.963305909 346.59977702 470.824981125 349.646242592 463.62232636C359.340033498 440.703631718 337.124508536 396.044809086 324.175177716 356.601588852C320.225242443 344.570220666 317.13746485 333.024129564 316.080447798 322.728346594C313.427315826 296.885740372 359.358908184 338.448255345 389.437724494 343.123960479C396.398466727 344.205997015 402.510233877 343.312607773 406.974437327 339.1512791C425.173643934 322.186800471 426.103325447 386.429355775 443.375731379 412.889177679C447.710647643 419.529891934 453.074954535 423.790758697 460.000002698 423.790758697C479.484736475 423.790758697 505.276878192 394.155655135 529.426699895 370.617965423C548.059024354 352.457919476 565.713742483 337.927416079 578.739856277 343.436997903C596.015822154 350.744114096 618.018821373 328.481505757 637.883483768 312.729739367C652.410180666 301.210734843 665.793347762 293.173568041 675.348128927 302.728349207C694.785940551 322.166155277 712.092631801 398.587230952 724.604849567 438.685181113C726.653596083 445.250806584 728.573799493 450.842584276 730.35376775 455.050901678C743.004456364 484.960487326 792.857130228 510.701526195 792.857130228 545.219320263C792.857130228 545.219320263 792.857130228 545.219320263 792.857130228 545.219320263"
         style="stroke-linejoin:round;opacity:1.0;fill-opacity:1.0;stroke-linecap:round;stroke-miterlimit:4;stroke-width:3.54330707;fill:#ffcc00" />
      <path
         id="path4866"
         d="M792.857130228 545.219320263C792.857130228 579.737120793 681.57588696 562.621016865 668.925198346 592.530608975C667.682058168 595.469722311 667.460300648 598.849136244 668.049729833 602.575400566C673.458566341 636.769083236 747.174410685 700.169743901 726.776702869 720.567451718C722.581255825 724.762897563 714.20774857 723.453451807 703.159491111 718.617496998C654.638961991 697.379479423 554.530667777 608.125869109 530.168430358 618.430227155C529.030664901 618.911461389 527.950612045 619.642914812 526.923627334 620.604854296C505.755115409 640.4326348 507.133491177 758.18626954 490.385016916 801.053320858C486.585778134 810.777320865 481.853789861 816.647897774 475.714287744 816.647897774C445.23944087 816.647897774 409.875798765 815.449652538 403.580238661 792.875919671C402.745037843 789.881174191 402.421435745 786.510219777 402.688718524 782.715944442C410.552637746 671.082071111 392.803975664 672.315522333 371.407970665 692.637531644C353.689674467 709.466438738 333.470139621 739.38570786 323.223308162 729.1388764C308.457612638 714.373180876 317.443582663 677.073224907 321.946091789 644.630423658C324.341276346 627.371936363 325.467693101 611.487967917 321.074814061 601.102033657C311.658606318 578.839619291 272.92582777 565.218283413 253.735263955 545.474225983C247.143277746 538.692113923 242.85714069 531.187562135 242.85714069 522.362181315C242.85714069 496.156762522 297.115045133 493.124208253 328.782713245 480.095895032C338.827717428 475.963305909 346.59977702 470.824981125 349.646242592 463.62232636C359.340033498 440.703631718 337.124508536 396.044809086 324.175177716 356.601588852C320.225242443 344.570220666 317.13746485 333.024129564 316.080447798 322.728346594C313.427315826 296.885740372 359.358908184 338.448255345 389.437724494 343.123960479C396.398466727 344.205997015 402.510233877 343.312607773 406.974437327 339.1512791C425.173643934 322.186800471 426.103325447 386.429355775 443.375731379 412.889177679C447.710647643 419.529891934 453.074954535 423.790758697 460.000002698 423.790758697C479.484736475 423.790758697 505.276878192 394.155655135 529.426699895 370.617965423C548.059024354 352.457919476 565.713742483 337.927416079 578.739856277 343.436997903C596.015822154 350.744114096 618.018821373 328.481505757 637.883483768 312.729739367C652.410180666 301.210734843 665.793347762 293.173568041 675.348128927 302.728349207C694.785940551 322.166155277 712.092631801 398.587230952 724.604849567 438.685181113C726.653596083 445.250806584 728.573799493 450.842584276 730.35376775 455.050901678C743.004456364 484.960487326 792.857130228 510.701526195 792.857130228 545.219320263C792.857130228 545.219320263 792.857130228 545.219320263 792.857130228 545.219320263"
         style="stroke-linejoin:round;opacity:1.0;fill-opacity:1.0;stroke-linecap:round;stroke-miterlimit:4;stroke-width:3.54330707;fill:#ffcc00" />
      <path
         id="path4868"
         d="M792.857130228 545.219320263C792.857130228 579.737120793 681.57588696 562.621016865 668.925198346 592.530608975C667.682058168 595.469722311 667.460300648 598.849136244 668.049729833 602.575400566C673.458566341 636.769083236 747.174410685 700.169743901 726.776702869 720.567451718C722.581255825 724.762897563 714.20774857 723.453451807 703.159491111 718.617496998C654.638961991 697.379479423 554.530667777 608.125869109 530.168430358 618.430227155C529.030664901 618.911461389 527.950612045 619.642914812 526.923627334 620.604854296C505.755115409 640.4326348 507.133491177 758.18626954 490.385016916 801.053320858C486.585778134 810.777320865 481.853789861 816.647897774 475.714287744 816.647897774C445.23944087 816.647897774 409.875798765 815.449652538 403.580238661 792.875919671C402.745037843 789.881174191 402.421435745 786.510219777 402.688718524 782.715944442C410.552637746 671.082071111 392.803975664 672.315522333 371.407970665 692.637531644C353.689674467 709.466438738 333.470139621 739.38570786 323.223308162 729.1388764C308.457612638 714.373180876 317.443582663 677.073224907 321.946091789 644.630423658C324.341276346 627.371936363 325.467693101 611.487967917 321.074814061 601.102033657C311.658606318 578.839619291 272.92582777 565.218283413 253.735263955 545.474225983C247.143277746 538.692113923 242.85714069 531.187562135 242.85714069 522.362181315C242.85714069 496.156762522 297.115045133 493.124208253 328.782713245 480.095895032C338.827717428 475.963305909 346.59977702 470.824981125 349.646242592 463.62232636C359.340033498 440.703631718 337.124508536 396.044809086 324.175177716 356.601588852C320.225242443 344.570220666 317.13746485 333.024129564 316.080447798 322.728346594C313.427315826 296.885740372 359.358908184 338.448255345 389.437724494 343.123960479C396.398466727 344.205997015 402.510233877 343.312607773 406.974437327 339.1512791C425.173643934 322.186800471 426.103325447 386.429355775 443.375731379 412.889177679C447.710647643 419.529891934 453.074954535 423.790758697 460.000002698 423.790758697C479.484736475 423.790758697 505.276878192 394.155655135 529.426699895 370.617965423C548.059024354 352.457919476 565.713742483 337.927416079 578.739856277 343.436997903C596.015822154 350.744114096 618.018821373 328.481505757 637.883483768 312.729739367C652.410180666 301.210734843 665.793347762 293.173568041 675.348128927 302.728349207C694.785940551 322.166155277 712.092631801 398.587230952 724.604849567 438.685181113C726.653596083 445.250806584 728.573799493 450.842584276 730.35376775 455.050901678C743.004456364 484.960487326 792.857130228 510.701526195 792.857130228 545.219320263C792.857130228 545.219320263 792.857130228 545.219320263 792.857130228 545.219320263"
         style="stroke-linejoin:round;opacity:1.0;fill-opacity:1.0;stroke-linecap:round;stroke-miterlimit:4;stroke-width:3.54330707;fill:#ffcc00" />
    </g>
  </g>
</svg>
